<svg xmlns="http://www.w3.org/2000/svg" width="111" height="131" viewBox="0 0 111 131">
  <polygon fill="#CCCCCC" stroke="#FFFFFF" stroke-width=".5" points="302.1 322.36 302.1 330.72 302.1 339.04 302.1 347.33 302.09 355.58 302.09 363.79 302.09 371.97 302.09 380.11 302.09 388.21 302.09 396.28 302.09 404.32 302.09 412.32 302.08 420.3 302.08 428.24 302.08 436.14 302.08 444.02 302.08 451.89 297.77 451.9 291.07 451.91 284.37 451.92 277.66 451.94 270.96 451.95 264.26 451.97 255.26 448.69 246.27 445.42 237.28 442.13 228.28 438.85 219.29 435.55 210.3 432.25 201.3 428.95 192.31 425.64 193.22 424.37 194.42 421 194.49 420.8 194.49 420.8 197.12 420.56 198.37 419.71 199.1 418.16 199.27 416.58 198.85 414.97 197.72 413.78 195.87 412.99 194.8 410.78 194.52 407.14 194.85 405.18 195.81 404.89 196.73 404 197.62 402.51 198.27 400.88 198.69 399.11 198.77 396.86 198.51 394.15 200.23 390.8 201.92 388.73 205.06 386.19 205.78 385.43 205.79 384.8 205.79 384.73 205.15 383.86 202.32 382.08 201.12 380.81 201.01 379.64 200.98 379.62 200.61 378.49 197.59 373.79 196.57 371.19 196.58 369.26 196.58 369.11 196.95 360.91 195.86 358.06 195.6 356.45 195.93 354.47 195.83 353.24 195.32 352.16 195.19 350.21 195.13 347.8 194.27 346.25 194.1 345.55 194.59 343.88 195.47 343.02 196.92 342.42 198.58 342.21 200.46 342.4 201.87 343.15 202.82 344.46 203.76 345.13 204.69 345.16 205.9 344.08 206.99 341.77 207.35 341.62 207.38 331.52 207.4 322.28 213.32 322.28 219.23 322.29 225.15 322.29 231.07 322.3 236.99 322.3 242.91 322.31 248.83 322.31 254.75 322.32 260.67 322.32 266.58 322.33 272.5 322.33 278.42 322.34 284.34 322.34 290.26 322.35 296.18 322.35" transform="translate(-192 -322)"/>
</svg>
