<svg xmlns="http://www.w3.org/2000/svg" width="118" height="191" viewBox="0 0 118 191">
  <polygon fill="#CCCCCC" stroke="#FFFFFF" stroke-width=".5" points="264.08 135.04 264.08 139.18 264.08 143.3 264.08 147.41 264.08 151.5 264.08 155.59 264.08 159.67 264.09 163.74 264.09 167.79 264.09 171.84 264.09 175.87 264.09 179.9 264.09 183.91 264.1 187.91 264.1 191.91 264.1 195.89 264.1 199.87 260.55 199.87 257.01 199.87 253.46 199.87 249.91 199.87 246.37 199.87 242.82 199.86 239.27 199.86 235.73 199.86 232.18 199.86 228.63 199.86 225.09 199.86 221.54 199.86 217.99 199.86 214.45 199.86 210.9 199.86 207.35 199.86 200.3 199.86 193.25 199.86 186.2 199.87 179.15 199.87 172.1 199.87 165.05 199.87 158 199.87 150.95 199.88 150.94 194.19 150.93 188.48 150.93 182.76 150.92 177.01 150.91 171.25 150.9 165.46 150.89 159.65 150.88 153.23 150.88 153.11 152.07 149.15 152.33 147.22 152.01 146.13 152.22 145.08 152.95 144.07 152.93 142.96 152.16 141.75 150.72 140.95 148.62 140.56 147.52 139.15 147.44 136.71 149.01 132.94 152.24 127.84 154 124.23 154.31 122.11 156.25 117.19 159.82 109.45 161.18 104.48 160.35 102.29 158.53 100.2 155.73 98.19 153.75 95.87 153.23 94.68 152.59 93.22 152.26 91.35 152.74 90.28 152.35 88.41 151.07 85.74 150.53 83.91 150.65 83.27 150.79 83.02 150.78 78.61 150.76 74.2 150.75 69.77 150.73 65.33 150.71 60.87 150.7 56.4 150.68 51.92 150.67 47.42 150.65 42.91 150.64 38.38 150.62 33.84 150.6 29.29 150.59 24.72 150.57 20.14 150.56 15.54 150.53 10.95 156.63 10.95 164.72 10.95 169.31 10.95 169.31 18.04 169.31 25.11 169.31 32.15 169.3 39.16 171.34 42 172.85 43.74 173.81 45.61 175.28 47.56 175.57 48.26 176.09 50.36 175.72 51.88 176.5 53.41 176.36 54.17 175.77 54.56 175.65 54.69 175.67 54.84 175.88 55.1 177.94 56.57 179.98 58.61 182.57 60.02 183.38 60.85 186.79 64.93 188.56 67.53 190.42 69.41 191.34 71.57 193.25 73.45 193.73 74.4 193.87 74.62 194.12 74.64 195.3 74.19 195.61 74.31 196.2 75.06 196.33 76.19 196.75 76.66 197.48 76.94 198.32 77.01 200.94 76.46 201.51 76.46 201.77 76.69 201.9 77.29 201.86 78.28 201.6 79.68 200.82 81.07 200.95 82.36 200.33 85.36 199.74 87.36 199.69 89.31 198.96 90.43 199.37 91.75 199.09 93.77 199.35 94.29 200.27 95.23 200.64 97.7 200.48 98.16 198.82 99.12 198.25 99.76 198.04 100.66 198.76 103.26 198.06 104.69 197.97 105.93 198.12 106.24 199.66 106.9 201.51 108.36 202.11 108.67 202.52 108.62 203.3 108.13 204.17 107.14 205.95 106.15 208.04 104.01 208.15 103.41 208.31 103.07 208.58 103.09 209.25 103.38 210.57 104.68 211.71 105.4 211.91 105.56 212.02 105.92 211.96 107.2 212.6 108.22 212.79 109.88 213.43 111.54 213.91 113.54 215.62 116.11 216.55 117.95 217.58 118.78 218.19 119.76 218.65 120.93 218.82 121.87 218.23 123.58 218.39 124.28 218.93 125.07 220.7 126.83 221.05 126.98 222.68 126.78 223.58 127.08 224.46 127.96 225.36 129.3 225.94 130.63 226.1 132.23 227 133.98 227.13 135.54 227.69 136.22 228.82 137.15 229.9 137.71 230.32 137.75 230.62 137.5 230.73 136.65 231.16 135.99 232.51 135.07 233.8 135.09 238.64 135.86 238.97 135.81 239.19 135.56 240.02 134.14 240.68 133.59 241.7 133.41 244.68 133.75 248.14 133.56 249.94 133.96 252.55 133.44 255.58 133.83 255.96 133.59 256.06 133.3 255.78 132.77 255.74 131.72 256.35 130.48 256.56 129.41 257.17 128.81 257.99 128.48 258.65 128.51 259.29 129.09 260.02 130.04 261.31 132.61 262 133.54 262.83 134.35" transform="translate(-147 -10)"/>
</svg>
