<svg xmlns="http://www.w3.org/2000/svg" width="80" height="119" viewBox="0 0 80 119">
  <path fill="#CCCCCC" stroke="#FFFFFF" stroke-width=".5" d="M1060.54,59.09 L1060.64,59.67 L1061.5,60.71 L1062.75,61.41 L1063.69,61.64 L1064.8,61.63 L1067.84,60.24 L1071.41,59.34 L1073.37,58.49 L1073.73,57.7 L1074.63,57.42 L1076.06,57.66 L1078.69,59.64 L1081.76,62.62 L1084.19,64.98 L1084.26,69.06 L1084.31,73.37 L1084.36,77.9 L1084.4,81.12 L1084.46,85.54 L1084.51,89.04 L1084.58,93.6 L1084.62,96.03 L1084.95,96.73 L1084.75,97.69 L1084.66,98.17 L1084.68,98.55 L1084.81,99.03 L1084.79,99.7 L1084.48,100.31 L1084.33,101.01 L1084.28,102.16 L1084.62,102.86 L1085.18,103.27 L1085.65,103.27 L1086.25,103.68 L1087.03,104.41 L1088.21,105.04 L1089.43,105.26 L1090.27,105.1 L1091.29,105.51 L1091.65,106.52 L1091.45,107.47 L1090.87,107.92 L1090.25,108.27 L1090.14,109 L1090.45,109.76 L1090.9,110.43 L1091.39,111.6 L1091.19,112.61 L1090.75,113.46 L1090.55,114.34 L1090.93,115.1 L1091.93,116.11 L1092.55,117.09 L1093.53,117.63 L1094,117.25 L1094.38,116.75 L1094.78,116.37 L1095.47,116.59 L1096.27,116.87 L1097.15,117.21 L1097.05,118.03 L1097.58,119.4 L1097.99,122.04 L1097.35,123.24 L1097.49,124.82 L1099.25,125.28 L1099.68,125.76 L1099.76,126.34 L1095.89,130.39 L1092.61,129.82 L1090.83,130.89 L1088.97,131.2 L1088.15,133 L1087.13,133.38 L1085.73,133.27 L1084.52,132.76 L1083.6,133.01 L1082.31,136.26 L1081.26,135.98 L1080.84,137.15 L1080.29,137.66 L1079.48,138.1 L1078.78,136.66 L1078.33,135.29 L1077.67,134.99 L1076.8,134.64 L1075.9,134.65 L1075.3,134.85 L1074.55,135.74 L1073.47,136.5 L1072.65,135.87 L1072.01,134.85 L1071.46,136.49 L1070.67,138.22 L1070.8,140.24 L1070.46,141.43 L1069.71,141.11 L1068.96,140.06 L1066.85,139.22 L1065.17,139.3 L1065.51,138.18 L1067.1,136.57 L1066.61,136.26 L1065.83,136.48 L1065.49,136.26 L1066.05,134.8 L1066.1,133.18 L1065.39,133.75 L1064.5,135.46 L1062.34,136.81 L1062.44,139.08 L1060.4,143.72 L1060.31,145.69 L1059,147.26 L1057.32,148.61 L1055.07,148.23 L1053.36,149.4 L1052.49,150.74 L1051.73,150.94 L1051.33,149.23 L1051.04,148.7 L1050.41,151.22 L1049.77,151.38 L1049.53,149.59 L1049.23,148.41 L1048.35,149.43 L1047.77,152.13 L1047.16,151.9 L1046.97,150.9 L1046.53,150.6 L1046.38,151.75 L1046.6,153.36 L1046.28,154.22 L1045.67,153.76 L1045.06,152.99 L1044.05,153.58 L1043.13,153.82 L1043.13,153.03 L1043.31,152.06 L1041.47,152.6 L1039.26,154.39 L1037.55,156.86 L1038.15,157.27 L1038.82,158.06 L1035.84,161.87 L1032.79,165.29 L1030.48,170.85 L1029.56,171.5 L1028.76,172.52 L1027.25,170.1 L1026.94,168.14 L1025.22,165.83 L1024.54,164.24 L1024.31,162.45 L1024.41,160.52 L1024.26,157.63 L1024.11,154.73 L1023.96,151.83 L1023.81,148.92 L1023.66,146.01 L1023.51,143.09 L1023.37,140.16 L1023.22,137.23 L1023.07,134.29 L1022.92,131.35 L1022.77,128.4 L1022.62,125.45 L1022.47,122.49 L1022.33,119.53 L1022.18,116.56 L1022.04,113.9 L1022.5,113.49 L1023.65,112.73 L1024.4,112.84 L1025.05,113.98 L1025.59,114.74 L1026.21,114.52 L1026.75,113.45 L1026.73,111.96 L1027.46,110.92 L1028.33,110.76 L1029.13,110.79 L1029.53,110.28 L1029.48,109.55 L1029.19,108.38 L1029.29,106.96 L1031.3,104.46 L1033.76,102.76 L1034.62,101.91 L1034.87,100.18 L1036.28,98.39 L1036.98,97.36 L1037.15,96.46 L1036.78,95.35 L1036.82,93.24 L1037.31,90.72 L1037.89,87.96 L1039.19,85.47 L1041.32,82.75 L1041.87,79.17 L1042.45,75.39 L1045.03,71.69 L1047.96,67.48 L1049.62,65.08 L1052.62,60.71 L1054.75,57.59 L1055.83,56.16 L1056.95,54.46 L1058.78,54.97 L1060.6,55.48 L1060.33,57.95 L1060.54,59.09 Z M1076.97,139.45 L1075.87,139.97 L1074.66,139.74 L1074.68,141.14 L1074.54,141.64 L1073.2,140.92 L1072.71,140.46 L1072.75,138.61 L1073.94,136.86 L1074.84,136.17 L1076.01,136.65 L1076.91,138.61 L1076.97,139.45 Z M1068.71,143.05 L1067.99,143.57 L1067.22,143.4 L1067.2,142.1 L1067.43,141.66 L1067.7,141.46 L1068.1,141.83 L1068.71,143.05 Z" transform="translate(-1021 -54)"/>
</svg>
