<svg xmlns="http://www.w3.org/2000/svg" width="86" height="44" viewBox="0 0 86 44">
  <path fill="#CCCCCC" stroke="#FFFFFF" stroke-width=".5" d="M932.89,256.79 L933.08,260.68 L933.26,264.56 L933.45,268.43 L933.64,272.29 L933.82,276.14 L934.01,279.98 L934.2,283.81 L934.38,287.63 L934.42,287.63 L934.47,287.63 L934.51,287.63 L934.55,287.63 L934.59,287.63 L934.63,287.63 L934.68,287.63 L934.72,287.63 L936.63,287.63 L940.83,287.63 L945.03,287.63 L947.06,287.61 L947.04,288.31 L946.8,289.36 L946.36,289.78 L946.38,288.71 L946.07,288.34 L945.56,288.8 L945.23,289.33 L945.09,291.41 L944.74,292.45 L943.5,292.76 L942.24,295.48 L941.07,297.02 L940.65,297.98 L938.88,298.22 L936.02,298.6 L935.28,299.68 L933.84,299.21 L931.65,299.26 L932.06,297.79 L932.7,296.5 L931.56,295.21 L930.88,295.05 L930.18,294.52 L931,293.45 L931.4,292.31 L931.16,290.93 L931.5,289.89 L930.93,290.05 L930.01,291.15 L929.44,291.59 L929.09,290.61 L928.69,290.83 L928.43,291.5 L927.84,291.87 L926.6,290.95 L924.8,289.9 L923.79,288.09 L923.22,286.69 L923.8,284.15 L925.05,283.7 L926.67,284.11 L928.8,284.11 L928.5,283.54 L927.74,283.63 L925.5,281.56 L924.78,280.31 L923.54,279.97 L922.98,281.17 L922.35,281.49 L923.13,278.86 L924.14,278.75 L925.63,278.02 L925.2,276.5 L924.26,275.83 L922.56,276.67 L922.58,275.6 L922.9,274.23 L924.18,274.23 L925.31,274.68 L926.27,272.46 L926.31,271.47 L924.72,272.91 L924.36,269.79 L925.93,266.78 L927.42,265.47 L929.29,265.51 L931.19,265.3 L930,264.75 L928.78,264.45 L929.7,263.26 L930.48,263.05 L931.25,262.01 L929.4,262.17 L929.62,260.2 L928.72,260.6 L927.65,260.79 L927.23,261.63 L927.31,263.02 L927,263.93 L926.16,264.66 L924.75,265.23 L924.61,264.24 L924.14,263.79 L923.97,265.9 L923.6,266.62 L922.57,264.64 L922.26,265.04 L922.3,265.6 L922.04,266.57 L921.15,267.08 L921.21,268.33 L920.86,269.01 L918.03,267.93 L917.96,268.3 L919.56,270.63 L920.73,271.43 L920.87,272.7 L919.87,273.75 L918.48,272.84 L918.25,272.91 L919,274.47 L919.47,275.83 L918.98,276.97 L919.06,278.37 L918.96,279.64 L918.66,280.75 L919.34,285.84 L920.15,287.22 L920.95,288.54 L921.37,289.78 L920.52,289.96 L919.17,288.94 L917.98,288.17 L916.57,285.69 L916.34,284.7 L916,283.92 L916.17,285.72 L916.67,287.73 L921.09,292.21 L921.91,293.93 L922.53,295.28 L922.37,296.57 L921.22,295.66 L920.22,294.5 L917.58,293.18 L914.25,292.35 L912.37,289.29 L912.38,290.57 L911.97,291.65 L910.82,290.33 L910.1,289.2 L909.86,287.96 L908.43,288.04 L906.93,289.12 L905.48,288.87 L905.31,286.77 L905.7,285.66 L907.33,283.02 L908.87,281.67 L909.55,279.93 L909.32,277.23 L909.52,279.24 L911.2,277.26 L910.11,275.7 L909.1,274.26 L907.58,275.92 L906.29,275.3 L904.19,273.25 L900.78,271.8 L900.3,271.08 L900.37,270.28 L900.83,269.17 L899.78,268.08 L897.23,267.01 L896.06,266 L895.83,265.81 L895.72,264.69 L895.39,263.98 L894.83,263.68 L894.72,263.2 L895.06,262.54 L894.71,261.83 L893.67,261.07 L893.31,260.4 L893.63,259.81 L893.1,259.54 L891.72,259.59 L890.37,259.04 L889.03,257.9 L887.45,257.71 L884.72,258.85 L883.18,259.13 L882.5,259.78 L882.17,260.89 L881.5,261.45 L880,261.46 L879.76,261.42 L878.05,261.05 L876.84,260.36 L876.62,260.08 L876.75,259.49 L876.53,259.22 L876.16,259.18 L875.81,259.52 L875.46,260.56 L872.49,263.41 L871.06,262.84 L870.52,262.86 L866.38,266.88 L865.13,267.52 L862.7,269.34 L862.75,266.22 L862.8,263.09 L862.85,259.96 L862.9,256.82 L867.28,256.82 L871.66,256.82 L876.04,256.82 L880.42,256.82 L884.8,256.82 L889.18,256.82 L893.56,256.82 L897.94,256.82 L902.32,256.82 L906.7,256.82 L911.08,256.82 L915.46,256.82 L919.84,256.82 L924.22,256.82 L928.6,256.82 L932.89,256.82 L932.89,256.79 Z M943.49,297.61 L942.99,297.68 L943.49,296.84 L945.17,292.81 L945.92,291.42 L945.19,294.25 L943.92,296.85 L943.49,297.61 Z" transform="translate(-862 -256)"/>
</svg>
