<svg xmlns="http://www.w3.org/2000/svg" width="69" height="110" viewBox="0 0 69 110">
  <path fill="#CCCCCC" stroke="#FFFFFF" stroke-width=".5" d="M697.95,369.08 L699.63,370.6 L699.56,371.15 L699.54,371.52 L699.42,372.6 L698.96,376.85 L698.5,381.09 L698.04,385.31 L697.58,389.53 L697.12,393.74 L696.66,397.94 L696.2,402.13 L695.74,406.31 L695.28,410.48 L694.82,414.64 L694.36,418.79 L693.9,422.93 L693.44,427.07 L692.98,431.2 L692.52,435.32 L692.06,439.43 L692.26,443.6 L692.46,447.76 L692.66,451.91 L692.86,456.05 L693.06,460.19 L693.26,464.32 L693.46,468.44 L693.71,472.95 L688.16,473.29 L685.74,472.17 L684.74,471.95 L684.13,471.98 L681.31,473.01 L678.09,473.79 L677.33,473.55 L676.25,473.51 L673.92,476.18 L672.45,476.85 L671.99,476.67 L671.47,476.49 L671.11,476.19 L670.4,474.59 L670.18,473.44 L669.33,470.95 L668.36,469.55 L667.27,468.62 L666.78,467.69 L666.78,467.06 L666.43,465.95 L666.48,465.06 L667.82,461.65 L668.38,459.12 L663.82,459.12 L659.26,459.12 L654.7,459.12 L650.1,459.12 L645.54,459.12 L640.98,459.12 L636.42,459.12 L631.88,459.11 L631.95,458.5 L632.74,457.72 L633.02,456.73 L632.37,454.36 L632.61,453.05 L633.74,452.81 L634.3,451.55 L634.3,449.26 L634.74,447.71 L635.63,446.91 L636.47,445.03 L637.27,442.06 L638.9,439.61 L641.36,437.68 L642.57,436.01 L642.64,434.71 L642.91,434.11 L643.41,433.78 L644.24,432.9 L645.32,431.68 L645.51,430.85 L645.46,430.28 L645.38,429.66 L644.52,428.54 L643.21,427.58 L642.37,426.09 L642.43,424.95 L642.14,423.95 L641.5,423.08 L641.64,422.27 L642.55,421.53 L642.59,420.82 L641.76,420.15 L641.75,418.96 L642.56,417.25 L642.51,416.07 L641.6,415.41 L641.49,414.31 L641.44,413.75 L642.31,409.75 L642.11,409.23 L641.24,408.02 L641.14,406.55 L641.66,404.76 L641.41,403.36 L640.68,402.86 L640.5,402.3 L640.28,401.48 L641.07,400.73 L641.12,400.03 L640.42,399.39 L640.86,398.48 L642.45,397.31 L642.89,396.64 L643.35,395.94 L643.63,394.26 L643.41,393.26 L643.03,392.6 L643.22,392.26 L643.55,391.95 L645.45,391.34 L645.99,390.91 L646.1,390.39 L645.5,389.09 L646.08,387.72 L647.84,386.27 L648.77,384.99 L648.88,383.89 L649.72,383.08 L651.29,382.57 L652.26,380.51 L652.64,376.9 L653.11,375.36 L653.91,375.13 L654.34,374.63 L654.48,373.59 L655.46,372.52 L657.28,371.43 L658,370.37 L657.79,369.8 L657.78,369.08 L662.62,369.09 L667.66,369.1 L672.7,369.11 L677.74,369.12 L682.78,369.13 L687.82,369.14 L692.86,369.15 L697.95,369.08 Z M690.65,476.31 L690.41,476.55 L688.73,476.1 L687.71,475.68 L687.52,475.26 L690.34,476.03 L690.65,476.31 Z" transform="translate(-631 -368)"/>
</svg>
