<svg xmlns="http://www.w3.org/2000/svg" width="229" height="128" viewBox="0 0 229 128">
  <polygon fill="#CCCCCC" stroke="#FFFFFF" stroke-width=".5" points="397.59 96.29 397.63 102.59 397.66 108.87 397.68 115.12 397.71 121.35 397.71 121.43 397.71 121.52 397.7 121.6 397.7 121.68 397.55 121.68 397.4 121.68 397.25 121.68 397.1 121.68 392.94 121.68 388.79 121.68 384.63 121.68 380.47 121.68 376.32 121.68 372.16 121.68 368 121.68 363.85 121.68 359.69 121.68 355.53 121.68 351.38 121.68 347.22 121.68 343.06 121.68 338.91 121.68 334.75 121.68 330.59 121.68 326.44 121.68 322.28 121.68 318.12 121.68 313.97 121.68 309.81 121.68 305.65 121.68 301.5 121.68 297.34 121.68 293.19 121.68 289.03 121.68 284.87 121.68 280.72 121.68 276.56 121.68 272.4 121.68 268.24 121.68 264.09 121.68 264.08 125.03 264.08 128.38 264.08 131.71 264.08 135.04 262.83 134.35 262 133.54 261.31 132.61 260.02 130.04 259.29 129.09 258.65 128.51 257.99 128.48 257.17 128.81 256.56 129.41 256.35 130.48 255.74 131.72 255.78 132.77 256.06 133.3 255.96 133.59 255.58 133.83 252.55 133.44 249.94 133.96 248.14 133.56 244.68 133.75 241.7 133.41 240.68 133.59 240.02 134.14 239.19 135.56 238.97 135.81 238.64 135.86 233.8 135.09 232.51 135.07 231.16 135.99 230.73 136.65 230.62 137.5 230.32 137.75 229.9 137.71 228.82 137.15 227.69 136.22 227.13 135.54 227 133.98 226.1 132.23 225.94 130.63 225.36 129.3 224.46 127.96 223.58 127.08 222.68 126.78 221.05 126.98 220.7 126.83 218.93 125.07 218.39 124.28 218.23 123.58 218.82 121.87 218.65 120.93 218.19 119.76 217.58 118.78 216.55 117.95 215.62 116.11 213.91 113.54 213.43 111.54 212.79 109.88 212.6 108.22 211.96 107.2 212.02 105.92 211.91 105.56 211.71 105.4 210.57 104.68 209.25 103.38 208.58 103.09 208.31 103.07 208.15 103.41 208.04 104.01 205.95 106.15 204.17 107.14 203.3 108.13 202.52 108.62 202.11 108.67 201.51 108.36 199.66 106.9 198.12 106.24 197.97 105.93 198.06 104.69 198.76 103.26 198.04 100.66 198.25 99.76 198.82 99.12 200.48 98.16 200.64 97.7 200.27 95.23 199.35 94.29 199.09 93.77 199.37 91.75 198.96 90.43 199.69 89.31 199.74 87.36 200.33 85.36 200.95 82.36 200.82 81.07 201.6 79.68 201.86 78.28 201.9 77.29 201.77 76.69 201.51 76.46 200.94 76.46 198.32 77.01 197.48 76.94 196.75 76.66 196.33 76.19 196.2 75.06 195.61 74.31 195.3 74.19 194.12 74.64 193.87 74.62 193.73 74.4 193.25 73.45 191.34 71.57 190.42 69.41 188.56 67.53 186.79 64.93 183.38 60.85 182.57 60.02 179.98 58.61 177.94 56.57 175.88 55.1 175.67 54.84 175.65 54.69 175.77 54.56 176.36 54.17 176.5 53.41 175.72 51.88 176.09 50.36 175.57 48.26 175.28 47.56 173.81 45.61 172.85 43.74 171.34 42 169.3 39.16 169.31 32.15 169.31 25.11 169.31 18.04 169.31 10.95 172.81 10.95 180.89 10.95 188.98 10.95 197.06 10.95 205.15 10.95 206.98 10.95 213.24 10.95 221.32 10.95 229.41 10.95 237.5 10.95 245.58 10.95 253.67 10.95 261.75 10.95 269.84 10.95 277.92 10.95 284.03 10.95 286.01 10.95 294.1 10.95 302.18 10.95 310.27 10.95 318.36 10.95 326.44 10.95 334.53 10.95 342.61 10.95 350.7 10.95 358.79 10.95 366.87 10.95 374.96 10.95 383.05 10.95 391.13 10.95 397.16 10.95 397.2 16.41 397.23 21.87 397.25 27.32 397.28 32.74 397.3 38.14 397.33 43.53 397.36 48.89 397.38 54.23 397.41 59.56 397.44 64.86 397.46 70.14 397.49 75.41 397.52 80.66 397.54 85.89 397.57 91.1" transform="translate(-169 -10)"/>
</svg>
