<svg xmlns="http://www.w3.org/2000/svg" width="117" height="131" viewBox="0 0 117 131">
  <polygon fill="#CCCCCC" stroke="#FFFFFF" stroke-width=".5" points="416.76 334.13 415.97 334.15 415.94 340.74 415.91 347.31 415.89 353.85 415.86 360.37 415.83 366.87 415.8 373.34 415.78 379.8 415.75 386.23 415.72 392.64 415.69 399.02 415.66 405.39 415.63 411.74 415.61 418.06 415.58 424.37 415.55 430.65 415.52 436.92 411.26 436.92 407 436.92 402.74 436.93 398.47 436.93 394.21 436.93 389.95 436.93 385.68 436.94 381.42 436.94 377.16 436.94 372.9 436.94 368.63 436.94 364.37 436.94 360.11 436.95 355.84 436.95 351.58 436.95 347.32 436.95 347.2 436.96 349.14 441 349.14 441 351.43 442.13 351.28 442.09 347.11 442.06 342.94 442.04 338.77 442.01 334.6 441.99 330.44 441.96 326.27 441.94 322.1 441.91 317.93 441.89 317.92 444.38 317.9 446.88 317.89 449.37 317.88 451.85 311.18 451.87 304.47 451.88 302.08 451.89 302.08 444.02 302.08 436.14 302.08 428.24 302.08 420.3 302.09 412.32 302.09 404.32 302.09 396.28 302.09 388.21 302.09 380.11 302.09 371.97 302.09 363.79 302.09 355.58 302.1 347.33 302.1 339.04 302.1 330.72 302.1 322.36 309.26 322.36 316.43 322.36 323.6 322.36 330.76 322.36 337.93 322.36 345.09 322.36 352.26 322.36 359.43 322.36 366.59 322.36 373.76 322.36 380.92 322.36 388.09 322.36 395.25 322.36 402.42 322.36 409.59 322.36 416.75 322.36 416.76 325.31 416.76 328.26 416.76 331.2" transform="translate(-301 -322)"/>
</svg>
