<svg xmlns="http://www.w3.org/2000/svg" width="83" height="90" viewBox="0 0 83 90">
  <polygon fill="#CCCCCC" stroke="#FFFFFF" stroke-width=".5" points="843.11 233.93 840.86 235.02 840.45 236.02 841.13 237.3 841.49 238.95 841.54 240.96 840.28 245.39 837.71 252.2 836.41 256.47 836.37 258.22 834.68 260.5 831.35 263.32 829.01 265.02 827.67 265.6 826.54 265.55 825.65 264.87 824.64 265.34 823.52 266.94 822.49 267.76 821.52 267.82 820.7 268.85 820.02 270.87 819.37 272.04 818.77 272.35 818.72 273.37 819.24 275.1 819.19 275.73 818.91 275.75 818.64 275.65 817.99 276.04 817.25 277.01 816.98 277.02 816.78 276.86 816.57 275.6 815.97 274.7 815 274.17 813.65 275.34 811.93 278.21 811.16 280.06 811.47 281.35 811.61 283.23 811.18 283.99 810.24 284.28 809.51 285.29 808.99 287.04 807.68 288.14 805.59 288.6 803.4 287.8 803.24 287.74 800.64 285.56 799.01 283.47 798.32 281.47 796.06 281.38 792.2 283.19 789.29 283.47 787.32 282.21 785.85 281.72 784.37 282.13 782.98 282.94 781.79 282.46 780.35 280.96 778.07 279.92 774.95 279.33 772.78 277.71 771.59 275.06 770.3 273.23 768.94 272.23 767.44 271.94 765.82 272.35 764.57 272.14 763.69 271.31 762.57 271.4 761.51 272.2 761.54 264.11 761.6 256.13 761.67 248.12 761.73 240.07 761.8 231.98 761.86 223.85 761.93 215.68 761.99 207.46 768.31 207.22 774.63 206.98 780.94 206.74 787.25 206.5 787.44 206.35 787.41 206.43 787.66 206.87 789.38 207.15 790.55 207.67 791.46 208.46 794.75 210.01 795.75 210.97 796.75 211.49 797.75 211.59 798.43 211.29 798.8 210.59 799.27 210.54 799.84 211.15 801.69 211.81 801.75 212.02 796.61 213.17 795.54 213.7 796.82 214.07 798.12 213.98 799.43 213.43 800.93 213.46 802.25 213.72 802.67 213.5 802.84 213.39 805.08 214.9 805.91 215.12 806.78 214.95 807.69 214.38 809.66 213.64 812.72 212.73 815.66 212.36 818.48 212.53 820.27 212.28 821.9 211.33 825.51 208.22 829.65 205.72 836.47 202.6 843.08 200.16 843.08 202.28 843.08 204.94 843.08 207.59 843.08 210.24 843.08 212.89 843.08 215.53 843.08 218.17 843.08 220.81 843.08 223.43 843.08 226.06 843.08 228.68 843.08 231.3" transform="translate(-761 -199)"/>
</svg>
