<svg xmlns="http://www.w3.org/2000/svg" width="92" height="74" viewBox="0 0 92 74">
  <polygon fill="#CCCCCC" stroke="#FFFFFF" stroke-width=".5" points="880.18 394.77 879.92 394.85 874.92 398.24 873.43 399.72 869.3 405.45 868.24 409.1 867.4 407.57 867.6 406.41 867.62 405.47 866.58 407.49 867.57 410.43 866.68 411.55 863.95 413.65 862.46 413.99 860.78 414.58 860.25 416.65 857.98 418.54 856.65 419.38 854.22 418.87 854.97 420.7 854.08 422.08 852.54 423.14 850.63 423.83 849.53 423.74 848.6 424.11 847.86 424.99 846.07 425.81 844.21 425.35 842.1 425.07 840.92 425.56 842.9 426.38 843.96 427.55 843.74 429.14 843.21 429.75 841.97 430.58 841.42 430.46 841.08 429.71 840.68 428.15 840.1 428.48 840 429.21 839.5 429.47 837.73 426.99 837.82 428.88 838.44 430.33 839.04 431.07 839.64 431.5 839.79 432.18 838.58 433.82 837.95 434.18 836.85 434.45 836.22 435.46 836.41 436.32 832.57 434.54 831.43 432.93 831.47 430.86 830.73 428.5 828.48 424.54 826.84 423.42 825.76 420.71 824.7 416.05 823.02 413.06 820.73 411.75 819.19 410.2 818.41 408.43 817.6 407.27 816.75 406.73 816.3 405.81 816.23 404.51 814.91 402.8 811.07 399.61 810.16 397.67 808.35 395.66 803.85 391.57 803.85 391.57 799.5 383.62 799.5 383.61 798.95 381.99 798.02 381.33 796.52 381.09 795.06 380.3 792.91 378.29 792.9 378.27 789.31 375.77 790.05 373.53 792.83 370.6 793.76 369.05 793.88 369.03 794.23 369.02 797.25 368.04 800.28 367.06 800.91 367.12 802.67 366.11 806.22 364.95 807.58 364.19 808.27 364.41 811.28 364.54 814.29 364.67 817.29 364.81 820.3 364.94 823.31 365.07 826.32 365.2 829.32 365.33 832.33 365.47 832.91 365.7 833.1 366.04 833.02 367.01 833.13 367.55 835.24 366.44 836.23 367.72 837.91 369.92 837.98 371.2 838.08 373.01 840.76 373.1 843.44 373.19 846.12 373.28 848.8 373.37 851.48 373.46 854.16 373.55 856.84 373.64 859.52 373.74 862.08 376.36 864.64 378.98 867.2 381.59 869.77 384.2 872.33 386.81 874.89 389.42 877.45 392.02" transform="translate(-789 -363)"/>
</svg>
