<svg xmlns="http://www.w3.org/2000/svg" width="165" height="41" viewBox="0 0 165 41">
  <polygon fill="#CCCCCC" stroke="#FFFFFF" stroke-width=".5" points="783.4 331.69 787.7 331.71 796.9 331.76 803.42 331.79 808.77 331.82 811.95 331.84 815.92 331.86 816.82 331.37 818.8 331.45 821.49 331.56 820.63 333.36 820.57 334.58 820.08 336.37 820.06 337.55 818.66 337.62 817.85 337.92 816.76 338.7 814.05 343 813.11 343.38 811.56 342.27 809.43 342.74 808.04 343.54 805.95 345.63 805.14 346.31 804.53 346.54 804.08 346.51 803.86 346.17 803.68 345.13 803.43 344.76 802.79 344.78 801.75 345.17 800.69 345.87 799.61 347.09 798.19 346.99 797.92 347.29 797.57 348.69 797.02 349.73 796.24 350.52 793.78 351.12 790.67 353.27 786.37 355.55 782.35 356.11 780.67 356.57 779.53 357.15 777.02 359.49 775.91 362.46 774.66 363.02 772.69 363.04 772.14 363.3 771.65 364.43 770.94 369.33 764.78 369.26 758.62 369.19 752.46 369.11 746.3 369.04 743.26 369.01 740.22 368.97 737.18 368.94 734.13 368.9 731.09 368.87 728.05 368.83 725.01 368.8 721.96 368.76 718.92 368.73 715.88 368.69 712.84 368.66 709.8 368.62 706.75 368.59 703.71 368.55 700.67 368.52 697.62 368.48 697.38 368.5 697.62 368.78 697.95 369.08 692.8 369.08 687.76 369.07 682.73 369.07 677.69 369.06 672.65 369.05 667.61 369.05 662.57 369.04 657.74 369.03 657.74 368.96 658.45 367.99 660.61 366.42 661.54 364.36 661.26 361.8 662.05 359.49 663.93 357.42 664.7 355.37 664.38 353.34 665.31 351.68 667.49 350.4 667.79 349.88 667.7 349.48 667.67 349.03 667.69 348.85 667.79 348.46 668.27 348.23 668.93 348.04 669.21 347.71 669.2 347.18 668.82 346.26 668.91 345.83 669.04 345.16 670.1 343.43 670.24 341.94 669.48 340.71 669.87 340.07 670.36 339.9 670.99 339.8 671.2 339.5 671.2 339.14 670.67 338.34 670.81 337.64 671.74 337.14 672.02 335.88 671.7 334.14 673.03 334.09 673.07 334.2 673.33 334.42 673.7 334.22 673.73 334.16 677.5 334.16 680.77 334.16 684.05 334.16 687.32 334.17 690.6 334.17 693.87 334.17 697.15 334.17 700.12 334.17 700.17 334.14 700.16 332.04 699.41 329.62 699.51 329.63 702.06 329.88 703.73 330.04 704.29 330.78 710.6 330.65 716.91 330.53 723.23 330.41 729.54 330.29 736.12 330.51 742.7 330.74 749.29 330.97 755.87 331.2 762.46 331.43 769.04 331.66 775.62 331.89 782.21 332.12 782.36 332.07 782.51 332.01 782.65 331.96 782.8 331.91 782.95 331.85 783.1 331.8 783.25 331.75" transform="translate(-657 -329)"/>
</svg>
