<svg xmlns="http://www.w3.org/2000/svg" width="250" height="236" viewBox="0 0 250 236">
  <path fill="#CCCCCC" stroke="#FFFFFF" stroke-width=".5" d="M578.27,399.95 L579.26,401.06 L580.05,401.38 L580.28,401.82 L580.66,401.94 L581.14,401.85 L581.86,401.34 L582.93,401.48 L583.82,401.3 L585.58,401.57 L586.56,402.09 L586.59,405.16 L586.62,408.23 L586.65,411.29 L586.68,414.35 L586.67,417.2 L586.67,420.04 L586.67,422.88 L586.66,425.72 L586.66,428.55 L586.65,431.38 L586.65,434.2 L586.64,437.02 L589.26,439.74 L590.39,441.61 L590.75,442.56 L590.87,445.81 L591.13,446.59 L592.44,447.81 L592.47,448.61 L593.84,450.94 L593.8,452.04 L595.11,454.53 L595.85,455.18 L595.97,456.86 L596.37,458.14 L595.76,459.05 L596.01,460.31 L595.64,461.48 L595.44,463.04 L594.58,465.44 L593.81,466.62 L592.77,468.87 L592.86,470.73 L592.26,472.76 L592.19,473.54 L592.75,474.89 L592.95,478.61 L592.64,479.39 L591.37,481.57 L590.47,481.51 L588.48,485.1 L589.62,487.11 L589.54,487.83 L585.57,488.24 L576.57,492.27 L573.06,494.44 L573.24,493.71 L577.49,490.89 L575.99,490.46 L573.58,491.16 L572.71,490.89 L573.73,488.56 L573.4,486.5 L571.69,486.44 L570.6,488.09 L569.84,488.02 L568.85,487.32 L568.08,487.54 L568.65,491.26 L569.73,492.79 L570.63,494.74 L568.17,497.14 L565.88,499.12 L565.63,501.03 L563.33,503.52 L561.17,504.93 L556.08,508.24 L554.63,508.95 L552.34,510.48 L549.17,511.63 L546.13,513.46 L545.11,513.74 L547.05,512.2 L549.35,510.67 L547.38,510.88 L544.34,510.17 L542.48,510.13 L542.47,510.69 L541.05,511.48 L539.58,510.32 L538.94,509.54 L538.64,508.87 L538.02,508.71 L537.42,509.02 L539.61,513.75 L540.54,513.95 L541.57,514.42 L540.29,515.52 L538.91,516.35 L536.74,516.91 L534.9,515.19 L534.5,517.35 L534.27,519.51 L533.65,520.06 L532.66,520.85 L532.12,520.26 L531.87,519.43 L531.24,520.17 L530.31,520.73 L528.78,520.84 L527.63,521.14 L527.66,522.03 L527.92,522.93 L529.95,522.22 L529.21,524.52 L527.35,526.79 L525.83,527.33 L523.51,527 L522.94,527.23 L522.43,527.7 L525.14,531.25 L523.4,536.59 L522.29,538.53 L521.52,538.78 L520.68,538.84 L517.68,537.12 L516.04,535.79 L517.48,539.41 L521.41,540.47 L521.61,541.84 L521.59,543.01 L520.82,544.38 L520.1,546.2 L520.64,547.46 L521.26,550.59 L521.79,552.02 L522.37,556.36 L522.99,558.24 L526.56,565.15 L527.77,565.2 L527.96,565.95 L527.85,567.38 L525.28,567.8 L524.2,568.44 L523.99,568.99 L523.83,569.29 L523.5,569.27 L522.27,568.87 L519.48,566.91 L515.42,565.69 L510.08,565.22 L506.44,564.24 L504.48,562.75 L502.44,561.86 L500.31,561.58 L498.54,560.77 L497.14,559.42 L495.09,558.56 L492.4,558.19 L490.65,557.18 L489.43,554.71 L489.42,554.67 L488.33,550.53 L486.96,547.93 L484.28,544.72 L484.03,544.3 L484.01,543.77 L484.34,541.9 L484.06,540.55 L483.21,539.45 L483.02,538.29 L483.48,537.06 L483.51,535.59 L483.11,533.87 L481.4,532.01 L478.39,530 L475.82,527.07 L473.7,523.21 L471.6,520.54 L469.53,519.05 L468.11,517.23 L467.35,515.08 L467.12,513.83 L467.43,513.48 L466.16,511.08 L463.3,506.62 L461.66,503.36 L461.24,501.29 L459.42,498.83 L456.21,495.97 L454.46,494.11 L454.04,492.82 L454.03,492.82 L449.01,489.05 L447.55,486.69 L446.41,485.94 L445.1,486.02 L444.43,485.79 L444.4,485.26 L443.98,485.24 L443.17,485.72 L440.5,485.82 L435.97,485.53 L432.7,484.89 L430.69,483.89 L429.28,484.03 L428.47,485.3 L426.75,486.12 L424.12,486.48 L421.86,488.83 L419.97,493.17 L419.14,495.96 L419.37,497.2 L418.87,498.1 L417.64,498.66 L416.39,499.92 L415.12,501.87 L413.64,502.81 L411.95,502.75 L408.82,501.25 L404.25,498.31 L400.67,496.49 L398.08,495.79 L395.79,494.43 L393.8,492.4 L391.97,491.04 L390.29,490.36 L388.33,488.11 L386.09,484.27 L384.97,481.31 L384.97,478.17 L382.04,471.32 L380.49,468.35 L379.33,466.98 L377.07,465.34 L373.7,463.44 L369.18,459.63 L363.52,453.89 L359.51,450.43 L357.16,449.26 L355.12,447.18 L353.39,444.2 L351.7,442.3 L351.52,442.21 L349.23,441.08 L347.3,437.05 L347.41,437.04 L351.67,437.04 L355.93,437.04 L360.19,437.04 L364.45,437.04 L368.71,437.04 L372.97,437.04 L377.23,437.04 L381.49,437.04 L385.75,437.04 L390.01,437.04 L394.27,437.04 L398.53,437.04 L402.79,437.04 L407.05,437.04 L411.31,437.04 L415.57,437.04 L415.6,430.77 L415.63,424.49 L415.66,418.18 L415.69,411.86 L415.72,405.51 L415.75,399.14 L415.78,392.75 L415.81,386.34 L415.84,379.91 L415.87,373.46 L415.9,366.99 L415.93,360.49 L415.96,353.97 L415.99,347.43 L416.02,340.86 L416.05,334.27 L416.85,334.25 L420.4,334.25 L423.95,334.25 L427.5,334.25 L431.05,334.25 L434.6,334.25 L438.15,334.25 L441.7,334.25 L445.26,334.25 L448.81,334.25 L452.36,334.25 L455.91,334.25 L459.46,334.25 L463.01,334.25 L466.56,334.25 L470.11,334.25 L473.67,334.25 L473.67,337.06 L473.67,339.86 L473.67,342.66 L473.67,345.45 L473.67,348.24 L473.67,351.03 L473.67,353.81 L473.67,356.59 L473.67,359.36 L473.67,362.13 L473.67,364.9 L473.67,367.66 L473.67,370.42 L473.67,373.17 L473.67,375.92 L473.67,378.67 L474.78,378.91 L476.18,379.67 L479.62,382.59 L480.64,383.22 L482.46,382.85 L484.43,383.21 L484.95,383.15 L485.34,381.9 L485.52,381.65 L485.8,381.69 L487.51,382.81 L487.84,383.25 L488.84,384.85 L489.09,386.74 L489.64,387.02 L490.69,387.24 L493.22,387.35 L496.44,388.58 L497.74,388.77 L500.05,388.44 L502.22,390.09 L502.98,390.33 L503.61,390.1 L504.83,388.88 L507.52,389.02 L509.71,388.8 L509.88,390.19 L510.26,391.19 L512.07,392.25 L512.51,392.76 L512.6,394.45 L513.07,394.88 L513.8,395.05 L514.57,394.94 L515.46,394.41 L517.42,392.75 L518.02,392.34 L518.39,392.3 L518.75,392.39 L519.05,392.76 L519.71,394.03 L521.41,394.72 L522.39,395.79 L522.99,395.95 L523.65,395.75 L524.7,395.09 L525.52,395.12 L526.47,394.45 L526.85,394.6 L527.01,395.07 L526.73,396.48 L526.89,397.01 L527.27,397.64 L527.79,398.08 L528.28,398.15 L528.66,397.8 L529.37,396.03 L529.32,395.39 L530.12,395.17 L530.49,394.83 L530.95,393.55 L531.78,393.2 L532.22,393.27 L532.62,393.63 L533.43,394.8 L535.35,395.46 L535.84,395.49 L536.34,395.24 L537.2,394.27 L537.64,394.15 L538,394.28 L538.21,394.42 L538.28,395.56 L540.26,396.85 L541.7,397.24 L543.11,398.55 L543.52,398.7 L544.21,397.64 L545.56,397.27 L546.85,396.18 L550.6,394.8 L552.09,395.25 L553.59,395.22 L553.98,394.61 L556.64,393.73 L557.18,393.39 L557.92,393.83 L558.18,394.47 L558.53,394.73 L560.36,395.04 L561.37,395.01 L563.25,394 L563.97,392.96 L564.39,392.9 L565.71,393.41 L569.19,395.53 L570.96,397.24 L572.93,398.07 L574,398.8 L578.27,399.95 Z M567.73,499.55 L566.78,499.76 L570.91,496.44 L571.78,495.33 L572.89,495.38 L571.05,497.25 L567.73,499.55 Z M535.02,520.9 L534.32,520.99 L535.18,519.84 L536.58,519.26 L539.66,517.04 L540.91,516.89 L541.57,516.12 L541.85,516.01 L541.67,516.95 L539.19,518.28 L535.02,520.9 Z M530.28,526.27 L529.87,526.32 L530.79,524.57 L530.96,523.87 L532.47,521.65 L533.27,521.32 L533.6,522.26 L532.05,523.82 L530.28,526.27 Z M523.85,539.07 L523.26,540.29 L523.42,538.47 L524.96,534.33 L528.09,528.88 L529.41,527.97 L525.8,533.95 L523.85,539.07 Z M527.32,563.16 L527.06,564.14 L525.49,559.58 L522.93,549.23 L522.83,543.31 L523.23,541.27 L523.89,549.63 L526.72,560.21 L527.32,563.16 Z" transform="translate(-347 -334)"/>
</svg>
