<svg xmlns="http://www.w3.org/2000/svg" width="161" height="71" viewBox="0 0 161 71">
  <path fill="#CCCCCC" stroke="#FFFFFF" stroke-width=".5" d="M896.06,266 L897.16,266.9 L899.71,267.97 L900.76,269.06 L900.3,270.17 L900.23,270.97 L900.71,271.69 L904.12,273.14 L906.22,275.19 L907.52,275.81 L907.9,275.99 L908.83,276.49 L909.26,277.12 L908.97,279.87 L908.09,281.23 L906.71,282.27 L904.9,284.12 L904.46,285.83 L903.89,289.03 L904.66,290.11 L905.44,290.39 L907.75,289.67 L908.95,290 L911.61,293.84 L916.57,295.36 L918.38,296.31 L919.86,298.31 L922.08,299.46 L923.8,301.13 L923.85,302.22 L923.25,303.5 L923.01,305.24 L922.28,306.34 L920.52,306.47 L919.46,306.19 L913.77,300.08 L913.09,299.52 L910.98,296.31 L908.5,294.59 L907.73,294.63 L911.26,297.81 L912.7,300.03 L915.24,303.14 L917.05,304.46 L918.39,306.51 L919.63,307.47 L923.02,308.84 L921.84,309.82 L923.72,310.66 L923.99,312.19 L923.82,313.94 L921.21,313.25 L921.12,314.54 L921.36,315.3 L920.2,315.93 L918.6,315.08 L914.44,310.42 L914.48,311.04 L914.82,311.76 L917.23,314.76 L919.38,316.56 L921.21,317.37 L922.62,318.87 L923.12,319.78 L923.45,321.16 L922.41,322.1 L921.22,322.62 L920.06,321.69 L919.21,320.71 L917.4,319.04 L916.86,317.17 L915.48,317.27 L909.73,314.9 L905.1,314.62 L905.55,315.1 L906.13,315.42 L909.82,316.01 L911.28,317.1 L914.31,318.07 L916.09,318.34 L916.81,321.31 L919.26,323.35 L919.58,324.86 L921.26,325.03 L924.2,323.55 L926.1,324.07 L928.84,324.5 L929.47,325.7 L929.94,327.97 L930.91,330.53 L931.54,333.03 L930.94,333.03 L929.47,333.01 L924.76,332.97 L917.9,332.91 L911.04,332.84 L904.18,332.77 L897.32,332.71 L890.46,332.64 L883.6,332.58 L876.74,332.51 L869.88,332.44 L863.02,332.38 L856.16,332.31 L849.3,332.25 L842.44,332.18 L835.58,332.11 L828.72,332.05 L821.86,331.98 L821.53,331.62 L818.84,331.51 L816.86,331.43 L815.97,331.91 L811.99,331.89 L808.82,331.87 L803.47,331.84 L796.95,331.81 L787.75,331.76 L783.45,331.74 L785.37,330.62 L788.2,329.95 L793.26,328.03 L795.28,326.07 L798.11,324.63 L799.3,322.91 L801.2,321.28 L801.9,319.43 L802.15,319.15 L805.28,317.47 L808.57,315.38 L815.74,309.61 L815.88,310.37 L815.62,311.19 L816.23,312.15 L816.73,313.66 L817.44,314.6 L818.32,315.34 L819.78,316 L821.51,317.16 L822.87,317.49 L823.33,317.45 L824.84,316.33 L826.09,315.73 L827.41,314.51 L829.74,316.18 L830.67,316.18 L832.96,315.46 L835.12,315.27 L835.66,315.05 L836.46,314.36 L836.48,312.96 L836.66,312.6 L837.02,312.43 L837.45,312.4 L838.42,312.91 L839.37,312.92 L843.4,311.3 L843.7,311.42 L844.21,312.16 L845.98,311.21 L847.03,310.33 L847.49,308.99 L848.37,307.68 L848.19,307.1 L847.62,306.34 L848.37,304.57 L849.47,302.82 L853.57,297.51 L854.88,294.28 L856.58,292.2 L857.14,290.54 L858.43,288.9 L859.31,285.52 L859.86,284.84 L860.65,284.73 L861.46,285.16 L862.04,285.79 L862.42,286.81 L864.49,287.7 L866.23,287.81 L867.44,287.17 L868.15,285.98 L869.11,283.75 L870.02,282.43 L870.61,280.76 L871.22,279.61 L872.15,278.88 L874.49,278.92 L875.69,277.9 L876.61,276.73 L877.17,276.35 L877.83,276.41 L879.94,274.53 L882.71,270.59 L883.31,268.11 L884.03,266.32 L884.31,264.48 L884.86,263.48 L887.31,265.47 L888.72,266.62 L891.94,269.23 L894.08,270.96 L894.92,268.98 L896.06,266 Z M942.99,297.68 L943.5,297.61 L941.47,301.25 L940.61,301.64 L942.99,297.68 Z M935.27,299.68 L936.01,298.6 L938.87,298.22 L940.64,297.98 L936.46,307.4 L936.64,309.13 L935.8,309.69 L934.52,310.14 L933.23,311.17 L932.37,312.31 L931.58,315.36 L930.06,318.79 L929.11,317.36 L928.87,316.13 L929.29,312.93 L930.94,307.68 L932.76,304.4 L934.15,302.85 L935.27,299.68 Z" transform="translate(-783 -263)"/>
</svg>
