<svg xmlns="http://www.w3.org/2000/svg" width="135" height="105" viewBox="0 0 135 105">
  <polygon fill="#CCCCCC" stroke="#FFFFFF" stroke-width=".5" points="397.26 174.23 397.27 180.67 397.29 187.09 397.31 193.49 397.33 199.86 397.34 206.21 397.36 212.53 397.38 218.82 397.39 225.1 391.44 225.1 385.48 225.1 379.53 225.1 373.57 225.1 367.62 225.1 361.66 225.1 355.7 225.1 349.75 225.1 343.79 225.1 337.84 225.1 331.88 225.1 325.93 225.1 319.97 225.1 314.01 225.1 308.06 225.1 302.1 225.1 297.35 225.1 292.6 225.1 287.85 225.1 283.1 225.1 278.36 225.1 273.61 225.1 268.85 225.1 264.11 225.1 264.11 221.96 264.1 218.83 264.1 215.68 264.1 212.53 264.1 209.37 264.1 206.21 264.1 203.04 264.1 199.87 264.1 195.89 264.1 191.91 264.1 187.91 264.09 183.91 264.09 179.9 264.09 175.87 264.09 171.84 264.09 167.79 264.09 163.74 264.08 159.67 264.08 155.59 264.08 151.5 264.08 147.41 264.08 143.3 264.08 139.18 264.08 135.04 264.08 131.71 264.08 128.38 264.08 125.03 264.09 121.68 268.24 121.68 272.4 121.68 276.56 121.68 280.72 121.68 284.87 121.68 289.03 121.68 293.19 121.68 297.34 121.68 301.5 121.68 305.65 121.68 309.81 121.68 313.97 121.68 318.12 121.68 322.28 121.68 326.44 121.68 330.59 121.68 334.75 121.68 338.91 121.68 343.06 121.68 347.22 121.68 351.38 121.68 355.53 121.68 359.69 121.68 363.85 121.68 368 121.68 372.16 121.68 376.32 121.68 380.47 121.68 384.63 121.68 388.79 121.68 392.94 121.68 397.1 121.68 397.12 128.35 397.14 134.98 397.16 141.59 397.18 148.18 397.2 154.73 397.22 161.25 397.24 167.75" transform="translate(-263 -121)"/>
</svg>
