<svg xmlns="http://www.w3.org/2000/svg" width="95" height="82" viewBox="0 0 95 82">
  <polygon fill="#CCCCCC" stroke="#FFFFFF" stroke-width=".5" points="668.91 345.83 668.82 346.26 669.2 347.18 669.21 347.71 668.93 348.04 668.27 348.23 667.79 348.46 667.69 348.85 667.67 349.03 667.7 349.48 667.79 349.88 667.49 350.4 665.31 351.68 664.38 353.34 664.7 355.37 663.93 357.42 662.05 359.49 661.26 361.8 661.54 364.36 660.61 366.42 658.45 367.99 657.74 368.96 657.74 369.03 657.74 369.75 657.96 370.32 657.24 371.38 655.42 372.48 654.44 373.54 654.3 374.58 653.88 375.09 653.08 375.31 652.62 376.85 652.23 380.46 651.26 382.52 649.69 383.03 648.85 383.83 648.74 384.94 647.81 386.21 646.05 387.66 645.48 389.04 646.07 390.34 645.96 390.86 645.42 391.29 643.52 391.9 643.2 392.21 643.01 392.55 643.39 393.21 643.62 394.21 643.34 395.89 642.88 396.59 642.44 397.26 640.85 398.43 640.41 399.34 641.11 399.98 641.07 400.67 640.27 401.43 640.5 402.25 640.68 402.81 641.42 403.31 641.67 404.71 641.15 406.5 641.25 407.97 642.12 409.18 642.32 409.69 641.44 413.69 641.5 414.25 637.78 414.26 634.37 414.27 630.96 414.27 627.55 414.28 624.15 414.28 620.74 414.29 617.33 414.29 613.92 414.29 610.52 414.3 607.11 414.31 603.7 414.31 600.29 414.31 596.89 414.32 593.48 414.32 590.07 414.33 586.67 414.33 586.64 411.28 586.61 408.22 586.58 405.15 586.55 402.09 585.58 401.57 583.82 401.3 582.93 401.48 581.86 401.34 581.14 401.84 580.67 401.94 580.28 401.82 580.05 401.38 579.26 401.06 578.27 399.95 578.32 397.49 578.37 395.02 578.43 392.55 578.48 390.07 578.53 387.59 578.59 385.11 578.64 382.63 578.69 380.14 578.75 377.65 578.8 375.15 578.85 372.66 578.91 370.15 578.96 367.65 579.02 365.14 579.07 362.63 579.12 360.11 578.7 356.89 578.27 353.65 577.85 350.42 577.42 347.17 577 343.92 576.57 340.67 576.15 337.41 575.72 334.14 581 334.14 586.29 334.14 591.57 334.14 596.85 334.14 602.13 334.14 607.41 334.14 612.69 334.14 617.98 334.14 623.26 334.14 628.54 334.14 633.82 334.14 639.1 334.14 644.39 334.14 649.67 334.14 654.95 334.14 660.23 334.14 661.07 335.98 661.9 337.17 662.03 338.05 661.87 338.93 660.48 340.82 659.21 341.7 658.52 342.65 657.56 343.55 656.08 346.04 659.2 345.99 662.31 345.93 665.43 345.88" transform="translate(-575 -333)"/>
</svg>
