<svg xmlns="http://www.w3.org/2000/svg" width="196" height="227" viewBox="0 0 196 227">
  <path fill="#CCCCCC" stroke="#FFFFFF" stroke-width=".5" d="M94.36,199.88 L94.36,204.64 L94.36,209.39 L94.36,214.12 L94.36,218.84 L94.36,223.55 L94.36,228.24 L94.36,232.92 L94.36,237.59 L94.36,242.24 L94.36,246.88 L94.36,251.51 L94.36,256.12 L94.36,260.72 L94.36,265.31 L94.36,269.88 L94.36,274.44 L98.8,278.41 L103.24,282.37 L107.68,286.32 L112.12,290.26 L116.56,294.19 L121,298.12 L125.44,302.03 L129.88,305.94 L133.36,309.23 L136.84,312.51 L140.32,315.78 L143.8,319.05 L147.28,322.31 L150.76,325.57 L154.24,328.82 L157.72,332.06 L162.53,336.72 L167.35,341.36 L172.17,345.99 L176.99,350.61 L181.81,355.22 L186.63,359.82 L191.45,364.4 L196.6,369.28 L196.59,371.21 L197.6,373.81 L200.62,378.51 L200.98,379.64 L201.02,379.66 L201.13,380.84 L202.33,382.11 L205.16,383.89 L205.8,384.76 L205.8,384.83 L205.79,385.46 L205.07,386.22 L201.93,388.76 L200.24,390.83 L198.52,394.18 L198.79,396.89 L198.71,399.13 L198.29,400.9 L197.64,402.53 L196.76,404.02 L195.84,404.91 L194.88,405.2 L194.55,407.17 L194.83,410.81 L195.9,413.02 L197.75,413.81 L198.88,415.01 L199.29,416.62 L199.13,418.2 L198.39,419.76 L197.14,420.61 L194.51,420.84 L194.44,421.04 L192.27,421.28 L186.84,421.76 L181.41,422.24 L175.98,422.72 L170.55,423.2 L165.12,423.68 L159.69,424.16 L154.26,424.64 L148.83,425.12 L148.79,424.98 L148.66,422.53 L147.78,421.66 L146.65,422.19 L146.14,419 L146.42,417.49 L146.28,416.02 L145.22,412.39 L142.4,407.98 L136.31,402.49 L133.21,400.65 L130.77,398.32 L129.23,397.67 L127.29,397.49 L126.73,398.54 L124.53,397.82 L124.86,395.22 L122.71,391.6 L120.95,391.2 L116.53,391.44 L110.62,389.45 L108.87,388.26 L108.27,386.13 L105.5,384.28 L101.85,382.46 L99.82,382.88 L97.16,382.6 L93.37,381.29 L91.16,381.13 L86.86,381.52 L85.25,381.24 L83.76,379.59 L82.15,378.76 L82.49,376.72 L82.28,374.87 L82.52,373.43 L81.8,370.27 L82.36,367.34 L81.88,366.28 L80.97,365.47 L78.12,364.27 L77.6,362.76 L78.07,360.67 L77.32,359.29 L74.98,358 L72.8,355.07 L70.03,353.46 L68.89,350.77 L67.19,349.1 L66.6,347.62 L62.82,342.33 L58.78,338.19 L58.16,335.8 L58,332.53 L59.58,330.53 L60.44,328.77 L60.35,327.15 L60.11,325.96 L58.72,323.89 L53.34,322.66 L48.97,317.53 L48.71,313.6 L46.99,309.57 L46.97,306.94 L46.71,304.09 L48.01,303.47 L49.18,303.7 L49.06,304.84 L49.45,306.87 L50.82,308.4 L52.13,309.07 L53.32,310.55 L54.21,311 L55.13,311.11 L54.64,310.16 L54.12,309.55 L53.48,307.58 L52.26,305.06 L50.86,303.67 L50.15,301.13 L49.54,300.54 L49.16,299.6 L50.51,298.48 L52.35,297.68 L54.82,297.47 L61.84,297.84 L63.33,297.19 L64.56,297.4 L65.46,297.32 L63.56,296.65 L62.49,296.87 L61.23,296.73 L58.72,296.86 L57.71,296.58 L56.59,295.78 L55.86,295.7 L53.54,297.09 L52.51,296.92 L50.07,295.4 L49,295.19 L47.28,296.05 L47.07,299.77 L47.6,302.53 L46.57,302.81 L45.38,301.67 L43.55,300.99 L42.04,299.95 L39.91,298.02 L38.79,297.31 L37.52,298.91 L37.47,298.17 L38.1,296.31 L37.92,293.18 L39.83,295.68 L39.24,293.92 L37.75,291.98 L36.62,291.31 L35.2,287.84 L32,285.75 L29.44,282.37 L24.2,276.76 L23.85,271.81 L21.94,265.53 L22.75,261.95 L22.64,259.41 L21.7,255.56 L20.72,253.46 L16.47,247.7 L12.38,243.81 L11.76,240.86 L11.47,237.88 L12.36,235.22 L13.13,232.42 L13.69,231.68 L13.91,231.99 L13.75,232.59 L14.33,232.78 L14.55,231.54 L14.89,230.9 L14.28,230.82 L14.34,230.43 L14.71,229.65 L15.98,225.96 L15.85,221.3 L17.21,215.56 L17.15,213.66 L16.28,209.57 L15.42,207.11 L13.88,205.37 L14.56,202.82 L14.5,200.38 L14.18,199.97 L19.35,199.98 L24.35,199.98 L29.35,199.98 L34.35,199.98 L39.35,199.98 L44.35,199.98 L49.35,199.98 L54.35,199.98 L59.35,199.98 L64.35,199.98 L69.35,199.98 L74.35,199.98 L79.35,199.98 L84.35,199.98 L89.35,199.98 L94.36,199.98 L94.36,199.88 Z M96.6,390.15 L100.46,391.32 L102.54,390.76 L102.92,391.32 L102.68,391.81 L97.99,392.69 L96.55,392.07 L96.42,391.22 L95.93,390.41 L96.6,390.15 Z M88.56,391.4 L87.55,391.46 L86,391.22 L86.54,390.69 L87.4,390.3 L87.67,390.59 L88.56,391.4 Z M93.55,393.81 L92.22,394.13 L91.21,393.83 L89.6,391.65 L93.02,391.36 L94.49,392.31 L94.69,392.58 L93.55,393.81 Z M125.7,405.9 L126.66,407.56 L125.28,407.36 L123.84,407.45 L123.4,406.55 L122.97,405.29 L122.68,404.97 L121.69,404.86 L121.62,404.74 L121.51,404.13 L121.79,403.84 L124.88,405.24 L125.7,405.9 Z M105.03,409.71 L104.19,409.75 L103.03,409.54 L102.43,408.33 L103.38,408.25 L104.26,408.42 L104.96,409.37 L105.03,409.71 Z M125.66,418.48 L124.56,418.68 L123.33,418.22 L122.27,416.05 L121.11,414.35 L121.74,413.87 L122.68,415.51 L125.04,417.99 L125.66,418.48 Z" transform="translate(-11 -199)"/>
</svg>
