<svg xmlns="http://www.w3.org/2000/svg" width="135" height="99" viewBox="0 0 135 99">
  <polygon fill="#CCCCCC" stroke="#FFFFFF" stroke-width=".5" points="435.27 249.93 435.28 254.55 435.3 259.15 435.31 263.75 435.32 268.33 435.34 272.9 435.35 277.45 435.37 281.99 435.38 286.52 435.39 291.04 435.41 295.55 435.42 300.05 435.44 304.53 435.45 309.01 435.46 313.47 435.48 317.92 435.49 322.36 430.81 322.36 426.12 322.36 421.44 322.36 416.75 322.36 409.59 322.36 402.42 322.36 395.25 322.36 388.09 322.36 380.92 322.36 373.76 322.36 366.59 322.36 359.43 322.36 352.26 322.36 345.09 322.36 337.93 322.36 330.76 322.36 323.6 322.36 316.43 322.36 309.26 322.36 302.1 322.36 302.1 316.44 302.1 310.5 302.1 304.53 302.1 298.55 302.1 292.55 302.1 286.53 302.1 280.49 302.1 274.42 302.1 268.33 302.1 262.22 302.1 256.09 302.1 249.94 302.1 243.76 302.1 237.56 302.1 231.34 302.1 225.1 308.06 225.1 314.01 225.1 319.97 225.1 325.93 225.1 331.88 225.1 337.84 225.1 343.79 225.1 349.75 225.1 355.7 225.1 361.66 225.1 367.62 225.1 373.57 225.1 379.53 225.1 385.48 225.1 391.44 225.1 397.39 225.1 402.13 225.1 406.86 225.1 411.59 225.1 416.33 225.1 421.06 225.1 425.79 225.1 430.53 225.1 435.26 225.1 435.26 228.23 435.26 231.34 435.26 234.46 435.27 237.56 435.27 240.66 435.27 243.76 435.27 246.85" transform="translate(-301 -224)"/>
</svg>
