<svg xmlns="http://www.w3.org/2000/svg" width="38" height="28" viewBox="0 0 38 28">
  <polygon fill="#CCCCCC" stroke="#FFFFFF" stroke-width=".5" points="1008.44 199.59 1008.45 200.95 1008.47 202.86 1008.48 204.24 1008.49 206.15 1008.51 208.32 1008.53 210.31 1008.54 212.05 1008.47 213.08 1008.37 214.65 1007.89 215.25 1007.66 216.7 1005.99 216.56 1003.27 216.93 999.64 217.8 997.63 217.28 995.58 218.2 988.6 218.45 987.13 217.96 985.25 219.69 982.25 220.71 974.65 224.57 973.74 225.32 972.77 223.75 971.99 222.5 973.53 221.52 974.71 220.78 975.81 220.08 976.52 219.63 975.95 218.66 975.37 217.69 975.52 215.3 975.68 212.91 975.83 210.51 975.98 208.11 976.13 205.71 976.28 203.3 976.44 200.89 976.59 198.48 978.18 198.54 979.78 198.61 981.37 198.68 982.97 198.75 984.56 198.82 986.16 198.89 987.76 198.96 989.35 199.02 989.37 199.69 990.19 199.6 990.3 199.02 992.57 199.06 994.83 199.1 997.1 199.13 999.36 199.17 1001.63 199.21 1003.9 199.24 1006.16 199.28 1008.43 199.31" transform="translate(-971 -198)"/>
</svg>
