<svg xmlns="http://www.w3.org/2000/svg" width="131" height="84" viewBox="0 0 131 84">
  <path fill="#CCCCCC" stroke="#FFFFFF" stroke-width=".5" d="M353.08,589.61 L350.99,591.04 L349.77,590.42 L347.46,590.19 L346.57,589.11 L344.15,588.14 L343.17,586.81 L344.66,584.3 L348.17,582.18 L353.58,582.27 L354.71,583.95 L354.81,585.2 L354.11,586.6 L353.79,588.57 L353.08,589.61 Z M333.85,591.93 L333.37,593.06 L332.55,592.89 L332.34,591.88 L332.88,590.5 L334.24,589.31 L335.75,587.49 L336.99,587.76 L336.32,588.95 L336.24,590.24 L334.5,590.97 L333.85,591.93 Z M390.54,601.73 L391.36,601.88 L392.41,601.71 L392.78,603.74 L394,604.86 L394.45,605.53 L393.13,606.24 L390.56,606.52 L389.36,605.96 L388.11,604.7 L386.76,605.05 L386.52,604.03 L386.28,603.74 L385.36,604.01 L386.22,605.32 L383.88,605.42 L383.14,605.26 L382.49,603.77 L380.08,600.92 L380.09,599.81 L379.27,598.48 L382.84,598.1 L385.29,595.77 L386.67,595.53 L389.31,599.3 L389.24,600.36 L389.83,601.39 L390.54,601.73 Z M404.49,607.85 L409.52,608.55 L410.71,608.25 L411.54,608.82 L415.71,609.17 L416.43,609.38 L415.58,610.69 L412.91,611.89 L409.08,610.84 L402.66,610.46 L402.92,609.45 L403.53,608.73 L403.62,607.48 L404.49,607.85 Z M421.79,615.03 L422.41,615.48 L424.94,614.8 L426.77,614.55 L429.85,616.22 L430.92,617.36 L432.94,618.58 L433.63,619.47 L433.07,620.54 L430.84,622.31 L427.8,622.72 L426.01,623.47 L423.66,623.31 L422.96,622.99 L422.7,620.76 L421.96,618.35 L420.44,618.63 L418.73,617.82 L416.96,615.81 L416.77,614.6 L417.74,612.69 L419.44,612.44 L420.7,613.5 L421.79,615.03 Z M413.15,619.08 L411.74,619.8 L410.21,619.47 L409.85,617.74 L408.37,615.54 L410.96,615.1 L412.42,615.74 L413.19,616.43 L414.12,617.61 L413.15,619.08 Z M443.35,663.4 L442.29,664.61 L440.98,664.52 L436.21,661.95 L435.63,660.57 L435.98,654.13 L434.19,648.9 L432.22,644.9 L433.66,642.85 L435.55,641.26 L437.66,638.25 L435.94,634.39 L436.38,632.06 L437.39,631.66 L442.38,634.5 L452.46,638.76 L455.15,641.75 L455.63,644.96 L457.46,645.37 L458.33,647.56 L460.98,649.48 L461.87,650.58 L460.77,652.35 L455.93,655.74 L449.83,657.22 L444.46,661.01 L443.35,663.4 Z" transform="translate(-332 -581)"/>
</svg>
