<svg xmlns="http://www.w3.org/2000/svg" width="64" height="99" viewBox="0 0 64 99">
  <polygon fill="#CCCCCC" stroke="#FFFFFF" stroke-width=".5" points="761.99 207.46 761.93 215.68 761.86 223.85 761.8 231.98 761.73 240.07 761.67 248.12 761.6 256.13 761.54 264.11 761.51 272.2 761.21 272.43 760.77 273.48 761.25 274.54 761.23 275.4 760.71 276.06 760.9 276.56 761.78 276.88 762.12 277.64 761.91 278.83 760 280.03 756.35 281.39 755.56 281.78 754.91 281.95 754.6 281.87 754.6 281.87 754.13 281.62 753.45 281.06 752.31 280.82 750.44 280.99 749.69 282.12 750.07 284.22 749.43 285.82 747.77 286.93 746.58 288.41 745.87 290.23 744.73 291.34 743.18 291.73 741.92 293.41 740.95 296.39 739.9 298.24 738.76 298.95 737.2 298.77 735.23 297.7 734.09 296.59 733.78 295.46 733.2 294.64 732.67 294.28 732.31 294.28 732.29 294.44 732.43 294.76 732.24 295.11 731.02 295.22 730.49 295.69 730.66 296.51 730.39 297.09 729.68 297.43 729.31 298.22 729.26 299.44 728.76 300.56 727.8 301.57 726.4 301.23 724.56 299.54 722.68 299.15 720.78 300.06 719.36 301.29 718.43 302.85 717.53 303.24 716.23 302.05 713.14 300.41 711.53 300.06 710.37 300.45 709.55 300.27 709.27 299.82 709.06 299.64 708.83 299.86 708.81 301.29 708.53 302.19 708 302.57 707.6 302.27 707.32 301.29 706.65 300.98 705.6 301.32 704.55 301.17 703.62 300.59 703.28 300.66 703.02 300.92 703.09 302.04 702.9 302.94 702.41 303.51 701.72 303.65 700.82 303.35 700.44 303.63 699.43 301.55 699.51 301.05 700.12 301.01 700.43 300.09 700.39 298.25 700.74 297.15 701.31 296.79 701.42 296.43 701.14 296.21 701.12 295.86 702.03 295.11 702.21 294.3 701.66 293.43 701.61 292.59 702.05 291.8 702.73 291.43 703.64 291.49 704.52 290.51 705.33 288.5 706.26 287.27 707.29 286.84 708.14 285.52 709.13 282.21 710.16 280.69 710.38 279.01 710.14 276.65 709.42 274.27 708.22 271.84 707.93 270.33 708.54 269.74 708.77 268.74 708.61 267.35 709.22 266.06 710.09 265.31 710.1 265.2 710.13 258.26 710.15 250.89 710.18 243.49 710.21 236.05 710.24 228.58 710.26 221.08 710.29 213.54 710.32 206.8 710.44 206.98 711.15 207.62 711.72 207.99 712.14 208.04 712.38 208.6 713.44 208.94 715.4 209.08 717.19 208.86 718.82 208.27 722.81 205.97 727.5 205.97 733.25 205.97 739 205.98 744.74 205.98 750.49 205.98 756.24 205.98 761.99 205.99" transform="translate(-699 -205)"/>
</svg>
