<svg xmlns="http://www.w3.org/2000/svg" width="124" height="81" viewBox="0 0 124 81">
  <polygon fill="#CCCCCC" stroke="#FFFFFF" stroke-width=".5" points="650.97 186.8 652.13 188.54 654.11 190.12 655.25 191.59 655.52 192.96 656.73 194.42 658.89 195.97 660.13 197.34 660.47 198.52 660.42 200.36 659.96 202.85 659.18 204.64 658.07 205.73 657.25 207.26 656.72 209.22 655.02 211.03 652.18 212.69 649.01 213.82 645.51 214.43 643.43 215.85 642.79 218.08 643.08 219.96 644.32 221.46 645.03 223.05 645.22 224.73 644.34 227.5 642.41 231.37 640.26 233.87 637.91 235 636.87 236.67 637.13 238.89 636.93 240.14 635.96 240.58 634.29 239.27 634 238.35 632.64 237.41 632.44 236.82 631.41 236.3 630.47 234.49 625.68 234.52 620.9 234.56 616.12 234.59 611.33 234.63 606.55 234.67 601.77 234.7 596.98 234.74 592.2 234.77 587.41 234.81 582.63 234.85 577.85 234.88 573.06 234.92 568.28 234.95 563.49 234.99 558.71 235.03 553.98 235.05 552.82 233.2 552.19 231.48 552.59 230.67 552.67 227.88 552.43 223.1 551.97 220.41 551.29 219.8 551.2 218.97 551.73 217.9 551.57 217.18 550.73 216.81 550.48 215.89 550.79 214.43 550.59 213.54 549.87 213.21 549.57 212.71 549.69 212.04 549.3 211.6 548.41 211.4 548.04 209.74 548.22 206.63 547.88 204.43 547.03 203.13 546.6 201.91 546.59 200.77 545.7 198.97 543.92 196.51 542.77 193.26 542.24 189.23 540.97 186.97 540.4 186.84 539.92 184.73 539.4 183.79 539.3 183.06 537.73 181.23 537.63 180.53 537.84 179.64 538.85 177.91 539.79 175.06 540 173.14 540.75 171.7 540.77 170.9 540.64 169.86 540.22 168.94 538.99 168.26 538.84 167.98 538.71 166.92 539.23 166.26 539.38 165.5 539.25 164.58 538.5 162.98 538.17 161.35 540.92 161.26 547.09 161.26 553.25 161.26 559.42 161.25 565.59 161.25 571.76 161.25 577.92 161.25 584.09 161.25 590.26 161.25 596.42 161.25 602.59 161.25 608.76 161.24 614.93 161.24 621.1 161.24 627.26 161.24 633.43 161.24 639.69 161.23 639.82 162.84 640.2 164.02 640.96 164.96 642.12 165.68 642.31 167.06 641.54 169.1 641.28 171.61 641.53 174.62 642.11 177.32 643.02 179.71 645.1 181.47 648.35 182.59 650.26 184.3 650.84 186.6" transform="translate(-537 -160)"/>
</svg>
