<svg xmlns="http://www.w3.org/2000/svg" width="141" height="74" viewBox="0 0 141 74">
  <polygon fill="#CCCCCC" stroke="#FFFFFF" stroke-width=".5" points="575.73 322.36 571.34 322.36 566.96 322.36 562.58 322.36 558.2 322.36 553.82 322.36 549.43 322.36 545.05 322.36 540.67 322.36 536.29 322.36 531.9 322.36 527.52 322.36 523.14 322.36 518.76 322.36 514.38 322.36 509.99 322.36 505.61 322.36 501.23 322.36 496.85 322.36 492.46 322.36 488.08 322.36 483.7 322.36 479.31 322.36 474.93 322.36 470.55 322.36 466.17 322.36 461.79 322.36 457.4 322.36 453.02 322.36 448.64 322.36 444.26 322.36 439.87 322.36 435.49 322.36 435.48 317.92 435.46 313.47 435.45 309.01 435.44 304.53 435.42 300.05 435.41 295.55 435.39 291.04 435.38 286.52 435.37 281.99 435.35 277.45 435.34 272.9 435.32 268.33 435.31 263.75 435.3 259.15 435.28 254.55 435.27 249.93 439.24 249.93 443.22 249.93 447.19 249.93 451.17 249.93 455.14 249.93 459.12 249.93 463.09 249.93 467.07 249.93 471.04 249.93 475.02 249.93 478.99 249.93 482.97 249.93 486.94 249.93 490.92 249.93 494.89 249.93 498.87 249.93 502.84 249.93 506.82 249.93 510.79 249.93 514.77 249.93 518.74 249.93 522.72 249.93 526.69 249.93 530.67 249.93 534.64 249.93 538.62 249.93 542.59 249.93 546.57 249.93 550.54 249.93 554.52 249.93 558.49 249.93 561.91 249.92 566.28 253.11 567.43 253.14 568.79 252.64 569.81 253.37 570.51 255.33 570.41 256.33 569.51 256.37 568.39 257.55 567.05 259.86 567.39 262.02 569.39 264.05 570.72 266.08 571.38 268.13 572.7 269.72 575.65 271.41 575.61 272.35 575.61 275.52 575.62 278.68 575.63 281.83 575.64 284.98 575.64 288.13 575.65 291.27 575.66 294.4 575.67 297.53 575.67 300.65 575.68 303.77 575.69 306.88 575.7 309.99 575.71 313.09 575.71 316.18 575.72 319.27" transform="translate(-435 -249)"/>
</svg>
