<svg xmlns="http://www.w3.org/2000/svg" width="145" height="64" viewBox="0 0 145 64">
  <path fill="#CCCCCC" stroke="#FFFFFF" stroke-width=".5" d="M803.4,287.8 L803.84,288.47 L804.05,292.04 L803.92,292.75 L803.27,294.21 L803.31,294.98 L803.86,296.18 L805.88,298.97 L806.08,300.05 L806.87,301.11 L807.56,302.69 L809.71,306.06 L813.06,308.84 L815.68,309.58 L808.51,315.35 L805.23,317.44 L802.1,319.12 L801.85,319.4 L801.15,321.25 L799.25,322.88 L798.07,324.6 L795.24,326.04 L793.22,328 L788.16,329.92 L785.33,330.59 L783.41,331.71 L783.26,331.77 L783.11,331.82 L782.96,331.87 L782.81,331.92 L782.66,331.97 L782.51,332.02 L782.36,332.08 L782.21,332.13 L775.63,331.9 L769.05,331.67 L762.47,331.44 L755.89,331.21 L749.31,330.98 L742.73,330.75 L736.15,330.52 L729.57,330.29 L723.26,330.41 L716.95,330.53 L710.64,330.65 L704.33,330.77 L703.77,330.04 L702.11,329.88 L699.55,329.62 L699.45,329.62 L700.2,332.04 L700.21,334.14 L700.15,334.17 L697.18,334.17 L693.91,334.17 L690.64,334.17 L687.37,334.17 L684.09,334.17 L680.82,334.17 L677.54,334.17 L673.77,334.17 L674.77,332.11 L675.65,331.56 L676.04,331.45 L677,331.82 L677.45,331.95 L678.46,331.22 L679.35,329.1 L679.86,326.85 L679.99,324.48 L679.39,322.58 L679.19,321.41 L679.77,319.97 L681.45,318.06 L684.74,318 L689.65,319.79 L692.35,320.31 L692.83,319.55 L692.7,318.18 L691.95,316.2 L691.69,314.73 L691.92,313.76 L693.92,312.64 L697.69,311.37 L699.26,309.71 L698.64,307.65 L698.86,305.77 L699.92,304.06 L700.51,303.63 L700.89,303.35 L701.79,303.65 L702.48,303.51 L702.97,302.94 L703.17,302.05 L703.1,300.93 L703.36,300.66 L703.7,300.59 L704.63,301.17 L705.68,301.32 L706.73,300.98 L707.4,301.3 L707.68,302.28 L708.09,302.58 L708.62,302.2 L708.9,301.3 L708.93,299.87 L709.16,299.65 L709.37,299.84 L709.65,300.29 L710.47,300.47 L711.63,300.07 L713.24,300.42 L716.33,302.06 L717.63,303.25 L718.53,302.87 L719.47,301.31 L720.89,300.08 L722.79,299.17 L724.66,299.56 L726.5,301.25 L727.9,301.59 L728.86,300.58 L729.36,299.46 L729.4,298.23 L729.78,297.45 L730.49,297.11 L730.76,296.53 L730.59,295.71 L731.12,295.24 L732.34,295.12 L732.53,294.78 L732.39,294.46 L732.41,294.3 L732.77,294.31 L733.3,294.67 L733.89,295.49 L734.2,296.63 L735.34,297.73 L737.31,298.8 L738.87,298.98 L740.01,298.27 L741.06,296.42 L742.02,293.44 L743.28,291.75 L744.84,291.36 L745.98,290.25 L746.69,288.43 L747.88,286.96 L749.54,285.85 L750.18,284.25 L749.8,282.16 L750.55,281.03 L752.42,280.86 L753.56,281.11 L754.23,281.67 L754.71,281.92 L755.02,282 L755.67,281.83 L756.46,281.44 L760.11,280.08 L762.02,278.87 L762.23,277.68 L761.89,276.93 L761.01,276.61 L760.83,276.12 L761.35,275.46 L761.37,274.6 L760.89,273.54 L761.33,272.49 L761.63,272.26 L762.69,271.46 L763.81,271.37 L764.69,272.21 L765.94,272.42 L767.57,272.01 L769.07,272.3 L770.44,273.3 L771.72,275.13 L772.92,277.79 L775.08,279.41 L778.21,279.99 L780.49,281.03 L781.93,282.53 L783.11,283.01 L784.51,282.21 L785.99,281.8 L787.47,282.29 L789.44,283.55 L792.35,283.27 L796.21,281.45 L798.48,281.54 L799.16,283.54 L800.8,285.63 L803.4,287.81 L803.4,287.8 Z M673.03,334.09 L671.7,334.14 L671.65,333.86 L671.74,333.21 L671.85,332.92 L672.12,332.87 L672.43,332.88 L672.86,333.49 L673.03,334.09 Z" transform="translate(-671 -271)"/>
</svg>
