<svg xmlns="http://www.w3.org/2000/svg" width="101" height="90" viewBox="0 0 101 90">
  <path fill="#CCCCCC" stroke="#FFFFFF" stroke-width=".5" d="M672.39,476.82 L671.11,477.4 L664.17,475.16 L662.44,473.35 L660.91,472.96 L659.03,472.74 L657.01,474.96 L655.47,477.96 L657.9,479.6 L659.98,480.38 L663.42,479.72 L665.32,478.27 L666.87,478.32 L667.61,478.02 L668.29,477.26 L669.62,477.86 L669.67,478.46 L668.73,479.3 L667.54,480.01 L666.82,480.85 L668.17,482.54 L670.3,483.11 L671.1,482.87 L671.59,480.98 L672.9,479.76 L674.68,480.03 L674.43,480.8 L674.68,481.53 L675.5,482.76 L675.41,484.53 L675.57,484.96 L673.66,485.74 L672.23,486.01 L671.09,487.03 L671.69,487.62 L670.53,488.14 L669.75,487.93 L669.36,488.12 L669.24,488.75 L668.64,489.33 L669.51,491.08 L671.3,492.22 L672.56,493.65 L677.64,495.53 L678.87,495.48 L680.08,497.37 L681.06,498.02 L682,498.35 L681.89,499.65 L680.22,500.6 L679.77,501.73 L679.35,502.37 L678.6,501.56 L677.83,500.97 L676.04,502.75 L675.18,503.13 L675.61,501.21 L674.93,500.46 L673.91,498.53 L672.42,497.34 L671.37,496.95 L670.55,496.2 L669.56,495.89 L668.72,495.97 L667.29,495.53 L667.2,494.5 L666.8,493.73 L665.68,492.82 L660.33,491.11 L660.3,491.82 L660.67,492.35 L661.44,492.71 L662.36,493.4 L662.35,495.45 L661.95,496.32 L661.78,497.55 L661.43,498.8 L660.78,499.79 L659.32,500.46 L658.68,499.9 L657.64,497.2 L656.17,496.35 L653.83,496.25 L652.24,496.86 L650.51,499.47 L649.12,499.9 L644.35,498.55 L638.9,496.49 L639.04,495.8 L639.9,495.58 L641.55,495.86 L641.46,495.15 L639.78,492.84 L639.47,491.8 L639.69,490.53 L639.14,490.56 L638.13,491.63 L634.66,490.72 L633.7,489.64 L631.66,486.58 L628.78,486.48 L627.48,484.63 L625.13,485.41 L623.94,486.27 L622.89,487.6 L623.3,488.29 L624.35,489.39 L623.87,489.92 L620.52,490.7 L612.74,489.83 L610.46,489.01 L607.4,487.28 L603.17,485.87 L601.13,485.64 L599.13,485.92 L593.32,486.07 L591.97,486.44 L590.82,487.04 L590.08,486.38 L589.74,485.2 L590.42,485.01 L591.17,484.32 L591.85,482.94 L591.93,482.11 L591.46,481.57 L592.73,479.39 L593.04,478.61 L592.85,474.9 L592.29,473.55 L592.36,472.77 L592.96,470.74 L592.87,468.88 L593.91,466.63 L594.68,465.45 L595.54,463.05 L595.74,461.49 L596.11,460.32 L595.86,459.06 L596.47,458.15 L596.07,456.87 L595.95,455.19 L595.21,454.54 L593.9,452.05 L593.94,450.95 L592.57,448.62 L592.54,447.82 L591.23,446.6 L590.97,445.82 L590.85,442.58 L590.49,441.63 L589.36,439.76 L586.74,437.04 L586.75,434.22 L586.75,431.4 L586.76,428.57 L586.76,425.74 L586.77,422.9 L586.77,420.06 L586.77,417.22 L586.78,414.37 L590.19,414.36 L593.6,414.36 L597.01,414.36 L600.42,414.35 L603.83,414.34 L607.24,414.34 L610.65,414.34 L614.06,414.33 L617.47,414.33 L620.88,414.33 L624.29,414.32 L627.7,414.32 L631.11,414.31 L634.52,414.31 L637.93,414.3 L641.65,414.28 L641.76,415.38 L642.67,416.04 L642.72,417.22 L641.91,418.93 L641.92,420.12 L642.75,420.79 L642.71,421.5 L641.8,422.25 L641.66,423.06 L642.3,423.93 L642.59,424.93 L642.53,426.07 L643.37,427.56 L644.68,428.52 L645.54,429.64 L645.62,430.26 L645.67,430.83 L645.48,431.66 L644.4,432.88 L643.57,433.76 L643.07,434.09 L642.8,434.69 L642.73,435.99 L641.52,437.67 L639.06,439.6 L637.43,442.05 L636.63,445.02 L635.79,446.9 L634.91,447.7 L634.47,449.25 L634.47,451.54 L633.91,452.8 L632.78,453.04 L632.54,454.35 L633.19,456.73 L632.91,457.72 L632.12,458.5 L632.05,459.11 L636.59,459.12 L641.15,459.12 L645.71,459.12 L650.27,459.12 L654.83,459.12 L659.39,459.12 L663.95,459.12 L668.51,459.12 L667.95,461.65 L666.62,465.06 L666.57,465.95 L666.92,467.06 L666.92,467.69 L667.41,468.62 L668.5,469.55 L669.47,470.95 L670.32,473.44 L670.55,474.59 L671.26,476.19 L671.62,476.49 L672.14,476.68 L672.39,476.82 Z M678.02,479.19 L678.09,480.2 L677.16,479.7 L675.78,479.66 L676.39,479.31 L676.82,478.97 L677.03,478.61 L678.77,477.35 L678.28,478.28 L678.02,479.19 Z M685.54,485.2 L685.01,485.89 L685.53,482.57 L684.79,479.77 L685.57,481 L685.82,482.46 L685.54,485.2 Z M684.37,487.27 L683.34,488.41 L683.39,487.98 L684.15,486.84 L684.69,486.4 L684.37,487.27 Z M629.29,491.87 L628.59,492.18 L625.45,490.3 L625.25,489.49 L626.8,488.76 L627.74,488.83 L629.23,489.78 L629.78,490.05 L630.03,490.44 L629.89,491.04 L629.29,491.87 Z" transform="translate(-586 -414)"/>
</svg>
