<svg xmlns="http://www.w3.org/2000/svg" width="153" height="174" viewBox="0 0 153 174">
  <path fill="#CCCCCC" stroke="#FFFFFF" stroke-width=".5" d="M683.12,41.38 L683.03,41.85 L683.72,41.99 L683.59,42.22 L682.84,42.64 L680.72,43.51 L679.3,43.79 L678.57,43.48 L678.49,42.9 L679.07,42.06 L679.06,41.64 L678.47,41.64 L678.61,41.31 L679.48,40.64 L686.9,36.37 L690.07,34.81 L691.76,34.32 L692.03,34.56 L690.2,36.17 L689.91,36.83 L689.98,37.27 L689.38,38.12 L683.95,41.11 L683.12,41.38 Z M697.03,61.43 L696.68,62.33 L696.75,62.87 L694.45,65.25 L693.61,66.75 L692.91,66.99 L692.35,65.97 L692.35,65.15 L692.92,64.53 L693.48,63.65 L693.55,62.42 L693.33,61.98 L692.63,63.08 L693.02,63.32 L693.14,63.51 L693.01,63.91 L690.36,63.33 L689.56,62.47 L689.69,61.27 L690.58,59.74 L693.76,56.49 L695.16,55.59 L699.14,54.15 L701.34,53.82 L703.55,53.82 L705.15,54.29 L706.15,55.23 L705.21,55.85 L700.84,56.38 L700.72,56.55 L701.55,57.06 L701.71,57.42 L700.94,58.37 L697.03,61.43 Z M770.3,80.94 L770.88,81.3 L771.27,81.91 L772.25,83.6 L772.74,84.75 L773.04,86.45 L773.25,87.01 L773.22,88 L772.56,88.67 L772.38,89.2 L772.78,89.73 L775.02,89.88 L776.04,90.41 L776.42,91 L776.16,91.65 L776.3,92.34 L776.85,93.07 L778.64,94.18 L779.08,94.71 L778.95,95.27 L778.42,95.63 L777.48,95.8 L770.61,94.76 L768.59,94.59 L768.29,94.97 L768.1,95.03 L767.77,94.93 L767.18,94.91 L766.88,94.66 L766.63,93.97 L766.03,93.53 L765.08,93.34 L764.26,93.87 L763.31,95.93 L763.46,96.31 L763.3,97.63 L763.54,97.99 L763.53,98.29 L763.27,98.54 L762.71,98.5 L761.86,98.19 L758.64,95.08 L756.2,93.52 L753.18,92.38 L750.79,91.82 L749.03,91.85 L747.58,92.65 L746.45,94.22 L744.68,95.11 L742.28,95.32 L740.98,95.74 L740.77,96.37 L739.91,96.38 L738.39,95.78 L736.82,95.61 L735.19,95.87 L734,96.49 L732.74,98.42 L732.49,99.36 L731.58,100.18 L729.15,101.47 L729.03,101.94 L727.75,103.4 L727.35,104.2 L727.36,104.99 L726.93,104.94 L726.07,104.05 L726.04,102.86 L726.83,101.36 L727.54,100.63 L728.16,100.68 L728.54,100.02 L728.69,98.64 L728.47,97.95 L727.26,98.22 L726.63,98.77 L725.83,98.89 L724.87,98.58 L724.02,99.33 L723.28,101.15 L722.4,102.34 L721.38,102.9 L720.69,102.28 L720.34,100.48 L720.34,99.06 L720.76,97.35 L720.55,97.02 L720.12,97.57 L719.47,99 L718.61,102.11 L718.05,103.12 L717.3,103.55 L716.11,105.43 L714.49,108.76 L712.65,111.98 L710.61,115.09 L709.38,116.76 L708.97,117 L708.79,117.56 L708.72,118.86 L707.82,118.51 L707.05,117.46 L706.58,116.38 L706.54,115.27 L707.64,112.52 L707.74,112.07 L707.61,111.81 L707,111.5 L705.63,112 L704.24,112.1 L703.79,111.91 L703.61,111.44 L703.63,110.7 L703.91,109.82 L704.74,108.19 L704.75,106.64 L705.13,105.76 L704.76,104.11 L704.86,103.33 L704.28,102.47 L702.71,101.33 L699.04,99.82 L699.41,98.12 L699.26,97.39 L698.36,96.3 L694.51,95.03 L691.89,94.45 L689.3,94.44 L687.45,93.98 L685.36,93.83 L684.02,93.06 L682.68,92.29 L681.35,91.52 L680.01,90.75 L677.64,90.09 L675.27,89.43 L672.9,88.77 L670.53,88.11 L668.16,87.45 L665.79,86.79 L663.42,86.13 L661.05,85.47 L660.52,84.32 L659.99,83.17 L659.46,82.02 L658.93,80.87 L657.84,80.39 L657.26,80.14 L656.83,79.54 L655.85,79.8 L655.47,78.8 L655.56,78.59 L656.82,78.33 L660.38,76.9 L663.42,75.15 L665.94,73.08 L669.08,71.82 L672.84,71.35 L675.53,70.62 L677.15,69.62 L679.32,67.67 L680.54,67.1 L682.08,66.92 L683.24,66.17 L684.02,64.83 L685.49,63.31 L687.65,61.6 L688.89,60.91 L689.2,61.24 L689.31,61.84 L689.23,62.72 L689.77,63.43 L690.93,63.98 L691.46,64.7 L691.36,65.6 L691.67,66.37 L692.4,67 L692.59,68.38 L692.25,70.5 L692.21,71.87 L692.46,72.49 L692.72,72.84 L693.14,72.5 L693.66,71.75 L693.85,71.29 L693.98,70.82 L697.14,68.68 L697.76,68.58 L698.79,69.13 L703.57,69.9 L705.46,70.45 L707.45,71.68 L708.12,72.15 L710.55,76.1 L711.66,77.64 L712.35,78.06 L712.74,78.66 L713.05,80.05 L713.42,80.47 L716.98,80.77 L718.59,80.52 L719.57,79.96 L720.66,80.32 L721.86,81.61 L723.04,81.97 L724.2,81.41 L725.29,81.43 L726.31,82.03 L726.79,82.47 L727.1,82.45 L729.12,80.49 L731.55,78.75 L734.8,76.86 L736.68,76.02 L737.2,76.23 L740.2,75.6 L742.9,75.54 L746.47,75.92 L749.78,75.48 L752.83,74.22 L755.53,73.51 L757.88,73.36 L758.77,73.71 L758.2,74.57 L757.89,76.04 L757.85,78.12 L757.65,79.44 L757.29,79.99 L757.24,80.52 L757.51,81.02 L759.79,81.34 L760.99,82.01 L762.36,82.04 L763.91,81.43 L765.09,81.66 L765.91,82.74 L767.11,82.93 L768.27,82.16 L769.09,81.43 L769.79,81.11 L770.3,80.94 Z M774.57,84.85 L774.57,85.44 L773.99,85.31 L773.51,84.91 L773.12,84.25 L772.64,82.6 L771.9,81.42 L773.01,80.09 L773.68,79.93 L774.4,80.23 L774.5,81.01 L773.97,82.27 L774,83.55 L774.57,84.85 Z M774.81,88.03 L774.54,88.18 L773.59,87.11 L773.39,86.46 L773.53,85.91 L773.9,85.88 L774.5,86.38 L774.84,86.96 L774.92,87.62 L774.81,88.03 Z M786.51,94.38 L786.69,94.99 L786.23,95.89 L784.9,96.35 L782.2,96.3 L780.45,95.96 L779.64,95.32 L779.46,94.99 L779.54,94.28 L779.93,94.23 L780.51,94.62 L781.37,94.46 L782.51,93.74 L783.11,93.2 L783.17,92.84 L782.81,92.15 L783.11,91.86 L784.54,92.13 L785.07,92.58 L786.04,94.12 L786.51,94.38 Z M766.53,99.62 L768.96,100 L769.19,99.79 L769.88,100.51 L769.98,101.12 L769.69,101.63 L769.27,101.91 L768.72,101.96 L767.84,101.45 L766.41,100.09 L766.53,99.62 Z M762.63,100.38 L763.99,100.88 L766.42,102.55 L768.73,103.52 L770.91,103.79 L772.5,104.38 L773.51,105.28 L774.24,106.29 L774.68,107.41 L775.72,108.04 L777.36,108.18 L778.65,108.65 L779.59,109.45 L784.81,111.53 L786.99,112.62 L788.19,113.69 L788.53,114.37 L788.43,115.05 L788.55,115.77 L789.45,117.18 L789.79,117.31 L790,117.99 L790.08,119.22 L790.34,120.04 L790.79,120.46 L790.52,120.63 L788.91,119.92 L788,120.13 L787.58,121.05 L787.52,121.92 L787.81,122.74 L789.86,125.2 L790.4,127.44 L790.5,130.15 L790.24,131.2 L790.02,133.52 L789.85,137.1 L789.81,138.33 L789.13,139.52 L787.3,141.24 L787.27,140.92 L786.83,140.83 L786.35,141.09 L785.69,142.56 L785.12,145.24 L784.43,146.69 L783.62,146.92 L783.13,147.3 L782.97,147.84 L782.1,148.2 L780.51,148.39 L779.42,149.2 L778.61,151.48 L778.64,152.57 L778.27,153.93 L778.3,155.09 L778.73,156.06 L780.01,157.02 L782.15,157.99 L783.43,158.14 L784.31,157.74 L785.23,156.16 L786.12,155.54 L787.2,155.28 L787.61,154.56 L789.4,151.4 L789.4,150.69 L788.75,150.42 L788.84,150.23 L789.68,150.1 L790.41,149.68 L791.03,148.95 L792.12,148.4 L794.77,147.57 L796.19,146.62 L797.09,146.47 L798.4,146.98 L800.12,148.14 L801.48,149.83 L802.48,152.06 L803.74,157.81 L805.27,167.05 L806.31,172.2 L806.87,173.3 L807.15,173.85 L805.8,181.02 L804.72,183.97 L802.83,185.68 L800.95,187.34 L798.61,190.11 L796.03,191.48 L794.72,192.28 L794.44,192.8 L794.12,192.64 L793.41,194.14 L792.78,196.22 L792.53,197.82 L792.76,198.7 L792.23,199.26 L791.27,200.31 L791.09,200.69 L791.16,201.31 L790.96,201.61 L790.49,201.6 L790.13,201.9 L789.26,203 L787.76,205.88 L787.51,206.41 L787.32,206.56 L781.01,206.8 L774.7,207.04 L768.39,207.28 L762.07,207.52 L762.07,206.04 L756.32,206.04 L750.57,206.04 L744.82,206.04 L739.07,206.04 L733.32,206.04 L727.57,206.04 L722.88,206.04 L724.1,205.33 L726.12,203.69 L727.24,202.22 L728.32,200.28 L729.37,197.87 L731.51,194.27 L732.55,192.08 L733.55,189.31 L734.31,186.4 L734.82,183.35 L735.06,180.19 L735.03,176.91 L734.52,173.6 L733.53,170.26 L732.99,168.55 L732.78,168.09 L730.98,163.79 L728.95,157.79 L728.98,157.28 L730.88,153.69 L730.93,153.21 L730.73,150.29 L730.33,148.82 L729.36,146.85 L729.39,146.35 L731.36,143.83 L732.55,141.91 L733.63,139.58 L734.33,136.86 L734.65,133.74 L734.64,131.66 L734.3,130.62 L734.34,129.82 L734.75,129.26 L736.86,128.53 L737.57,127.29 L737.72,125.12 L738.15,124.04 L738.86,124.06 L739.52,123.61 L740.13,122.7 L740.94,122.44 L741.94,122.84 L743.34,121.49 L745.14,118.39 L746.52,116.65 L747.48,116.28 L747.66,116.56 L747.06,117.49 L746.88,118.51 L747.11,119.62 L746.91,120.69 L746.46,122.16 L746.74,122.62 L745.97,124.98 L745.93,126.16 L746.4,127.05 L746.96,126.74 L747.6,125.22 L747.79,124.41 L747.53,124.31 L747.63,123.66 L748.08,122.47 L748.48,121.9 L748.83,121.96 L748.93,122.61 L748.78,123.85 L747.76,126.76 L747.56,127.65 L747.79,127.9 L749.02,126.08 L750.05,123.17 L750.83,120.94 L750.97,119.72 L750.73,116.57 L750.78,115.28 L751.08,114.39 L752.15,113.38 L753.98,112.26 L755.79,111.66 L757.58,111.59 L758.83,111.28 L759.54,110.74 L759.29,110.31 L758.09,109.99 L757.18,109.29 L756.55,108.21 L756.34,106.96 L756.55,105.55 L757.32,104.17 L758.65,102.81 L759.07,101.81 L758.58,101.17 L759.15,100.94 L760.77,101.13 L761.91,100.96 L762.56,100.43 L762.63,100.38 Z M747.67,105.52 L747.02,105.66 L746.52,105.34 L746.6,104.08 L747.26,101.87 L747.91,100.85 L748.79,101.26 L748.62,101.53 L748.79,103.89 L748.47,104.93 L747.67,105.52 Z M739.62,118.98 L739.39,119.36 L738.87,119.33 L738.45,118.96 L738.04,117.78 L738.18,117.52 L739.2,117.69 L739.55,118.18 L739.62,118.98 Z" transform="translate(-655 -34)"/>
</svg>
