<svg xmlns="http://www.w3.org/2000/svg" width="114" height="171" viewBox="0 0 114 171">
  <polygon fill="#CCCCCC" stroke="#FFFFFF" stroke-width=".5" points="207.4 322.28 207.38 331.52 207.35 341.62 206.99 341.77 205.9 344.08 204.69 345.16 203.76 345.13 202.82 344.46 201.87 343.15 200.46 342.4 198.58 342.21 196.92 342.42 195.47 343.02 194.59 343.88 194.1 345.55 194.27 346.25 195.13 347.8 195.19 350.21 195.32 352.16 195.83 353.24 195.93 354.47 195.6 356.45 195.86 358.06 196.95 360.91 196.58 369.11 196.58 369.26 191.43 364.38 186.62 359.8 181.8 355.2 176.98 350.59 172.17 345.97 167.35 341.34 162.54 336.7 157.72 332.05 154.25 328.8 150.77 325.55 147.29 322.3 143.82 319.04 140.34 315.77 136.86 312.5 133.38 309.22 129.91 305.93 125.47 302.02 121.02 298.11 116.58 294.19 112.14 290.25 107.7 286.31 103.26 282.36 98.81 278.4 94.37 274.43 94.37 269.87 94.37 265.3 94.37 260.71 94.37 256.11 94.37 251.49 94.37 246.87 94.37 242.23 94.37 237.58 94.36 232.91 94.36 228.23 94.36 223.54 94.36 218.83 94.36 214.12 94.36 209.38 94.36 204.64 94.36 199.88 101.43 199.88 108.51 199.88 115.58 199.88 122.65 199.88 129.73 199.88 136.8 199.88 143.88 199.88 150.95 199.88 158 199.87 165.05 199.87 172.1 199.87 179.15 199.87 186.2 199.87 193.25 199.86 200.3 199.86 207.35 199.86 207.35 203.83 207.36 207.78 207.36 211.73 207.36 215.66 207.36 219.59 207.36 223.51 207.36 227.42 207.36 231.32 207.37 235.21 207.37 239.09 207.37 242.96 207.37 246.82 207.37 250.67 207.37 254.52 207.37 258.35 207.37 262.18 207.38 266 207.38 269.81 207.38 273.61 207.38 277.4 207.38 281.19 207.38 284.96 207.38 288.73 207.39 292.49 207.39 296.24 207.39 299.99 207.39 303.72 207.39 307.45 207.39 311.17 207.39 314.88 207.4 318.58" transform="translate(-94 -199)"/>
</svg>
