<svg xmlns="http://www.w3.org/2000/svg" width="36" height="70" viewBox="0 0 36 70">
  <polygon fill="#CCCCCC" stroke="#FFFFFF" stroke-width=".5" points="1028.69 172.45 1027.85 175.8 1027.31 177.44 1025.08 177.32 1024.12 177.57 1022.19 178.77 1020.99 179.21 1019.04 181.23 1017.38 181.93 1014.68 181.84 1011.99 181.75 1009.29 181.66 1006.6 181.57 1003.9 181.48 1001.2 181.39 998.51 181.3 995.81 181.21 995.49 180.29 994.43 178.66 994.18 177.97 994.24 177.19 994.82 175.12 995.25 174.48 995.68 173.27 996.36 168.45 996.95 165.66 997.37 160.53 997.8 159.03 998.26 158.11 999.04 155.68 1000.45 153.69 1001.37 151.25 1002.49 149.12 1002.65 147.86 1003.49 145.15 1004.07 140.29 1004.63 139.53 1007.18 138.85 1007.98 138.35 1010.68 136.33 1011.53 135.5 1012.08 134.64 1012.48 133.28 1012.79 132.92 1012.85 132.16 1011.91 128.97 1011.86 127.79 1013.95 124.16 1013.51 122.03 1013.82 121.51 1015.68 116.35 1017.43 113.94 1019.81 114.73 1021.08 114.67 1022.03 113.83 1022.16 116.49 1022.31 119.46 1022.45 122.43 1022.6 125.39 1022.75 128.34 1022.89 131.29 1023.04 134.23 1023.18 137.16 1023.33 140.09 1023.47 143.02 1023.62 145.94 1023.76 148.85 1023.91 151.76 1024.05 154.66 1024.2 157.56 1024.34 160.45 1024.24 162.38 1024.47 164.17 1025.15 165.76 1026.88 168.07 1027.18 170.03" transform="translate(-993 -113)"/>
</svg>
