<svg xmlns="http://www.w3.org/2000/svg" width="170" height="65" viewBox="0 0 170 65">
  <path fill="#CCCCCC" stroke="#FFFFFF" stroke-width=".5" d="M929.45,332.95 L928.95,334.77 L929.22,335.82 L930.23,336.9 L931.34,339.6 L932.22,343.23 L931.03,341.76 L929.76,340.98 L927.78,340.38 L926.01,339.33 L926.14,340.83 L925.97,342.45 L924.61,341.95 L923.68,341.41 L924.5,343.14 L922.72,342.62 L921.54,342.73 L920.77,344.26 L919.74,345.19 L918.21,345.49 L915.94,344.09 L915.21,342.39 L914.91,340.49 L914.79,342.73 L915.2,345.06 L915.06,346.83 L917.24,347.16 L919.28,346.87 L922.03,346.94 L923.83,346.61 L924.91,346.05 L927.51,346.54 L927.7,348.68 L927.4,350.8 L927.25,353.06 L927.97,353.05 L928.81,352.33 L929.23,348.29 L931.6,346.79 L932.39,346.89 L933.15,348.19 L933.4,349.51 L933.67,351.32 L933.11,354.08 L929.47,357.3 L926.86,360.27 L925.53,360.88 L923.61,360.53 L921.43,359.78 L920.36,359.63 L919.55,359.88 L919.05,358.97 L918.73,357.3 L917.88,356.74 L917.24,356.8 L916.8,358.57 L914.77,359.07 L912,358.34 L909.1,356.85 L910.34,358.45 L917.53,361.43 L918.34,361.99 L919.1,362.81 L918.1,364.09 L917.31,365.53 L917.2,366.66 L916.92,367.37 L914.06,369.29 L912.51,368.95 L908.54,365.5 L910.35,368.49 L911.8,369.76 L914.71,370.44 L920.18,369.33 L921.98,370.55 L920.51,372.7 L919.05,374.21 L917.13,374.38 L915.44,374.79 L914.95,375.83 L913.75,375.9 L911.87,375.96 L908.96,376.05 L907.36,375.81 L905.13,377.93 L904.29,378.22 L903.11,377.82 L902.62,376.12 L902.09,375.28 L902.08,378.46 L902.29,379.32 L902.71,379.97 L900.1,381.69 L897.6,383.84 L896.7,384.42 L895.68,385.49 L893.59,388.59 L893.07,390.85 L892.32,393.36 L892.22,392.23 L892.35,390.32 L891.83,388.13 L891.5,392.13 L890.69,393.99 L883.25,393.86 L880.25,394.79 L877.52,392.03 L874.96,389.43 L872.4,386.83 L869.84,384.22 L867.28,381.61 L864.72,379 L862.16,376.38 L859.6,373.76 L856.92,373.67 L854.24,373.58 L851.56,373.49 L848.88,373.4 L846.2,373.31 L843.52,373.22 L840.84,373.13 L838.16,373.04 L838.06,371.23 L837.99,369.95 L836.31,367.76 L835.33,366.47 L833.21,367.58 L833.1,367.04 L833.18,366.07 L832.99,365.74 L832.41,365.51 L829.4,365.38 L826.39,365.25 L823.38,365.12 L820.37,364.99 L817.36,364.86 L814.35,364.73 L811.34,364.6 L808.33,364.47 L807.64,364.25 L806.29,365.01 L802.73,366.16 L800.98,367.17 L800.34,367.11 L797.32,368.09 L794.29,369.07 L793.94,369.07 L788.2,369.15 L782.47,369.23 L776.73,369.31 L771,369.39 L771.71,364.48 L772.2,363.35 L772.74,363.1 L774.71,363.08 L775.97,362.51 L777.08,359.55 L779.59,357.21 L780.72,356.62 L782.41,356.17 L786.42,355.61 L790.72,353.33 L793.83,351.18 L796.3,350.58 L797.07,349.79 L797.63,348.76 L797.98,347.36 L798.25,347.07 L799.67,347.17 L800.76,345.95 L801.81,345.25 L802.86,344.86 L803.5,344.85 L803.75,345.22 L803.93,346.26 L804.16,346.6 L804.6,346.63 L805.21,346.39 L806.02,345.72 L808.11,343.63 L809.5,342.83 L811.63,342.37 L813.18,343.48 L814.11,343.1 L816.83,338.8 L817.91,338.02 L818.72,337.72 L820.12,337.66 L820.14,336.48 L820.63,334.7 L820.69,333.48 L821.55,331.68 L821.88,332.04 L828.74,332.11 L835.6,332.18 L842.46,332.25 L849.32,332.32 L856.18,332.39 L863.04,332.46 L869.9,332.53 L876.76,332.6 L883.62,332.67 L890.48,332.74 L897.34,332.81 L904.2,332.88 L911.06,332.95 L917.92,333.02 L924.78,333.09 L929.45,332.95 Z M930.91,332.98 L931.51,332.98 L933.4,340.52 L937.18,348.69 L937.64,350.09 L936.76,348.86 L933.96,343.45 L932.41,339.54 L930.91,332.98 Z M935.72,349.23 L935.43,349.7 L934.17,347.12 L935.47,347.95 L935.7,348.64 L935.72,349.23 Z M937.46,363.52 L934.92,364.15 L934.69,363.95 L937.61,362.63 L938.53,357.98 L938.65,355.83 L938.21,352.04 L938.23,351.26 L938.7,352.49 L939.12,356.03 L938.96,358.71 L938.11,362.61 L937.46,363.52 Z M932.94,364.67 L929.49,366.32 L929.1,366.22 L931.36,365.04 L932.94,364.67 Z M919.26,377.27 L918.79,377.53 L920.53,374.67 L923.96,371.03 L924.89,370.47 L922.04,373.58 L919.26,377.27 Z M918.45,377 L918.03,377.05 L917.28,376.8 L916.25,376.32 L916.02,375.96 L917,376.09 L918.45,377 Z" transform="translate(-770 -331)"/>
</svg>
