<svg xmlns="http://www.w3.org/2000/svg" width="144" height="87" viewBox="0 0 144 87">
  <polygon fill="#CCCCCC" stroke="#FFFFFF" stroke-width=".5" points="538.97 96.3 534.55 96.3 530.13 96.3 525.72 96.3 521.3 96.3 516.88 96.3 512.46 96.3 508.04 96.3 503.63 96.29 499.21 96.29 494.79 96.29 490.37 96.29 485.96 96.29 481.54 96.29 477.12 96.29 472.7 96.29 468.28 96.29 463.86 96.29 459.45 96.29 455.03 96.29 450.61 96.29 446.19 96.29 441.77 96.29 437.36 96.29 432.94 96.29 428.52 96.29 424.1 96.29 419.68 96.29 415.27 96.29 410.85 96.29 406.43 96.29 402.01 96.29 397.59 96.29 397.57 91.1 397.54 85.89 397.52 80.66 397.49 75.41 397.46 70.14 397.44 64.86 397.41 59.56 397.38 54.23 397.36 48.89 397.33 43.53 397.3 38.14 397.28 32.74 397.25 27.32 397.23 21.87 397.2 16.41 397.16 10.95 399.22 10.95 407.3 10.95 415.39 10.95 423.47 10.95 431.56 10.95 439.65 10.95 447.73 10.95 455.82 10.95 463.91 10.95 471.99 10.95 480.08 10.95 488.16 10.95 496.25 10.95 504.34 10.95 512.42 10.95 520.51 10.95 526.28 10.95 528.13 19.92 528.11 22.43 527.83 24.04 528.07 26.88 527.96 28.76 528.25 31.19 528.17 34.38 529.07 38.07 530.42 41.39 530.38 42.35 530.78 44.36 531.57 46.01 533.23 50.88 533.16 55.48 533.45 56.89 533.87 66.75 534 67.99 534.91 69.5 534.49 71.73 534.42 72.89 534.6 77 535.14 78.59 535.66 81.82 537.81 85.81 538.17 87.32 538.29 88.54 538.89 90.97 538.7 94.22" transform="translate(-396 -10)"/>
</svg>
