<svg xmlns="http://www.w3.org/2000/svg" width="164" height="79" viewBox="0 0 164 79">
  <polygon fill="#CCCCCC" stroke="#FFFFFF" stroke-width=".5" points="575.72 334.14 576.15 337.41 576.57 340.67 577 343.92 577.42 347.17 577.85 350.42 578.27 353.65 578.7 356.89 579.12 360.11 579.07 362.63 579.02 365.14 578.96 367.65 578.91 370.15 578.85 372.66 578.8 375.15 578.75 377.65 578.69 380.14 578.64 382.63 578.59 385.11 578.53 387.59 578.48 390.07 578.43 392.55 578.37 395.02 578.32 397.49 578.27 399.95 574 398.8 572.93 398.07 570.96 397.24 569.2 395.53 565.71 393.41 564.39 392.9 563.97 392.96 563.25 394 561.39 394.83 560.38 394.86 558.56 394.55 558.21 394.28 557.95 393.65 557.21 393.21 556.67 393.55 554.01 394.44 553.62 395.05 552.12 395.08 550.63 394.63 546.88 396.02 545.59 397.1 544.24 397.48 543.54 398.53 543.13 398.38 541.72 397.08 540.28 396.69 538.3 395.4 538.23 394.26 538.02 394.12 537.67 393.98 537.22 394.1 536.36 395.07 535.86 395.32 535.37 395.28 533.45 394.62 532.64 393.45 532.24 393.09 531.81 393.03 530.98 393.38 530.52 394.66 530.15 395 529.35 395.23 529.39 395.87 528.68 397.64 528.3 398 527.8 397.93 527.29 397.5 526.91 396.86 526.74 396.33 527.03 394.92 526.86 394.46 526.48 394.31 525.54 394.98 524.71 394.94 523.66 395.6 523 395.8 522.4 395.64 521.42 394.57 519.72 393.88 519.07 392.61 518.76 392.25 518.4 392.16 518.03 392.19 517.43 392.6 515.47 394.26 514.58 394.79 513.81 394.9 513.08 394.74 512.61 394.31 512.52 392.62 512.09 392.11 510.28 391.05 509.89 390.05 509.72 388.66 507.53 388.88 504.84 388.74 503.62 389.96 502.99 390.19 502.23 389.94 500.05 388.29 497.75 388.63 496.44 388.44 493.22 387.21 490.69 387.1 489.64 386.88 489.09 386.6 488.84 384.71 487.83 383.11 487.5 382.67 485.79 381.55 485.52 381.51 485.33 381.77 484.95 383.02 484.43 383.08 482.46 382.73 480.64 383.1 479.63 382.47 476.18 379.55 474.79 378.8 473.67 378.56 473.67 375.81 473.67 373.07 473.66 370.31 473.66 367.55 473.66 364.79 473.65 362.03 473.65 359.26 473.65 356.48 473.64 353.71 473.64 350.92 473.64 348.14 473.63 345.35 473.63 342.55 473.62 339.75 473.62 336.95 473.62 334.14 470.06 334.14 466.51 334.14 462.96 334.14 459.4 334.14 455.85 334.14 452.3 334.14 448.74 334.14 445.19 334.14 441.64 334.14 438.08 334.13 434.53 334.13 430.98 334.13 427.42 334.13 423.87 334.13 420.32 334.13 416.76 334.13 416.76 331.2 416.76 328.26 416.76 325.31 416.75 322.36 421.44 322.36 426.12 322.36 430.81 322.36 435.49 322.36 439.87 322.36 444.26 322.36 448.64 322.36 453.02 322.36 457.4 322.36 461.79 322.36 466.17 322.36 470.55 322.36 474.93 322.36 479.31 322.36 483.7 322.36 488.08 322.36 492.46 322.36 496.85 322.36 501.23 322.36 505.61 322.36 509.99 322.36 514.38 322.36 518.76 322.36 523.14 322.36 527.52 322.36 531.9 322.36 536.29 322.36 540.67 322.36 545.05 322.36 549.43 322.36 553.82 322.36 558.2 322.36 562.58 322.36 566.96 322.36 571.34 322.36 575.73 322.36 575.73 325.31 575.72 328.26 575.72 331.2" transform="translate(-416 -322)"/>
</svg>
