<svg xmlns="http://www.w3.org/2000/svg" width="154" height="113" viewBox="0 0 154 113">
  <polygon fill="#CCCCCC" stroke="#FFFFFF" stroke-width=".5" points="33.3 90.56 35.19 89.87 36.68 90.38 38.58 91.61 40.45 95.34 42.29 101.54 42.68 103.59 44.12 104.84 45.81 104.91 52.6 105.83 53.6 105.76 53.6 105.75 54.83 105.52 58.68 103.17 62.85 102.39 67.78 102.56 70.81 103.23 71.92 104.4 74.55 104.53 80.8 103.16 87.71 102.2 91.41 101.2 95.62 99.15 105.2 96.53 109.98 96.24 112.39 95.24 112.97 94.73 113.29 94.73 118.33 94.72 123.36 94.71 128.39 94.71 133.43 94.7 138.46 94.69 143.5 94.68 148.53 94.68 153.23 94.68 153.75 95.87 155.73 98.19 158.53 100.2 160.35 102.29 161.18 104.48 159.82 109.45 156.25 117.19 154.31 122.11 154 124.23 152.24 127.84 149.01 132.94 147.44 136.71 147.52 139.15 148.62 140.56 150.72 140.95 152.16 141.75 152.93 142.96 152.95 144.07 152.22 145.08 152.01 146.13 152.33 147.22 152.07 149.15 150.88 153.11 150.88 153.23 150.89 159.65 150.9 165.46 150.91 171.25 150.92 177.01 150.93 182.76 150.93 188.48 150.94 194.19 150.95 199.88 143.88 199.88 136.8 199.88 129.73 199.88 122.65 199.88 115.58 199.88 108.51 199.88 101.43 199.88 94.36 199.88 89.36 199.88 84.36 199.88 79.36 199.88 74.36 199.88 69.36 199.88 64.36 199.88 59.36 199.88 54.36 199.88 49.36 199.88 44.36 199.88 39.36 199.88 34.36 199.88 29.36 199.88 24.36 199.88 19.36 199.88 14.19 199.87 11.78 196.76 10.74 192.13 10.54 190.17 10.81 184.98 10.1 182.76 8.28 179.09 9.06 175.89 9.9 173.94 11.94 165.41 12.44 164.72 13.29 164.74 14.78 163.29 14.09 162.95 13.05 163.64 13.98 160.25 15.02 157.34 15.7 156.29 16.04 146.75 16.64 139.41 17.62 136.99 17.27 134.48 17.67 131.08 17.39 127.64 19.49 110.96 19.22 108.93 19.86 106.21 19.25 99.01 19.52 90.91 18.99 89.88 18.72 88.76 19.22 88.59 20.19 89.77 24.71 89.76 27.59 88.67 28.64 89.03 29.85 90.52 31.38 90.82" transform="translate(-8 -88)"/>
</svg>
