<svg xmlns="http://www.w3.org/2000/svg" width="112" height="66" viewBox="0 0 112 66">
  <polygon fill="#CCCCCC" stroke="#FFFFFF" stroke-width=".5" points="953.48 216.15 951.99 216.96 951.33 217.55 950.78 218.38 949.44 221.23 947.18 223.82 945.44 225.14 945.44 225.82 946.35 228.01 946.34 228.71 945.65 230.06 944.46 230.73 944.25 231.52 944.13 232.86 944.19 235.2 944.54 235.68 945.93 236.51 947.13 239.56 948.22 239.92 952.8 246.15 949.49 248 947.33 249.53 946.37 250.37 944.49 252.55 941.69 253.29 940.18 254.11 939.79 254.51 938.09 253.82 935.74 253.91 934.94 254.22 934.33 254.81 932.89 256.79 928.51 256.79 924.14 256.79 919.76 256.79 915.38 256.79 911.01 256.79 906.63 256.79 902.25 256.79 897.88 256.79 893.5 256.79 889.12 256.79 884.75 256.78 880.37 256.78 875.99 256.78 871.61 256.78 867.24 256.78 862.86 256.78 860.39 256.78 857.92 256.78 855.45 256.78 852.98 256.79 850.51 256.79 848.04 256.79 845.57 256.79 843.1 256.79 843.1 253.95 843.1 251.1 843.09 248.25 843.09 245.39 843.09 242.53 843.09 239.66 843.09 236.79 843.11 233.93 843.08 231.3 843.08 228.68 843.08 226.06 843.08 223.43 843.08 220.81 843.08 218.17 843.08 215.53 843.08 212.89 843.08 210.24 843.08 207.59 843.08 204.94 843.08 202.28 843.08 200.16 846.61 198.85 848.17 197.97 849.76 197.12 850.59 196.62 851.51 196.17 857.45 192.87 857.45 193.01 857.45 196.44 857.45 199.87 860.06 199.87 862.68 199.87 865.29 199.87 867.9 199.88 870.52 199.88 873.13 199.88 875.75 199.88 878.36 199.88 880.98 199.89 883.59 199.89 886.21 199.89 888.82 199.89 891.44 199.89 894.05 199.9 896.66 199.9 899.28 199.9 901.89 199.9 904.51 199.9 907.12 199.91 909.74 199.91 912.35 199.91 914.97 199.91 917.58 199.91 920.19 199.92 922.81 199.92 925.42 199.92 928.04 199.92 930.65 199.92 933.27 199.93 935.88 199.93 938.5 199.93 941.11 199.93 942.58 201.25 943.24 202.63 945.46 203.61 945.96 204.16 945.98 204.98 946.76 205.85 946.51 207.17 946.52 208.34 946.8 209.82 947.34 211.22 948.13 212.36 949 213.2 952.39 214.47 953.08 215.2" transform="translate(-842 -192)"/>
</svg>
