<svg xmlns="http://www.w3.org/2000/svg" width="13" height="19" viewBox="0 0 13 19">
  <path fill="#CCCCCC" stroke="#FFFFFF" stroke-width=".5" d="M1019.2,207.33 L1018.49,207.97 L1017.74,206.99 L1017.37,205.92 L1016.83,205.31 L1016.24,205.08 L1016.74,207.43 L1015.55,209.18 L1015.22,213.72 L1013.72,215.6 L1009.05,216.81 L1007.67,216.7 L1007.91,215.26 L1008.39,214.66 L1008.49,213.09 L1008.56,212.06 L1008.55,210.32 L1008.53,208.33 L1008.51,206.16 L1008.5,204.25 L1008.49,202.87 L1008.48,200.96 L1008.47,199.59 L1009.89,199.57 L1011.84,199.54 L1013.72,199.51 L1014.89,199.49 L1016.32,199.47 L1016.38,200.62 L1016.47,202.38 L1017.26,202.66 L1017.22,204.09 L1017.2,205.04 L1017.88,205.63 L1018.58,206.23 L1019.2,207.33 Z M1019.05,212.75 L1018.11,213.44 L1017.06,213.32 L1017.59,212.39 L1017.79,211.02 L1018.31,209.52 L1018.61,209.06 L1019.23,208.65 L1019.05,212.75 Z M1016.7,212.92 L1016.17,213.39 L1015.98,212.17 L1016.35,210.77 L1016.72,210.74 L1016.91,211.49 L1016.7,212.92 Z" transform="translate(-1007 -199)"/>
</svg>
