<svg xmlns="http://www.w3.org/2000/svg" width="146" height="92" viewBox="0 0 146 92">
  <polygon fill="#CCCCCC" stroke="#FFFFFF" stroke-width=".5" points="538.97 96.3 538.31 99 537.86 100.17 536.95 101.38 534.09 103.99 533.38 104.88 533.49 105.7 534.07 106.73 535.53 109.15 536.32 110.12 539.47 111.75 540.92 113.74 540.92 119.76 540.92 125.76 540.92 131.73 540.92 137.68 540.92 143.61 540.92 149.51 540.92 155.4 540.92 161.26 538.17 161.35 538.5 162.98 539.25 164.58 539.38 165.5 539.23 166.26 538.71 166.92 538.84 167.98 538.99 168.26 540.22 168.94 540.64 169.86 540.77 170.9 540.75 171.7 540 173.14 539.79 175.06 538.85 177.91 537.84 179.64 537.63 180.53 537.73 181.23 539.3 183.06 539.4 183.79 539.92 184.73 540.4 186.84 538.94 186.49 537.52 185.37 536.71 183.6 534.26 181.96 530.18 180.44 527.44 179.08 526.03 177.86 522.65 177.33 517.32 177.5 513.85 178.14 512.26 179.27 508.87 178.07 503.21 174.23 495.71 174.23 489.15 174.23 482.59 174.23 476.02 174.23 469.46 174.23 462.9 174.23 456.33 174.23 449.77 174.23 443.21 174.23 436.64 174.23 430.08 174.23 423.51 174.23 416.95 174.23 410.39 174.23 403.82 174.23 397.26 174.23 397.24 167.75 397.22 161.25 397.2 154.73 397.18 148.18 397.16 141.59 397.14 134.98 397.12 128.35 397.1 121.68 397.25 121.68 397.4 121.68 397.55 121.68 397.7 121.68 397.7 121.6 397.71 121.52 397.71 121.43 397.71 121.35 397.68 115.12 397.66 108.87 397.63 102.59 397.59 96.29 402.01 96.29 406.43 96.29 410.85 96.29 415.27 96.29 419.68 96.29 424.1 96.29 428.52 96.29 432.94 96.29 437.36 96.29 441.77 96.29 446.19 96.29 450.61 96.29 455.03 96.29 459.45 96.29 463.86 96.29 468.28 96.29 472.7 96.29 477.12 96.29 481.54 96.29 485.96 96.29 490.37 96.29 494.79 96.29 499.21 96.29 503.63 96.29 508.04 96.3 512.46 96.3 516.88 96.3 521.3 96.3 525.72 96.3 530.13 96.3 534.55 96.3" transform="translate(-396 -96)"/>
</svg>
