<svg xmlns="http://www.w3.org/2000/svg" width="116" height="123" viewBox="0 0 116 123">
  <path fill="#CCCCCC" stroke="#FFFFFF" stroke-width=".5" d="M655.22,66.56 L654.6,67 L654.37,66.8 L654.52,65.95 L654.84,65.45 L655.32,65.31 L655.55,65.52 L655.54,66.07 L655.22,66.56 Z M649.88,69.29 L649.6,69.49 L648.88,69.02 L648.78,68.64 L648.97,68.25 L649.31,68.34 L649.78,68.9 L649.88,69.29 Z M655.58,78.52 L655.49,78.73 L655.87,79.73 L656.85,79.47 L657.28,80.07 L657.86,80.32 L658.95,80.8 L659.48,81.96 L660.01,83.11 L660.54,84.26 L661.07,85.41 L663.44,86.07 L665.81,86.73 L668.18,87.39 L670.55,88.05 L672.92,88.71 L675.29,89.37 L677.66,90.03 L680.03,90.69 L681.37,91.46 L682.71,92.23 L684.05,93 L685.39,93.77 L687.48,93.92 L689.33,94.38 L691.92,94.39 L694.54,94.97 L698.39,96.24 L699.29,97.33 L699.44,98.06 L699.07,99.76 L702.74,101.27 L704.31,102.41 L704.89,103.28 L704.8,104.07 L705.17,105.72 L704.79,106.61 L704.78,108.16 L703.95,109.79 L703.67,110.67 L703.65,111.41 L703.83,111.88 L704.28,112.07 L705.67,111.97 L707.04,111.47 L707.65,111.78 L707.78,112.04 L707.68,112.49 L706.58,115.24 L706.62,116.35 L707.09,117.43 L707.86,118.48 L708.77,118.83 L708.73,119.52 L708.36,120.87 L707.29,121.93 L704.5,123.27 L704.06,124.18 L704,124.93 L702.2,128.04 L701.32,129.94 L700.74,131.92 L700.92,133.16 L701.86,133.67 L702.62,133.47 L703.2,132.57 L704.09,131.76 L705.3,131.03 L706.18,129.95 L707.4,127.34 L708.77,125.83 L709.5,125.74 L709.7,125.79 L711.13,125.11 L712.28,125.34 L712.97,126.37 L713.68,127.07 L713.84,127.73 L713.49,129.21 L712.84,130.76 L711.88,132.39 L711.01,134.83 L710.24,138.08 L710.08,140.53 L710.53,142.18 L710.11,143.66 L708.81,144.96 L707.77,146.7 L706.98,148.87 L706.53,150.69 L706.42,152.16 L706.53,153.26 L707.01,154.74 L706.98,155.49 L705.57,158.75 L705.06,160.34 L704.97,161.59 L704.62,162.82 L703.54,165.32 L703.2,166.7 L703.14,167.97 L703.38,170.05 L703.24,170.75 L703.3,171.28 L703.56,171.64 L703.56,172.29 L703.29,173.24 L703.4,173.98 L703.89,174.51 L704.2,175.52 L704.34,177 L704.71,178.24 L705.31,179.23 L705.42,180.67 L705.04,182.55 L704.84,186.08 L704.8,187.2 L702.38,187.18 L693.84,187.12 L685.3,187.06 L676.76,187 L668.22,186.94 L659.68,186.88 L650.97,186.81 L650.84,186.62 L650.26,184.31 L648.35,182.6 L645.1,181.48 L643.02,179.73 L642.11,177.33 L641.53,174.63 L641.28,171.63 L641.54,169.11 L642.31,167.07 L642.12,165.69 L640.96,164.97 L640.2,164.03 L639.83,162.86 L639.7,161.24 L639.07,153.54 L638.28,149.9 L637.09,148.47 L634.58,146.8 L630.76,144.9 L628.4,143.12 L627.05,140.62 L624.34,137.69 L622.57,136.49 L620.83,136.04 L619.45,135.1 L618.43,133.66 L617.01,132.75 L615.2,132.37 L613.18,131.19 L610.79,129.05 L610.74,128.89 L610.24,127.35 L610.52,126.48 L610.92,123.5 L610.89,122.56 L610.36,119.84 L611.01,118.79 L610.88,115.42 L611.11,114.32 L612.4,111.55 L612.46,110.14 L612,108.51 L611.04,107.17 L608.48,105.78 L608.4,104.05 L608.81,102.77 L610.48,100.35 L611.4,98.2 L612.24,97.27 L617.35,94.04 L618.44,93.82 L619.23,92.9 L619.85,92.5 L619.85,88.57 L619.86,84.63 L619.86,80.68 L619.86,76.72 L621.14,76.44 L621.7,75.45 L623,73.83 L623.35,73.85 L623.35,73.87 L624,74.58 L625.62,75.6 L626.88,75.73 L628.5,75.52 L634.88,73.76 L637.57,72.53 L640.21,70.46 L640.48,70.4 L641.58,70.78 L641.92,70.96 L645.36,68.58 L646.49,68.28 L647.38,68.35 L648.48,69.29 L648.74,69.86 L648.38,70.96 L647.39,72.58 L646.91,73.94 L646.94,75.04 L646.51,76.23 L645.43,77.84 L645.82,78.28 L648.72,77.12 L649.15,76.67 L649.2,76.4 L649,76.02 L649.33,75.87 L651.61,77.45 L653.13,78.33 L654.4,78.75 L655.58,78.52 Z M652.94,69.51 L652.31,69.67 L650.95,69.43 L650.98,69.03 L652.39,68.47 L653.02,68.31 L653.17,68.55 L652.94,69.51 Z M649.83,73.27 L648.75,73.65 L648.3,73.58 L648.48,73.06 L649.04,72.44 L651.56,70.88 L652,70.91 L652.14,71.28 L650.92,72.05 L650.46,72.46 L650.4,72.88 L649.83,73.27 Z M722.82,112.26 L722.25,112.53 L721.21,112.44 L720.84,111.83 L721.39,110.29 L721.61,110.58 L722.52,110.6 L722.83,110.75 L722.93,111.13 L722.82,112.26 Z M720.35,115.25 L720,115.59 L719.41,115.36 L719.18,115.86 L719.31,117.1 L719.12,117.67 L718.6,117.58 L718.57,117.81 L719.03,118.36 L719.08,118.96 L718.72,119.61 L718.37,119.92 L718.04,119.88 L717.52,120.62 L716.82,122.15 L716.58,123.04 L716.81,123.28 L716.65,123.79 L714.9,126.11 L714.23,126.33 L713.49,126 L712.97,125.32 L712.66,124.29 L712.57,123.49 L712.69,122.92 L714.23,120.86 L714.92,119.51 L715.31,118 L716.02,117.03 L717.06,116.62 L717.9,115.68 L718.54,114.21 L719.28,113.57 L720.12,113.76 L720.48,114.32 L720.35,115.25 Z" transform="translate(-608 -65)"/>
</svg>
