<svg xmlns="http://www.w3.org/2000/svg" width="69" height="109" viewBox="0 0 69 109">
  <path fill="#CCCCCC" stroke="#FFFFFF" stroke-width=".5" d="M746.3,369.04 L746.8,371.98 L747.3,374.92 L747.8,377.85 L748.3,380.78 L748.8,383.7 L749.3,386.62 L749.8,389.54 L750.3,392.45 L750.8,395.36 L751.3,398.26 L751.8,401.16 L752.3,404.06 L752.8,406.95 L753.3,409.84 L753.8,412.72 L754.3,415.6 L754.77,416.9 L755.15,419.01 L757.83,425.24 L758.61,427.86 L758.38,428.94 L758.71,429.86 L759.6,430.62 L759.45,431.5 L758.25,432.5 L757.46,433.71 L756.89,435.86 L756.89,435.87 L755.76,439.65 L755.75,441.95 L756.84,445.09 L756.84,445.1 L757.07,446.49 L756.35,452.61 L756.83,456.54 L757.97,459.09 L751.85,459.1 L745.72,459.1 L739.59,459.1 L733.46,459.1 L727.33,459.1 L721.2,459.1 L715.07,459.1 L708.94,459.1 L708.68,460.67 L708.8,462.18 L709.46,463.61 L712.2,466.33 L712.45,466.99 L711.97,469.09 L712.05,470.58 L711.76,471.35 L711.09,472.03 L710.91,472.77 L710.46,472.98 L708.39,475.24 L701.11,475.98 L701.51,475.47 L703.05,475.37 L705.21,474.65 L704.77,473.45 L703.94,472.13 L703.17,471.98 L702.66,471.2 L702.69,468.75 L702.2,467.32 L701.02,465.85 L700.62,466.13 L699.75,468.65 L699.03,471.95 L698.67,473.02 L696.51,473.1 L694.6,472.88 L693.66,472.94 L693.41,468.44 L693.21,464.32 L693.01,460.19 L692.81,456.06 L692.61,451.92 L692.41,447.77 L692.21,443.61 L692.01,439.44 L692.47,435.33 L692.94,431.21 L693.4,427.09 L693.86,422.95 L694.33,418.81 L694.79,414.66 L695.25,410.5 L695.71,406.33 L696.17,402.15 L696.63,397.96 L697.09,393.76 L697.55,389.55 L698.02,385.33 L698.48,381.11 L698.94,376.87 L699.41,372.63 L699.53,371.55 L699.55,371.18 L699.62,370.63 L697.94,369.11 L697.61,368.81 L697.37,368.53 L697.61,368.51 L700.65,368.54 L703.69,368.58 L706.73,368.62 L709.77,368.65 L712.81,368.69 L715.85,368.73 L718.89,368.76 L721.93,368.8 L724.97,368.84 L728.01,368.87 L731.05,368.91 L734.09,368.94 L737.13,368.98 L740.17,369.02 L743.21,369.06 L746.3,369.04 Z M699.88,475.51 L698.21,475.98 L695.74,475.94 L695.24,475.78 L696.23,475.47 L699.16,475.06 L699.88,475.51 Z" transform="translate(-691 -368)"/>
</svg>
