<svg xmlns="http://www.w3.org/2000/svg" width="324" height="290" viewBox="0 0 324 290">
  <path fill="#CCCCCC" stroke="#FFFFFF" stroke-width=".5" d="M248.81,538.35 L248.81,543.93 L248.81,549.43 L248.81,554.86 L248.81,560.22 L248.81,565.51 L248.81,570.73 L248.81,575.89 L248.81,580.98 L248.81,586.01 L248.81,590.98 L248.81,595.89 L248.81,600.75 L248.81,605.55 L248.81,610.3 L248.81,614.99 L248.81,619.63 L248.81,624.22 L248.81,628.76 L248.81,633.25 L248.81,637.69 L248.81,642.09 L248.81,646.44 L248.81,650.75 L248.81,655.02 L248.81,659.24 L248.81,663.43 L248.81,667.58 L248.81,671.68 L248.81,675.75 L248.81,679.78 L248.81,683.77 L248.81,687.73 L250.41,688.28 L252,688.83 L252.49,687.73 L254.2,688.57 L255.7,689.3 L256.65,688.36 L257.68,687.35 L259.07,687.28 L260.63,687.2 L261.67,687.15 L261.67,688.02 L261.29,689.46 L260.97,690.66 L261.83,691.76 L261.92,691.87 L263.09,692.51 L264.18,693.1 L264.67,694.74 L265.86,696 L266.77,696.95 L267.64,697.86 L268.89,699.16 L269.76,700.07 L270.93,701.28 L271.62,702 L271.95,703.39 L272.35,705.06 L272.1,706.04 L272.65,706.2 L273.73,705.1 L274.74,704.42 L275.99,703.57 L276.83,703 L278.4,702.97 L279.15,701.31 L279.15,698.96 L279.94,699 L280.41,698.68 L280.62,697.99 L280.12,697.04 L281.62,696.6 L282.71,696.28 L284.26,695.41 L285.77,694.55 L286.49,695.21 L287.21,695.85 L288.61,697.39 L288.71,697.76 L288.62,698.48 L288.48,699.2 L289.33,701.21 L289.57,701.43 L290.27,701.71 L291.11,702.37 L291.48,702.94 L292.69,703.85 L292.89,704.23 L293,704.84 L293.2,705.37 L293.43,705.75 L293.65,706.28 L294.18,706.91 L295.18,707.61 L295.87,708.1 L296.84,708.78 L297.82,710.17 L298.67,711.37 L299.64,712.55 L299.5,713.49 L300.48,714.94 L301.52,716.77 L302.31,718.39 L302.88,719.3 L303.56,720.61 L304.39,722.2 L305.33,724.01 L306.05,725.17 L306.99,726.78 L307.46,727.74 L307.14,728.4 L306.75,729.21 L307.96,729.59 L308.8,729.86 L308.59,730.76 L308.31,731.94 L309.26,732.4 L309.91,732.71 L309.78,733.33 L310.13,734.03 L310.19,735.18 L311.35,735.11 L311.86,735.08 L312.55,735.59 L313.46,736.26 L314.37,736.89 L315.15,737.42 L316.17,737.74 L317.43,738.19 L318.05,739.12 L319.2,739.52 L319.63,740.82 L320.96,741.29 L321.74,740.97 L322.02,741.5 L322.24,742.11 L322.3,742.88 L322.23,743.62 L321.9,744.24 L321.65,744.91 L321.48,745.63 L321.42,746.4 L321.46,747.22 L321.59,747.94 L322,749.26 L322.13,750.07 L322.15,750.61 L321.25,752.49 L320.94,753.39 L320.97,753.79 L320.31,754.72 L319.1,756.02 L318.55,756.77 L318.28,756.53 L316.72,756.34 L316.15,754.68 L315.85,753.39 L315.4,752.27 L315.41,752.01 L315.83,751.26 L317.39,750.64 L317.4,750.39 L316.82,750.23 L316.68,749.96 L316.52,748.73 L316.56,747.65 L316.52,746.93 L316.26,745.46 L315.87,744.56 L314.86,742.8 L314.78,742.35 L315.23,741.79 L315.51,741.27 L313.81,742.18 L311.48,743.13 L310.48,743.79 L310.27,744.06 L310.2,744.29 L310.38,744.91 L310.35,745.11 L310.15,745.48 L309.91,746.52 L309.41,747.62 L309.15,747.85 L308.24,747.44 L308,747.09 L307.55,745.65 L307.66,745.27 L307.99,744.95 L308.44,744.25 L309.01,743.17 L310.09,740.42 L310.8,740.41 L312.05,739.86 L310.09,739.59 L309.8,739.45 L309.54,739.07 L309.31,738.46 L308.91,737.78 L308.17,737.54 L307.84,737.29 L307.35,736.46 L307.02,736.09 L306.84,735.63 L306.81,735.08 L306.67,734.8 L306.16,734.7 L305.88,734.51 L305.81,733.09 L304.79,732.72 L304.37,732.41 L303.7,731.52 L303.52,731.09 L303.46,730.73 L303.63,729.74 L303.56,729.56 L302.97,729.66 L299.28,728.13 L299.48,726.1 L298.8,723.4 L298.07,722.3 L298.22,721.87 L298.38,721.64 L298.71,721.64 L300.13,722.44 L301.46,723.39 L301.63,723.25 L299.5,721.24 L298.97,720.64 L298.84,719.92 L298.83,719.53 L299,719.33 L301,719.51 L301.12,719.36 L299.09,718.77 L298.68,718.77 L298.24,719.62 L298.03,719.82 L297.59,719.78 L297.44,719.65 L296.93,718.62 L296.44,717.9 L295.53,716.9 L295.36,716.19 L295.32,715.14 L295.44,714.15 L296.19,711.88 L296.49,711.48 L296.57,711.23 L296.34,711.27 L296.12,711.49 L295.5,712.55 L294.86,714.28 L294.34,714.87 L294.01,714.73 L293.52,714.03 L292.49,713.17 L291.3,712.95 L290.55,712.07 L289.44,709.61 L289.29,708.38 L289.15,708.08 L288.55,707.68 L288.18,707.09 L287.61,704.06 L286.86,701.94 L286.67,700.82 L286.74,699.71 L286.64,699.59 L286.38,700.46 L286.31,700.91 L285.83,701.04 L286.28,701.92 L286.39,702.36 L286.17,702.32 L285.71,702.43 L286.49,703.92 L286.84,706.23 L287.36,707.93 L287.69,709.31 L287.84,710.35 L288.06,711.34 L288.66,713.53 L288.74,713.97 L288.67,714.32 L288.47,714.74 L288.13,714.9 L287.05,714.61 L286.65,714.07 L286.07,713.08 L285.26,712.62 L283.24,712.85 L283.08,712.77 L283.09,711.96 L283.32,710.52 L283.13,709.93 L282.09,707.79 L282.11,707.37 L283.56,706.38 L282.86,706.31 L282.29,706.7 L282.07,706.45 L281.73,705.07 L281.51,704.56 L281.4,704.45 L281.34,705.76 L281.58,706.45 L281.62,706.85 L281.58,707.41 L281.43,707.81 L281.17,708.05 L280.91,708.11 L280.42,707.83 L279.88,707.31 L279.41,707.06 L279.23,706.85 L279.01,706.27 L278.64,705.83 L276.87,705.27 L275.81,704.61 L275.72,704.78 L276.05,705.48 L276.08,705.89 L275.81,706.02 L275.33,706.68 L275.47,706.77 L275.97,706.55 L276.53,706.58 L277.46,706.99 L278.3,707.52 L278.61,707.82 L278.74,708.26 L278.85,708.42 L279.67,708.93 L279.71,709.2 L279.18,710 L280.28,709.91 L280.92,710.19 L281.73,711.42 L282.01,712.1 L282.05,712.98 L281.88,713.23 L281.56,713.41 L279.34,713.69 L278.54,714.74 L278.38,714.76 L277.77,714.48 L276.66,713.64 L275.28,712.84 L272.12,710.47 L272.03,710.36 L271.98,709.9 L271.76,709.67 L271.33,709.47 L270.73,708.87 L269.97,707.86 L269.5,707.07 L269.32,706.5 L268.88,705.85 L267.45,704.49 L266.7,703.97 L266.04,703.67 L265.47,703.61 L265.32,703.43 L265.58,703.13 L265.62,702.95 L264.35,702.67 L263.15,702.02 L260.1,700.21 L258.52,699.07 L257.6,698.52 L257.21,698.21 L257.04,697.96 L257.26,697.7 L257.88,697.43 L258.3,697.12 L258.96,695.96 L259.01,695.59 L258.66,694.74 L258.5,693.97 L258.51,693.54 L258.59,693.12 L258.69,692.84 L258.97,692.57 L259.17,692.43 L259.41,692.52 L260.19,693.58 L260.3,693.97 L260.26,695.42 L260.48,697.11 L260.55,696.99 L260.62,696.43 L260.67,695.36 L260.76,694.85 L260.93,694.35 L261.21,694.08 L262.08,694.24 L262.48,694.15 L260.78,693.38 L259.71,691.94 L259.52,691.79 L258.94,691.73 L258.32,692.31 L256.72,694.21 L256.28,694.54 L254.27,695.59 L252.91,695.8 L251.38,695.64 L250.08,695.3 L246.81,693.64 L246.3,693.25 L247.06,692.22 L247.09,691.9 L246.82,690.85 L246.6,690.55 L246.29,690.39 L246.2,690.51 L246.2,690.82 L246.28,691.4 L246.03,691.71 L245.47,692.04 L244.53,692.37 L241.63,691.52 L238.66,690.82 L236,690.67 L232.25,691.23 L230.25,691.79 L229.08,691.85 L227.96,691.75 L227.87,691.36 L228.38,691.13 L228.35,690.85 L227.7,689.96 L226.72,689.42 L225.4,689.23 L224.65,688.97 L224.46,688.64 L223.99,688.33 L223.25,688.03 L222.92,687.49 L223.18,685.81 L223.43,684.8 L223.68,684.11 L224.32,682.96 L224.1,683.04 L223.17,683.89 L222.36,684.76 L221.61,685.89 L221.16,686.41 L220.59,686.89 L219.7,686.78 L218.49,686.07 L217.45,685.71 L216.58,685.69 L216.24,685.57 L216.83,684.94 L217.17,684.43 L217.64,683.62 L217.74,683.22 L214.57,683.09 L214.45,682.66 L214.45,682.34 L214.35,682.08 L213.89,681.89 L213.25,682.04 L212.21,682.55 L211.76,682.16 L211.92,681.94 L212.26,681.78 L212.95,681.04 L212.02,680.66 L211.54,680.22 L211.31,679.86 L211.33,678.55 L211.58,677.71 L213.68,676.89 L213.02,676.57 L211.69,676.68 L210.8,677.37 L209.74,678.37 L209.03,678.74 L208.67,678.49 L208.19,678.4 L207.59,678.48 L207.19,678.74 L206.98,679.17 L206.74,679.46 L206.47,679.61 L206.28,679.56 L205.99,679.12 L205.39,678.84 L205.1,678.5 L204.93,678.72 L204.72,679.36 L204.5,679.68 L203.48,680.01 L202.92,679.95 L202.25,679.15 L202.15,678.87 L202.38,678.18 L203.85,675.42 L203.7,675.43 L203.22,675.87 L202.27,676.98 L201.85,677.31 L201.12,677.35 L200.78,677.23 L200.37,677.32 L199.89,677.62 L199.58,677.95 L199.43,678.3 L199.53,678.36 L200.26,677.96 L200.67,677.85 L200.78,678.05 L200.22,679.29 L199.88,680.47 L199.55,680.77 L199.03,680.72 L198.46,680.84 L198.45,681.17 L199.51,682.11 L199.89,682.24 L200.38,682.58 L200.46,682.91 L200.28,683.81 L200.14,684.16 L199.92,684.35 L199.06,684.32 L198.78,684.41 L198.2,684.97 L197.91,685.44 L198.01,685.48 L198.51,685.1 L199.24,684.89 L200.2,684.86 L200.92,684.66 L201.39,684.28 L201.85,684.39 L202.3,684.99 L202.43,685.51 L202.25,685.96 L201.88,686.28 L201.32,686.47 L200.97,686.76 L200.82,687.14 L200.74,687.7 L200.72,688.45 L200.86,689.79 L200.75,689.97 L200.54,690.07 L200.23,690.09 L199.95,690.4 L199.3,692.18 L199.07,692.37 L198.8,692.18 L198.56,692.2 L198.35,692.43 L197.89,692.61 L197.17,692.73 L196.56,692.68 L195.48,692.3 L195.04,692.03 L194.7,691.59 L193.73,692.06 L193.47,691.85 L192.87,690.62 L192.74,690.69 L192.62,692.02 L192.44,692.48 L191.84,693.44 L191.51,695.09 L191.41,695.14 L191.3,694.91 L190.93,693.44 L190.74,693.12 L190.2,693.97 L190.14,694.28 L190.28,695.37 L190.15,695.53 L189.06,694.94 L188.79,694.91 L188.72,695.01 L189.09,695.86 L189.05,696.17 L187.5,697.8 L187.1,697.74 L186.85,697.58 L186.57,697.61 L185.59,698.22 L185.32,698.19 L184.95,697.83 L184.78,697.85 L184.69,698.22 L184.68,698.95 L184.32,699.64 L183.15,700.76 L182.84,701.27 L182.61,701.97 L182.44,702.04 L181.75,701.59 L180.95,701.3 L180.84,701.45 L181.08,701.88 L181.03,702.14 L180.69,702.24 L180.25,702.2 L179.72,702.03 L178.98,702.23 L178.03,702.79 L177.24,702.77 L176.13,701.84 L175.82,701.77 L175.72,701.51 L175.94,700.76 L176.26,700.19 L176.49,699.93 L177.54,699.2 L178.74,698.93 L179.5,698.49 L180.42,697.58 L180.91,696.89 L181.87,695.12 L181.8,694.98 L181.59,694.88 L179.49,696.57 L179.18,696.73 L178.76,696.72 L177.08,696.08 L176.73,695.8 L176.49,694.99 L176.96,693.14 L177.29,692.24 L178.11,690.85 L179.18,689.37 L179.55,688.4 L180.11,685.81 L180.08,684.63 L179.83,683.18 L179.82,682.32 L180.05,682.05 L182.51,680.71 L183.68,679.7 L185.94,678.21 L186.56,678.22 L187.01,678.74 L187.54,679.15 L188.14,679.46 L188.91,679.43 L189.86,679.06 L191.36,679.2 L194.44,680.18 L195.09,680.24 L195.12,680.12 L194.65,679.43 L192.53,679.03 L191.64,678.63 L189.13,676.87 L188.56,676.19 L188.79,675.87 L189.4,675.61 L189.61,675.36 L189.7,674.92 L190.05,674.31 L190.67,673.53 L191.61,672.78 L193.4,671.66 L192.7,671.61 L191.42,671.82 L190.95,672.03 L190.09,672.83 L189.76,673.39 L189,674.11 L188.8,674.32 L187.91,674.48 L185.48,674.59 L185.07,674.03 L184.84,673.94 L184.54,674.02 L182.31,675.45 L181.51,676.18 L180.94,677.01 L180.06,677.62 L178.87,678 L177.98,678.48 L177.04,679.43 L176.72,680.16 L176.7,680.5 L176.93,681.57 L176.7,681.77 L176.16,681.85 L175.29,682.56 L173.46,684.66 L173.22,685.42 L173.23,685.68 L173.53,686.27 L173.32,686.65 L172.8,687.25 L171.65,688.21 L170.89,688.57 L170.4,688.59 L169.93,688.45 L169.09,687.84 L168.41,687.8 L168.37,687.89 L169.3,688.55 L170.24,689.4 L170.83,690.1 L171.06,690.66 L171.07,691.23 L170.86,691.82 L170.2,692.84 L169.55,693.14 L167.88,693.45 L167.34,693.69 L167.17,693.88 L168.31,694.31 L168.41,694.53 L168.25,695.38 L167.95,695.66 L167,696.17 L166.15,696.32 L166.02,696.22 L166.18,695.56 L166.13,695.4 L165.81,695.26 L165.35,695.52 L164.21,696.5 L164.09,696.66 L164.5,696.92 L164.42,697.14 L163.8,697.84 L163.54,698.31 L163.13,698.79 L161.3,700.24 L161.44,700.59 L160.96,701.85 L160.7,702.95 L161.02,703.42 L162.56,703.96 L163.31,704.09 L164.19,704.47 L165.78,705.49 L166.31,706.16 L166.39,706.47 L166.34,706.81 L166.15,707.27 L165.65,708.14 L164.45,709.43 L163.91,709.8 L163.09,710.08 L162.82,710.29 L161.76,711.5 L161.48,712.15 L161.53,712.72 L161.33,713.12 L159.97,713.9 L160.02,714.04 L160.51,714.1 L160.33,714.79 L160.25,715.74 L160.01,715.9 L159.16,715.89 L158.08,716.26 L158,716.36 L157.98,717.04 L155.16,717.54 L154.54,718.83 L154.22,719.23 L153.11,720.17 L152.43,720.55 L151.66,720.78 L151.25,721.1 L151.21,721.51 L150.99,721.86 L150.32,722.44 L149.99,723.17 L149.75,723.28 L148.5,723.46 L148.25,723.69 L148.13,724.67 L147.9,724.7 L147.46,724.47 L146.88,724.65 L145.59,725.76 L145.31,726.16 L145.34,726.37 L145.54,726.58 L145.85,727.24 L145.83,727.68 L145.33,728.91 L145.16,729.1 L144.55,729.4 L144.3,730.08 L143.74,730.01 L143.29,730.14 L143,730.59 L142.68,730.85 L142.33,730.92 L141.89,731.28 L141.37,731.92 L140.89,732.33 L140.44,732.51 L140.01,732.55 L139.59,732.46 L139.21,732.54 L138.87,732.78 L138.54,733.15 L138.28,734.2 L137.95,734.67 L137.74,734.75 L137.31,734.68 L136.66,734.46 L136,734.54 L134.94,735.18 L134.6,735.67 L135.27,735.78 L135.6,735.92 L135.59,736.06 L135.24,736.19 L134.65,736.18 L134.29,736.29 L133.86,736.57 L132.77,736.87 L132.36,737.08 L131.54,738.29 L131.44,738.56 L131.55,738.62 L132.01,738.49 L132.55,738.69 L132.83,738.94 L133.01,739.26 L133.18,739.86 L133.29,739.95 L132.25,740.96 L131.95,741.39 L131.76,741.55 L131.64,741.43 L131.51,740.3 L131.43,740.11 L131.19,740.09 L130.95,740.45 L130.43,741.79 L129.86,742.46 L125.58,744.18 L124.95,744.57 L124.83,745.3 L124.65,745.93 L124.37,746.43 L124.04,746.75 L123.97,746.52 L124,744.74 L123.91,744.39 L123.48,744.16 L123.29,744.19 L123.03,744.29 L122.6,744.68 L122.34,744.78 L122.01,744.75 L121.45,745.13 L120.12,746.34 L119.25,746.64 L119.02,746.89 L118.65,747.55 L118.41,747.79 L118.05,747.81 L117.57,747.61 L117.18,747.75 L116.89,748.23 L116.59,748.42 L115.75,748.07 L115.38,748.31 L114.9,748.93 L114.4,749.34 L113.88,749.54 L112.52,749.75 L111.97,749.62 L111.86,749.44 L111.89,748.65 L112.11,748.08 L112.31,747.81 L112.58,747.57 L112.98,747.55 L113.72,747.73 L113.64,747.54 L113.37,747.31 L112.69,746.92 L112.01,746.72 L111.62,746.85 L111.07,747.15 L110.7,747.5 L110.5,747.89 L110.25,749.18 L110.11,749.53 L108.51,751.79 L107.89,752.48 L107.27,752.43 L106.97,752.69 L106.55,753.25 L106.16,753.52 L105.8,753.5 L105.52,753.39 L105.32,753.2 L105.36,753.02 L105.63,752.86 L105.53,752.41 L105.07,751.67 L104.76,751.27 L104.17,751.23 L104.08,751.57 L104.28,753.28 L104.25,753.66 L103.88,754.15 L102.91,754.69 L102.61,754.64 L101.74,753.57 L100.91,753.36 L100.86,753.71 L101.04,754.42 L100.83,755.09 L100.23,755.71 L99.78,756.01 L99.47,755.99 L99.45,755.56 L99.73,754.71 L99.8,754 L99.66,753.43 L99.68,753 L99.85,752.7 L100.95,751.86 L101.41,751.73 L101.66,751.94 L101.97,751.98 L102.34,751.84 L102.57,751.57 L102.67,751.17 L103.14,750.65 L103.99,750.02 L104.96,748.85 L106.06,747.14 L107.35,745.67 L108.83,744.43 L110.43,743.45 L113.65,742.09 L113.9,742.17 L113.61,742.61 L113.81,742.89 L114.13,742.93 L115.31,742.71 L115.78,742.42 L115.92,742.7 L115.76,743.05 L115.05,743.4 L115.07,743.69 L116.1,745.06 L116.42,745.27 L116.69,745.25 L116.8,745.07 L116.72,744.08 L117.07,743.89 L117.78,743.84 L118.24,743.97 L118.46,744.28 L118.87,744.53 L119.47,744.73 L119.84,744.67 L119.98,744.35 L119.72,743.97 L118.57,743.13 L118.25,742.78 L118.17,742.29 L118.33,741.66 L118.69,740.72 L119.25,739.47 L119.75,738.6 L120.77,737.61 L121.46,737.12 L123.21,735.61 L126.57,734.07 L127.4,733.08 L128.53,731.98 L129.01,731.71 L129.01,732.13 L129.17,732.51 L129.92,732.76 L130.41,732.85 L130.64,732.77 L130.7,732.37 L130.6,731.64 L130.57,730.95 L130.62,730.3 L130.73,729.78 L131.23,728.86 L131.98,727.81 L133,726.59 L133.65,726.03 L134.26,725.74 L134.85,725.21 L135.86,723.94 L136.18,723.73 L136.91,723.48 L137.18,723.59 L137.34,723.91 L137.53,724.11 L138.27,724.29 L138.76,724.01 L138.68,723.86 L138.28,723.77 L138.03,723.59 L137.79,722.83 L137.3,722.37 L137.19,721.85 L137.28,721.05 L137.7,719.15 L137.77,717.19 L138.14,716.07 L138.89,715.66 L140.56,715.38 L139.59,714.87 L139.23,714.87 L138.6,714.63 L138.36,713.4 L138.37,712.5 L138.79,711.46 L140.34,709.7 L142.04,708.47 L141.81,708.37 L141.6,708.01 L142.39,705.54 L143.16,703.33 L142.13,705.22 L140.94,706.66 L137.44,708.33 L135.06,709.72 L133.93,710.05 L133.18,709.7 L132.6,708.36 L132.27,707.89 L131.84,707.02 L132.02,705.88 L132.36,705.09 L133.1,704.96 L133.94,705.34 L134.67,705.37 L133.73,704.59 L132.38,703.91 L131.77,704.13 L131.3,705.23 L130.67,705.99 L130.12,705.72 L129.79,705.41 L130.02,706.33 L129.6,707.73 L129.44,708.7 L130.04,711.25 L129.93,712.26 L128.85,712.73 L127.97,711.9 L126.13,708.68 L125.49,707.76 L124.05,706.23 L123.57,706.45 L122.96,707.21 L122.37,707.42 L120.82,706.31 L120.1,705.46 L119.42,704.43 L118.37,705 L117.46,705.68 L116.39,706.76 L115.67,706.75 L113.72,707.67 L113.51,707.69 L113.24,708.19 L112.97,708.41 L112.75,709.36 L110.11,710.1 L107.51,709.69 L108.42,709.17 L109.44,708.76 L110.32,707.77 L109.95,706.44 L109.89,705.76 L109.9,704.9 L110.87,703.69 L109.87,703.69 L109.23,704.12 L108.63,703.21 L108.35,701.41 L109.04,700.34 L109.36,699.52 L109.63,698.39 L109.65,697.41 L109.12,695.75 L107.59,692.22 L106.89,689.57 L105.69,688.15 L106.58,685.82 L107.58,683.68 L108.87,682.72 L108.77,682.58 L108.06,682.59 L107.59,682.72 L107.18,683.42 L106.75,683.95 L105.39,686.67 L104.51,687.99 L103.94,688.37 L104.86,688.88 L105,689.31 L105.18,690.29 L104.95,691.47 L104.72,692.12 L103.64,692.07 L102.67,693.02 L100.39,694.05 L97.31,694.63 L95.8,694.56 L94.22,693.36 L94.23,692.67 L94.29,692.07 L92.02,689.99 L90.74,687.91 L89.82,687.87 L89.02,687.31 L88.08,686.45 L88.16,685.75 L88.31,685.26 L87.73,684.92 L86.99,684.95 L86.13,684.71 L88.39,682 L89.17,680.18 L89.8,679.92 L90.62,680.2 L91.75,680.92 L92.71,681.24 L93.06,681.58 L93.41,682.22 L93.04,683.28 L92.7,684.03 L93.12,683.83 L94.31,682.67 L95.19,681.65 L95.61,681.76 L95.89,681.94 L96.38,682.99 L96.99,684.06 L98.34,683.04 L99.06,681.77 L98.45,681.21 L97.71,680.88 L95.82,680.45 L96.28,680.09 L97.5,680.13 L97.96,679.78 L97.48,679.3 L96.88,678.87 L95.24,680.31 L92.25,680.24 L90.16,679.4 L88.08,679.55 L87.75,679.38 L87.35,678.93 L88.52,677.86 L89.35,677.26 L89.39,676.92 L88.91,676.88 L88,677.16 L87.6,676.67 L87.67,675.81 L87.52,675.89 L87.16,676.36 L86.65,676.13 L86.21,675.74 L86.44,675.33 L86.89,674.76 L86.69,674.68 L86.29,674.8 L85.9,675.55 L85.98,676.15 L85.97,677.01 L85.3,677.17 L84.73,677.07 L84.32,676.2 L83.89,674.33 L82.74,673.83 L82.46,672.88 L83.19,671.66 L82.87,671.03 L82.09,670.83 L81.2,671.45 L80.81,670.9 L80.74,670.3 L80.71,669.43 L80.96,669.34 L81.17,669.51 L82.95,669.03 L83.12,668.8 L81.71,668.07 L81.32,667.3 L81.91,666.86 L82.96,666.82 L84.44,666.36 L83.82,665.54 L83.69,665.09 L83.57,664.35 L83.82,663.09 L85.56,660.18 L87.25,657.74 L87.78,657.17 L88.56,656.86 L89.28,657.1 L90.03,657.62 L90.17,657.4 L89.92,657.18 L89.6,656.18 L90.65,655.78 L91.26,654.64 L91.31,654.31 L90.64,654.79 L89.95,655.57 L89.78,654.79 L89.6,652.98 L89.91,651.26 L90.15,650.49 L90.73,649.76 L92.4,649.47 L92.69,649.62 L92.75,649.27 L91.75,648.18 L92.16,647.33 L92.52,646.89 L94.54,646.2 L95.64,646.42 L97.02,647.23 L97.82,648.23 L97.7,648.75 L97.5,649.05 L97.08,649.38 L96.93,649.64 L97.01,649.85 L97.6,649.26 L98.57,648.53 L99.11,648.85 L99.54,649.42 L100.01,649.41 L101.52,648.92 L102.29,648.4 L103.23,647.05 L104.48,646.17 L106.23,643.39 L106.75,642.24 L107.35,642.06 L107.89,642.16 L108.27,643.1 L108.82,643.38 L111.95,643.15 L113.55,642.72 L114.66,641.81 L115.82,640.27 L116.49,639.23 L116.81,637.88 L116.4,636.12 L115.98,634.66 L115.42,631.29 L113.87,629.05 L112.76,628.38 L112.06,628.48 L112.57,627.04 L114.05,627.2 L115.02,626.92 L115.8,626.23 L116.06,625.7 L116.45,624.62 L116.32,623.47 L116.11,622.85 L115.57,622.16 L114.93,621.15 L114.48,620.81 L114.1,620.83 L112.23,622.86 L111.11,622.9 L110.27,622.53 L109.54,623.68 L107.51,624.69 L106.42,625.71 L104.41,628.23 L103.91,629.36 L103.27,629.41 L102.81,627.21 L100.62,625.1 L99.96,625.82 L100.33,626.48 L100.83,626.95 L101.65,627.16 L101.3,627.8 L101.03,628.65 L100.21,627.86 L98.75,626.7 L97.23,626.1 L93.28,626.17 L90.69,627.36 L90.45,627.12 L90.2,627.02 L89.77,627.3 L89.59,627.78 L89.31,628.08 L88.78,628.19 L87.71,628.01 L85.65,627.27 L80.99,626.18 L79.77,625.51 L78.73,623.91 L78.75,622.82 L79.21,622.36 L79.17,620.8 L78.26,620.38 L76.41,618.12 L75.73,617.15 L75.88,617.04 L76.21,617.3 L76.84,617.5 L78.39,617.19 L78.92,615.71 L80.07,615.29 L81.13,615.5 L80.89,615.1 L80.62,614.79 L77.87,614.04 L77.5,614.27 L72.56,612.93 L68.66,610.58 L68.34,610.13 L67.98,609.12 L68.51,608.13 L69.04,607.66 L69.06,608.21 L69.14,608.75 L71.38,607.5 L72.55,605.85 L74.76,605.56 L75.28,605.1 L75.97,604.21 L76.95,602.69 L78.34,601.89 L79.29,601.17 L80.52,600.74 L81.57,601.45 L81.89,601.55 L83.8,601.7 L84.43,601.39 L84.7,601.16 L84.9,600.8 L83.03,599.51 L83.22,598.79 L83.46,598.28 L85.65,596.77 L87.33,596.27 L88.23,596.31 L90.84,594.35 L92.27,593.79 L94.96,593.41 L97.17,593.32 L97.77,594.02 L96.58,593.87 L96.06,594 L96.43,594.24 L96.85,594.75 L96.73,595.4 L96,597.31 L96.06,598.83 L95.58,599.32 L95.12,600.01 L97.38,602.19 L100.88,602.33 L102.79,601.94 L103.89,602.59 L104.79,602.74 L107.28,602.41 L109.16,602.87 L109.94,602.69 L111.68,599.44 L112.36,598.93 L113.1,599.5 L114.06,599.96 L114.67,599.63 L115.17,600.47 L114.93,598.71 L114.59,598.05 L111.75,596.84 L109.85,597.44 L109.26,596.76 L109.46,595.4 L107.43,592.04 L106.58,591.35 L105.58,591.32 L105.07,590.14 L104.64,588.62 L105.5,588 L106.28,587.72 L107,588.21 L107.82,590.21 L108.58,590.5 L108.36,592.47 L109.3,594.28 L111.43,595.96 L113.14,595.34 L114.35,595.36 L115.07,595.71 L116.83,597.21 L117.73,597.4 L120.53,596.61 L120.56,595.13 L120.33,594.06 L119.67,593.39 L117.78,593.52 L116.31,592.41 L115.06,592.72 L112.74,594.42 L111.58,593.75 L110.85,592.84 L109.67,591.92 L109.52,590.17 L110.51,588.15 L111.24,587.19 L110.59,586.49 L108.95,585.99 L106.1,586.5 L105.97,585.81 L105.99,585.06 L104.83,586.53 L103.64,586.22 L102.03,586.38 L98.48,585.09 L97.22,583.49 L96.69,582.19 L95.73,578.6 L94.51,576.34 L86.08,568.57 L82.24,566.59 L80.39,564.39 L79.23,563.85 L78.12,563.63 L76.7,562.92 L77.65,562.04 L78.31,561.74 L77.63,562.66 L78.15,562.89 L78.98,562.36 L79.42,561.73 L80.07,559.03 L80.75,554.91 L80.57,553.28 L85.25,553.61 L88.36,553.33 L89.39,552.96 L93.32,552.33 L94.34,551.87 L96.23,550.46 L98.45,547.96 L100.36,544.66 L100.66,543.76 L100.78,543.99 L100.95,543.85 L101.15,542.59 L101.4,539.6 L102.35,536.76 L106.37,530.22 L108.24,527.6 L108.86,526.4 L109.51,525.52 L109.97,526.35 L110.19,526.6 L110.32,526.99 L109.94,527.17 L109.32,528.02 L108.45,528.59 L108.24,528.88 L108.75,528.82 L110.28,528.2 L111.14,527.45 L115.44,526.06 L117.77,523.75 L117.86,523.23 L121.32,520.33 L121.8,520.44 L122.35,520.79 L121.39,522.7 L122.06,523.2 L121.46,525.47 L122.71,525.51 L122.99,526.56 L123.06,525.66 L123.05,524.37 L123.15,523.1 L123.34,522.22 L124.22,522.62 L126.2,521.67 L123.8,521.55 L122.36,519.47 L121.56,519.45 L124.24,516.38 L126.69,514.51 L127.24,514.55 L127.51,514.9 L127.57,515.46 L127.04,515.83 L126.52,516.49 L126.76,517.07 L127.12,517.15 L128.3,516.67 L128.83,516.07 L131.34,516.12 L132.08,515.69 L132.26,515.27 L135.51,515.18 L136.11,514.88 L138.14,513.22 L140.02,511.2 L140.89,510.1 L142.37,507.27 L143.64,505.42 L145.74,503.57 L146.24,503.8 L145.56,504.17 L145.09,504.96 L145.74,506 L150.15,508.14 L151.26,508.26 L151.7,509.54 L151.33,510.77 L150.2,512.13 L147.91,513.52 L148.61,514.04 L149.07,515.27 L149.75,515.42 L150.85,514.96 L151.71,514.21 L153.49,511.74 L154.05,510.36 L154.47,510.01 L155.96,510.35 L156.81,511.06 L157.77,512.32 L157.42,513.54 L157.03,514.22 L158.28,515.16 L159.66,515.36 L160.98,516.12 L162.83,514.57 L164.28,514.24 L165.64,514.29 L167.41,513.44 L170.41,514.59 L171.17,514.29 L172.37,514.49 L173.65,515.19 L174.1,515.93 L172.73,517.5 L172.51,519.11 L172.99,519.78 L173.86,519.9 L173.97,520.84 L174.51,521.07 L177.21,521 L177,521.44 L176.87,521.98 L176.03,523.17 L180.85,523.83 L181.5,523.18 L182.5,522.92 L184.62,522.02 L185.42,522.42 L186.36,523.34 L187.23,523.53 L188.04,523.34 L189.93,522.02 L192.11,521.96 L193,522.39 L193.94,522.2 L196.78,523.71 L197.83,523.89 L199.23,525.85 L199.95,525.91 L200.77,525.08 L201.48,525.11 L202.17,525.9 L203.3,526.14 L203.83,527.39 L204.4,527.84 L208.7,528.77 L210.83,528.35 L213.93,528.46 L215.43,529.05 L217,528.98 L219.56,531.12 L220.92,531.46 L221.18,531.95 L225.05,532.47 L226.4,531.36 L228.76,531.07 L230.89,530.13 L232.09,530.14 L233.49,530.37 L234.03,530.26 L234.42,529.85 L237.84,531.47 L239.75,533.31 L240.59,534.66 L244.59,536.59 L245.75,537.67 L246.54,538.85 L247,538.98 L247.33,538.64 L248.73,538.74 L248.81,538.35 Z M80.89,599.37 L80.63,599.46 L80.64,599.21 L81.4,598.54 L82.81,597.7 L82.76,597.88 L82.01,598.53 L80.89,599.37 Z M45.08,640.2 L45.18,640.57 L45.88,640.51 L46.86,640.67 L47.94,641.02 L49.01,640.9 L50.36,639.77 L51.17,639.47 L51.98,639.32 L52.86,639.6 L53.72,640.2 L54.05,640.55 L54.31,641.16 L54.49,641.9 L54.75,642.43 L56.35,643.08 L57.37,643.34 L57.62,643.7 L57.84,644.19 L58.69,644.56 L59.58,644.42 L60.07,644.55 L61.58,644.57 L63.45,645.12 L63.15,646.56 L62.54,647.19 L60.82,646.99 L59.11,647.19 L58.4,647.93 L57.81,648.86 L57.73,649.77 L57.39,650.19 L57.03,650.37 L56.74,649.87 L56.35,648.34 L56.08,647.92 L55.78,647.65 L54.94,647.17 L54.09,646.86 L53.59,646.82 L53.23,646.29 L53.03,645.52 L52.69,645.12 L52.02,644.55 L51.33,644.1 L49.18,643.13 L48.47,643 L47.75,643.1 L46.98,643.54 L46.24,644.2 L45.48,644.69 L44.69,644.8 L43.94,644.51 L43.23,643.87 L42.88,643.41 L42.69,642.63 L42.7,641.84 L42.8,641.08 L43.18,639.24 L43.85,638.88 L45.08,640.2 Z M202.47,680.57 L201.62,680.68 L201.23,680.51 L201.18,680.32 L201.34,679.63 L201.33,679.34 L201.76,679.23 L202.25,679.56 L202.39,679.9 L202.47,680.57 Z M36.53,685.6 L37.98,686.49 L38.91,686.4 L39.65,687.14 L39.95,687.74 L38.85,687.31 L37.26,687.34 L35.1,685.53 L34.33,685.12 L34.51,684.1 L35.34,683.58 L35.77,684.96 L36.53,685.6 Z M175.12,686.89 L174.8,686.94 L175.23,686.27 L175.53,684.97 L175.93,685.15 L176.01,685.39 L175.34,686.73 L175.12,686.89 Z M204.3,685.69 L204.3,686.05 L204.09,686.39 L204.29,687.02 L203.94,688.1 L203.81,688.78 L203.62,689.21 L203.43,689.37 L203.24,689.27 L203.2,689.03 L203.31,688.66 L202.87,688.67 L202.74,687.73 L202.98,687.43 L203.07,687.03 L203.1,686.76 L203.39,685.56 L203.49,685.48 L203.52,685.76 L203.62,685.84 L203.77,685.72 L204,685.19 L204.1,685.13 L204.3,685.69 Z M212.75,685.7 L212.9,686.07 L214.19,685.98 L214.56,686.05 L214.71,686.22 L214.54,686.47 L214.04,686.8 L212.59,687.38 L211.41,688.14 L211.26,688.07 L211.05,687.24 L210.83,686.9 L210.7,686.43 L210.7,686.26 L210.92,685.93 L211.35,685.46 L211.66,685.29 L212.75,685.7 Z M221.28,687.22 L221.07,687.55 L220.49,687.43 L220.18,687.22 L221.22,686.35 L221.39,686.53 L221.28,687.22 Z M80.72,686.6 L81.33,687.27 L81.66,687.31 L82.69,687.11 L83.07,687.25 L83.44,687.54 L83.67,687.98 L83.71,688.75 L83.54,689.44 L83.59,690.41 L83.55,690.83 L84.1,691.38 L84.27,692.12 L84.36,692.92 L83.17,693.19 L81.98,693.23 L80.96,693.77 L80.75,694.17 L80.92,694.76 L80.64,694.91 L80.38,694.78 L79.88,694.23 L79.34,693.97 L77.44,693.57 L75.05,691.98 L74.02,691.65 L72.98,690.48 L72.04,688.99 L72.66,688.75 L73.28,688.63 L76.06,688.85 L76.41,687.78 L76.77,687.51 L77.65,687.21 L78.48,686.62 L78.85,686.64 L79.23,686.87 L80.01,686.51 L80.43,686.43 L80.72,686.6 Z M203.78,694.23 L203.04,694.42 L202.87,694.03 L203.26,693.05 L203.57,692.49 L203.8,692.36 L204.65,691.25 L205.59,690.44 L206.45,689.25 L207.33,687.56 L207.49,686.93 L207.9,686.87 L208.57,687.29 L208.98,687.87 L208.79,688.34 L206.57,690.74 L206.38,691.05 L206.18,691.86 L206,692.14 L205.71,692.27 L205.5,692.62 L205.37,693.2 L205.1,693.5 L204.69,693.53 L204.4,693.69 L204.24,693.98 L203.78,694.23 Z M201.87,690.87 L201.52,691.28 L200.2,691.03 L200.48,690.22 L201.49,689.71 L202.6,690.51 L201.87,690.87 Z M224.98,694.17 L224.66,694.25 L225.14,693.38 L225.79,692.41 L226.4,691.8 L227.19,691.55 L227.1,691.99 L226.07,692.8 L224.98,694.17 Z M115.61,710.35 L115.12,710.55 L114.6,710.45 L114.19,709.18 L114.5,709.14 L115.16,708.3 L116.62,707.62 L116.98,707.54 L115.61,710.35 Z M172.01,711.53 L171.81,711.61 L171.32,711.22 L171,710.81 L171.21,710.49 L172.16,709.82 L172.61,709.81 L172.79,709.92 L172.87,710.13 L172.83,710.44 L172.63,710.82 L172.01,711.53 Z M172.47,713.12 L172.71,713.22 L172.96,712.46 L173.14,712.44 L173.93,713.08 L174.42,712.94 L174.73,713.73 L175.01,713.8 L175.27,713.7 L175.43,713.76 L175.38,714.59 L174.8,715.43 L174.53,715.64 L174.15,715.42 L174.01,715.34 L173.76,714.97 L173.57,714.5 L173.46,714.49 L173.02,715.05 L173.03,715.32 L173.21,715.73 L173.18,715.99 L172.7,716.11 L172.23,716.05 L171.66,716.41 L171.52,716.19 L171.43,715.56 L171.25,715.63 L170.98,716.4 L170.68,716.89 L170.14,717.29 L170.02,717.48 L169.62,717.51 L169.03,717.76 L168.67,717.72 L166.51,716.89 L166,716.59 L167.78,714.67 L168.72,713.93 L169.26,713.97 L169.8,714.2 L170.08,714.16 L170.1,713.31 L169.6,712.67 L169.62,712.4 L170.73,711.96 L171.15,712.02 L171.61,712.24 L172.05,712.6 L172.47,713.12 Z M291.1,715.64 L292.8,715.93 L294.05,715.87 L295.19,717.76 L295.89,719.28 L296.3,720.34 L296.53,721.36 L296.84,722.34 L296.81,722.48 L296.15,721.82 L295.68,720.47 L295.44,719.94 L295.2,719.7 L294.95,719.2 L294.46,717.91 L294.44,717.54 L294.22,717.2 L293.97,717.06 L293.69,717.12 L293.59,717.25 L293.63,718.14 L293.86,719.13 L295.09,721.29 L295.91,722.51 L296.07,722.92 L296.18,724.04 L295.83,724.54 L296.27,725.56 L296.25,725.76 L296.16,725.96 L294.99,726.41 L293.92,728.3 L292.75,729.4 L292.21,729.58 L291.95,729.4 L291.7,728.98 L291.55,728.42 L291.51,727.71 L291.8,727.26 L292.38,724.93 L292.4,724.16 L291.68,723.09 L291.25,722.21 L291.01,720.99 L290.62,717.74 L290.44,716.7 L290.18,715.83 L289.85,715.13 L289.6,714.36 L289.43,713.52 L289.5,713.19 L290.08,713.63 L290.77,714.84 L291.1,715.64 Z M293.56,714.79 L293.51,715.1 L292.6,715.07 L291.68,714.61 L291.22,714 L291.31,713.73 L292.17,713.47 L292.98,714.05 L293.56,714.79 Z M284.07,714.59 L285.03,715.83 L285.04,716.11 L284.85,716.96 L284.33,717.2 L284.48,717.54 L284.87,717.79 L285.15,717.58 L286.16,716.4 L286.47,716.15 L286.66,716.13 L287.89,716.49 L288.97,717.05 L289.29,717.5 L289.47,718.29 L289.19,719.99 L288.31,720.29 L287.9,720.26 L287.46,720.01 L286.74,720.6 L287.34,721.05 L289.15,721.15 L289.7,722.1 L289.86,722.83 L289.47,724.17 L288.44,723.8 L287.54,723.02 L285.68,721.92 L285.24,721.87 L284.94,722.07 L284.86,722.74 L284.88,724.19 L284.38,724.94 L282.92,724.61 L282.35,723.51 L281.82,721.77 L279.8,719.7 L279.25,719.28 L278.52,718.03 L278.81,717.04 L278.89,716.47 L279.28,716.32 L279.85,715.88 L280.17,714.92 L280.68,715.7 L281.36,716.45 L281.37,715.75 L281.69,715.19 L282.36,715.21 L282.67,715.09 L283.11,714.57 L283.74,714.3 L284.07,714.59 Z M169.25,719.9 L169.3,720.59 L169.57,720.51 L170.6,719.8 L171.14,719.59 L171.84,719.56 L172.39,719.88 L172.5,720.13 L172.45,720.43 L172.01,721.03 L172.03,721.42 L172.51,722.13 L173.68,722.52 L173.82,722.74 L173.81,723 L173.01,724.18 L172.71,724.45 L172.5,724.51 L171.04,724.3 L169.7,723.91 L169.16,723.85 L168.97,723.97 L168.59,724.33 L168.86,724.44 L170.03,724.53 L170.44,725.06 L170.62,725.45 L170.71,725.88 L170.48,726.06 L169.98,726.19 L169.38,726.19 L168.64,726.67 L168.23,727.22 L166.74,727.36 L165.61,728.09 L165.21,728.45 L165.07,728.88 L164.64,729.19 L163.68,729.5 L164.25,729.78 L164.34,730.01 L164.35,730.34 L164.27,730.62 L163.51,731.87 L162.07,732.9 L161.71,732.85 L161.55,732.72 L161.42,732.52 L161.42,732.33 L163.28,730.27 L163.21,730.17 L162.7,730.1 L161.9,729.53 L161.34,729.9 L161.21,729.89 L161.36,729.4 L161.73,728.82 L161.67,728.66 L161.47,728.51 L161.01,728.42 L160.28,728.39 L159.74,728.53 L159.39,728.83 L159.36,728.96 L160.11,728.92 L160.31,729.08 L160.51,729.37 L160.63,729.71 L160.67,730.09 L160.51,730.6 L160.15,731.24 L159.63,731.13 L158.56,729.71 L158.09,727.63 L157.18,726.03 L157.14,725.65 L157.4,724.66 L158.32,723.25 L159.31,722.86 L160.02,722.27 L160.7,722.09 L161.12,722.11 L161.7,722.37 L161.93,722.91 L161.79,723.16 L161.84,723.29 L162.24,723.62 L162.68,724.75 L163.19,725.75 L163.53,726.16 L163.98,726.41 L163.52,725.65 L163.25,724.7 L163.11,722.81 L162.98,722.31 L163.24,722.17 L163.97,722.25 L163.95,721.97 L163.18,721.33 L162.7,720.8 L162.52,720.38 L162.53,720.01 L162.95,719.47 L163.19,719.32 L163.44,719.25 L163.93,719.37 L164.15,719.54 L164.78,720.75 L165.08,721.13 L165.32,721.13 L165.55,720.93 L165.76,720.53 L165.98,720.29 L166.2,720.21 L166.9,720.39 L167.13,720.33 L167.25,720.02 L167.25,719.48 L167.42,719.28 L167.46,718.88 L167.08,718.29 L167.52,718.11 L168.97,718.56 L169.59,719.05 L169.25,719.9 Z M166.96,719.57 L166.77,719.92 L166.59,719.83 L166.22,719.42 L165.46,718.83 L165.11,718.42 L165.09,718.25 L165.35,718.06 L166.25,718.54 L166.63,718.98 L166.96,719.57 Z M289.16,725.78 L289.73,727.14 L290.14,728.19 L290.51,729.45 L291.12,732.04 L291.4,733.02 L291.49,733.55 L291.56,734.95 L291.47,735.25 L291.29,735.53 L291.25,735.93 L291.42,736.99 L291.43,738.59 L291.27,739.49 L291.08,739.63 L290.62,739.34 L290.24,738.85 L289.96,738.34 L289.28,736.73 L289.08,735.98 L289.07,735.44 L289.17,735.05 L289.39,734.81 L289.78,734.15 L289.73,734.05 L289.44,734.2 L288.84,734.28 L288.31,733.76 L287.9,733.48 L287.98,732.54 L287.87,732.28 L287.06,732.57 L286.75,732.31 L286.68,731.96 L286.69,731.43 L286.85,730.97 L287.62,729.8 L287.54,729.58 L287.17,729.53 L286.68,729.13 L286.45,727.82 L285.92,727.07 L285.61,727.14 L284.89,729.26 L284.54,729.72 L283.53,730.02 L283.74,729.43 L283.83,728.91 L283.47,727.31 L283.46,726.7 L283.7,726.24 L284.41,726.05 L284.79,725.78 L285.08,725.34 L285.16,724.91 L285.71,723.77 L285.97,723.55 L286.66,723.57 L288.1,724.83 L288.54,725.02 L289.16,725.78 Z M53.8,727.85 L53.11,728.43 L52.48,728.22 L52.29,727.8 L52.29,727.62 L54.1,727.14 L53.8,727.85 Z M168.52,728.57 L167.67,728.97 L167.52,728.95 L166.99,729.75 L166.59,730.1 L166.06,729.47 L166.2,728.49 L166.66,727.84 L169,728.06 L169.18,728.25 L169.19,728.41 L169.02,728.54 L168.52,728.57 Z M299.88,730.06 L300.32,730.44 L300.56,730.04 L301.01,730.06 L301.85,730.42 L302.35,730.96 L302.63,731.57 L302.65,731.94 L302.57,732.77 L302.63,733.62 L302.59,734.06 L302.48,734.42 L302.29,734.7 L302.08,734.74 L301.43,733.98 L300.68,732.61 L300.11,732.19 L300.09,732.33 L300.25,732.72 L300.71,733.46 L300.79,733.9 L301.12,734.44 L301.27,734.85 L301.35,735.39 L301.35,735.86 L301.26,736.26 L301.11,736.52 L300.9,736.63 L299.76,736.52 L299.08,736.79 L298.29,736.64 L298.1,736.4 L297.98,736 L297.92,735.04 L297.72,733.66 L297.77,732.59 L297.26,731.62 L296.82,731.04 L296.19,730.52 L295.77,730 L295.88,729.59 L296.53,729.28 L297.59,729.35 L299.88,730.06 Z M295.71,732 L296.14,732.84 L296.77,732.77 L297.12,733.41 L297.39,734.36 L297.2,734.97 L296.92,734.83 L296.61,735.18 L296.42,736.35 L296.51,737.52 L296.42,738.68 L296.06,739.86 L295.99,740.65 L295.85,740.89 L295.7,740.97 L295.5,740.76 L295.21,740.59 L294.84,741.26 L294.39,741.27 L294.02,739.76 L294.35,737.23 L295.09,736.71 L294.65,736.02 L293.72,735.22 L293.8,734.77 L293.09,733.47 L293.05,733.16 L293.16,732.07 L293.82,731.1 L294.7,730.93 L295.31,731.35 L295.65,731.71 L295.71,732 Z M304.03,735.88 L303.96,736.06 L303.11,736.04 L302.8,735.9 L302.69,735.38 L302.77,734.9 L302.97,734.53 L303.21,733.81 L303.4,732.61 L304.65,733.95 L305.03,734.54 L305.24,735.27 L304.8,735.54 L304.26,735.67 L304.03,735.88 Z M56.51,734.56 L57.39,734.8 L57.88,734.64 L58.31,734.77 L58.39,735.06 L57.64,735.69 L57.33,735.65 L56.44,734.9 L56.51,734.56 Z M160.49,736.01 L160.16,736.04 L159.66,735.72 L159.73,735.34 L160.44,734.88 L161.15,734.95 L161.2,735.21 L161.17,735.5 L161.11,735.67 L160.88,735.84 L160.49,736.01 Z M157.31,736.97 L156.85,737.26 L156.7,737.16 L156.68,736.92 L156.79,736.54 L157,736.17 L157.71,735.45 L158.42,734.97 L158.78,735 L158.9,735.3 L158.46,735.93 L157.31,736.97 Z M308.27,740.89 L308.13,742.87 L307.86,742.76 L307.61,742.76 L307.1,743.04 L306.56,742.92 L306.31,742.7 L306.22,742.45 L306.32,741.86 L306.02,741.53 L305.01,741.41 L304.63,741.27 L304.42,740.65 L304.37,739.83 L304.53,739.53 L305.04,739.31 L305.44,738.32 L305.66,738.19 L306.5,736.22 L306.92,736.36 L307.66,737.56 L308.59,739.29 L308.27,740.89 Z M303.81,739.24 L303.47,739.28 L303.07,739.1 L302.11,738.12 L302.09,737.83 L302.23,737.5 L302.78,736.9 L303,736.75 L304.31,736.81 L304.73,736.97 L304.82,737.25 L304.8,737.53 L304.66,737.82 L304.63,738.12 L304.71,738.43 L304.56,738.74 L303.81,739.24 Z M298.55,738.13 L299.82,738.39 L300.98,738.37 L301.38,738.87 L301.64,739.39 L301.79,739.88 L301.83,740.34 L301.8,740.66 L301.66,741.01 L301.69,741.13 L303.96,742.27 L305.03,743.46 L305.46,744.09 L305.71,744.62 L306.16,745.94 L307.11,747.46 L307.6,747.92 L307.88,748.37 L307.72,748.39 L307.06,748.06 L305.62,747.04 L305.5,747.08 L305.37,747.63 L305.15,748.11 L304.82,748.46 L305.09,748.56 L306.25,748.34 L307.23,749.33 L307.61,749.51 L307.98,750.22 L307.99,750.49 L307.78,751.01 L307.62,751.22 L307.68,751.37 L307.95,751.45 L309.03,751.3 L309.22,751.56 L309.06,753.6 L309.21,754.35 L309.21,754.69 L309.08,755.14 L309.08,755.52 L309.18,755.91 L309.19,756.26 L308.92,757.17 L308.63,757.32 L308.17,757.33 L307.8,757.07 L307.29,756.29 L306.79,755.07 L306.6,754.9 L305.94,754.72 L305.82,754.58 L305.4,754.56 L305.1,754.06 L305.14,753.4 L304.88,752.73 L304.91,752.43 L304.62,752.31 L304.38,752.5 L304.51,753.16 L304.37,753.67 L303.85,753.46 L302.98,751.83 L301.99,750.52 L301.6,750.21 L301.7,749.83 L302.19,749.63 L302.59,749.65 L302.67,749.42 L301.84,748.14 L301.87,747.78 L302.17,747.13 L301.8,746.86 L300.77,747.06 L300.4,746.92 L300.1,746.4 L299.93,745.95 L299.04,745.87 L298.7,745.93 L298.12,745.25 L297.86,744.82 L297.96,744.6 L298.5,744.21 L298.81,744.27 L299.41,744.68 L299.64,744.66 L300.24,744.11 L300.33,743.61 L300.78,743.2 L300.71,742.77 L300.46,742.03 L299.91,741.82 L298.79,742.26 L297.82,742.93 L297.43,742.67 L297.35,742.26 L298.39,741.14 L298.85,740.52 L298.76,740.15 L298.43,739.67 L298.4,738.47 L298.55,738.13 Z M315.85,748.26 L315.62,749.55 L315.16,750.87 L314.46,751.58 L313.96,751.42 L313.6,750.85 L313.26,750.88 L312.9,750.76 L312.7,750.29 L312.89,749.68 L312.72,749.21 L312.54,749.62 L312.22,750 L311.42,750.49 L310.87,751.43 L310.61,752.04 L310.29,751.37 L310.08,749.78 L310.05,749.1 L310.63,748.08 L311.38,747.11 L311.53,744.2 L313.91,742.73 L314.13,742.81 L314.9,743.91 L315.72,745.44 L315.93,746.13 L315.94,747.33 L315.85,748.26 Z M151.41,744.33 L151.15,744.71 L150.64,744.68 L150.36,744.56 L150.27,744.23 L151.05,743.24 L151.23,743.11 L151.37,743.15 L151.43,743.56 L151.41,744.33 Z M300.29,747.61 L300.44,747.94 L300.45,748.15 L299.48,748.93 L299.46,749.09 L299.23,749.57 L299.03,749.75 L298.67,750.27 L297.98,750.83 L298.08,749.14 L297.4,748.16 L298.09,747.66 L298.54,747.8 L299.29,747.86 L300.02,747.43 L300.29,747.61 Z M117.17,750.3 L117.27,750.31 L117.48,750.22 L117.91,749.56 L118.05,749.53 L118.05,749.73 L117.84,750.38 L118.19,751.25 L118.52,751.67 L118.49,751.82 L117.68,752.12 L117.06,751.9 L116.73,751.98 L116.43,752.28 L116.23,751.94 L116.09,750.33 L116.14,750.05 L116.48,749.49 L116.92,749.24 L117.11,749.31 L117.27,749.53 L117.31,749.76 L117.17,750.3 Z M119.55,750.04 L119.46,750.97 L118.54,750.38 L118.29,750.09 L118.46,749.87 L119.33,749.82 L119.55,750.04 Z M303.25,755.21 L303.42,755.37 L303.59,755.26 L303.86,754.85 L304.34,754.93 L304.69,755.07 L304.9,755.24 L304.79,755.84 L304.7,756.82 L304.5,757.17 L304.31,757.66 L303.63,757.37 L303.08,756.75 L302.28,755.68 L301.84,754.91 L301.8,754.59 L301.52,754.35 L300.97,753.01 L300.66,751.95 L300.17,751.83 L299.55,751.54 L299.31,750.96 L299.48,750.45 L300.37,750.19 L301.7,751.5 L301.9,752.06 L302.38,752.71 L302.47,753.61 L302.71,753.97 L303.25,755.21 Z M122.6,752.48 L122.19,752.74 L122.06,753.06 L121.75,753.2 L121.49,753.46 L120.61,754.66 L120.23,754.88 L120.66,753.86 L120.73,753.54 L120.74,753.32 L120.61,752.55 L120.87,752.58 L121.08,752.42 L121.5,751.73 L121.88,751.67 L122.29,750.85 L122.51,750.79 L122.62,750.9 L122.44,751.4 L122.83,751.86 L122.73,752.3 L122.6,752.48 Z M313.44,753.05 L314.12,754.57 L314.16,755.1 L313.51,755.29 L313,755.21 L312.73,755.04 L312.66,754.79 L312.83,754.02 L312.49,753.57 L312.1,753.42 L311.75,753.69 L311.73,752.93 L311.99,752.39 L311.84,751.65 L311.84,751.09 L311.93,750.91 L312.28,750.93 L313,751.51 L313.44,753.05 Z M125,752.21 L124.96,753.14 L124.86,753.29 L124.68,753.04 L124.3,753.32 L124.1,753.12 L124.19,752.8 L124.16,752.55 L124.44,752.53 L124.51,752.07 L124.46,751.88 L124.6,751.46 L124.8,751.36 L125,752.21 Z M126.02,754.3 L125.8,754.36 L125.62,754.23 L125.37,753.57 L125.35,753.29 L125.83,753.5 L126.01,753.98 L126.02,754.3 Z M98.5,754.21 L99.15,756.13 L99.43,756.5 L99.85,756.71 L100.43,756.92 L100.78,757.2 L101.09,757.63 L101.13,757.83 L99.29,757.06 L98.13,758.18 L97.78,758.33 L94.5,758.38 L93.85,758.59 L93.43,758.95 L92.68,759.97 L92.3,760.37 L91.9,760.61 L91.05,760.87 L90.03,760.83 L89.5,760.7 L89.21,760.21 L88.96,759.25 L88.96,758.98 L89.07,758.52 L89.98,757.89 L90.28,757.55 L91.46,755.36 L91.8,755.06 L92.16,754.99 L93.17,755.14 L94.03,754.5 L95.88,753.52 L96.29,753.4 L97.63,753.38 L98,753.53 L98.28,753.8 L98.5,754.21 Z M106.38,755.76 L106.22,755.82 L105.76,755.47 L105.59,755.2 L105.47,754.79 L106.41,754.19 L106.6,754.18 L106.78,754.52 L106.81,754.78 L106.55,755.53 L106.38,755.76 Z M104.67,760.9 L104.09,761.15 L103.47,760.89 L102.95,760.41 L102.89,759.83 L104.06,760.2 L104.31,760.38 L104.67,760.9 Z M84.56,763.92 L84.27,764.01 L84.2,763.89 L84.17,763.39 L83.95,762.59 L84.38,762.3 L84.65,762.23 L84.76,762.35 L85.07,762.94 L85.38,763.1 L85.61,763.23 L85.21,763.41 L84.56,763.92 Z M82.68,764.67 L82.43,764.87 L82.23,764.91 L82.08,764.8 L81.39,764.94 L81.26,764.86 L80.95,764.18 L80.93,763.83 L81.05,763.55 L81.36,763.3 L81.86,763.07 L82.35,763.12 L83.21,763.75 L83.61,764.12 L83.69,764.35 L83.39,764.57 L82.68,764.67 Z M77.51,766.6 L77.8,767.14 L78.3,766.8 L78.67,766.33 L78.95,765.73 L79.14,765.49 L79.39,765.81 L80.09,766.25 L79.5,766.92 L78.37,767.92 L77.99,768.59 L77.97,768.88 L79.07,768.66 L79.38,768.69 L79.58,768.92 L79.28,769.19 L78.68,769.43 L78.16,769.91 L76.96,770.73 L76.5,771.41 L75.96,771.67 L75.23,771.73 L73.94,772.17 L73.16,772.59 L72.96,772.82 L72.71,772.93 L72.42,772.92 L72.1,773.1 L71.76,773.48 L71.47,773.66 L71,773.7 L70.76,773.85 L70.49,773.84 L69.75,773.39 L69.56,773.13 L70.22,772.61 L70.7,772.43 L71.43,772.35 L72.14,771.86 L73.61,771.21 L74.07,770.86 L74.36,769.63 L74.69,769.42 L74.87,768.93 L75.68,768.94 L76.05,769.49 L76.18,769.57 L76.25,769.52 L76.29,769.08 L76.71,768.77 L76.47,768.54 L75.72,768.25 L75.16,768.11 L74.8,768.13 L74.5,767.97 L74.27,767.63 L74.17,767.3 L74.19,766.97 L74.38,766.6 L74.73,766.19 L75.13,765.96 L76,765.79 L76.77,765.51 L77.18,765.47 L77.49,765.59 L77.51,766.6 Z M80.22,768.6 L80.13,768.63 L79.96,768.35 L79.95,768.09 L80.06,767.91 L80.37,767.48 L80.59,767.33 L80.86,767.25 L80.93,767.37 L80.69,767.88 L80.39,768.22 L80.22,768.6 Z M68.48,772.85 L66.43,774.05 L65.76,774.92 L65.25,775.76 L64.85,776.22 L64.56,776.3 L64.24,776.52 L63.56,777.1 L63.28,777.17 L61.11,778.53 L60.96,778.55 L61.07,778.19 L61.73,777.69 L62.16,777.23 L62.65,776.47 L62.92,776.19 L63.01,775.81 L63.05,775.04 L63.17,774.75 L63.64,774.17 L63.98,773.85 L64.43,773.74 L65.34,773.84 L65.72,773.55 L65.84,773.32 L65.61,773.12 L65.56,772.76 L65.62,772.15 L65.88,771.6 L66.35,771.12 L66.98,770.75 L67.78,770.49 L68.37,770.48 L69.42,771.04 L69.58,771.3 L69.32,771.86 L69.17,772.39 L68.48,772.85 Z M56.93,778.38 L56.82,778.82 L56.72,778.98 L55.69,778.74 L55,778.84 L54.92,778.58 L54.98,778.35 L56.06,777.99 L56.5,777.99 L56.79,778.18 L56.93,778.38 Z M49.96,781.31 L49.53,781.66 L49.4,781.53 L49.33,781.1 L49.57,780.76 L50.3,780.03 L50.8,780.17 L50.96,780.36 L50.95,780.64 L50.77,781 L50.53,781.18 L50.24,781.18 L49.96,781.31 Z M23.59,787.27 L20,787.71 L19.45,787.41 L20,787.24 L20.65,787.14 L22,786.63 L23.66,786.19 L24.95,785.66 L26.08,785.31 L26.4,784.73 L25.41,784.44 L25.22,784.21 L25.69,783.94 L26.08,783.55 L27,783.09 L27.82,783.67 L28,784.06 L27.92,784.52 L27.75,785 L27.03,785.25 L26.92,785.5 L27.31,786.21 L25.82,786.83 L23.59,787.27 Z M38.38,784.69 L37.88,784.85 L37.34,784.68 L37.59,784.1 L37.85,783.79 L38.34,783.42 L38.92,783.59 L39.38,784.06 L38.38,784.69 Z M31.1,786.17 L32.41,786.61 L34.04,786.56 L34.64,786.67 L34.65,786.79 L33.61,786.97 L33.25,786.91 L32.34,787.15 L31.72,787.2 L30.3,786.97 L29.21,787.13 L28.92,787.07 L28.58,786.87 L28.18,786.53 L28.16,786.31 L28.52,786.23 L29.49,786.52 L29.59,786.37 L30.41,786.09 L31.1,786.17 Z M14.6,787.63 L14.44,787.95 L13.79,787.61 L13.56,787.33 L13.51,787.05 L13.7,786.58 L14.22,786.57 L14.53,786.76 L14.82,787.12 L14.91,787.35 L14.6,787.63 Z M10.77,789.1 L10.81,789.46 L11.58,789.42 L11.82,789.61 L11.82,790.32 L11.72,790.52 L11.6,790.57 L11.32,790.42 L11.01,790.78 L9.58,791.66 L9.14,791.17 L8.31,791.95 L8.18,791.8 L8.89,789.94 L9.57,789.64 L9.82,789.41 L9.76,788.82 L10.07,787.83 L10.75,787.88 L11.06,788.29 L11.05,788.56 L10.77,789.1 Z M7.06,790.71 L6.87,790.85 L6.52,790.96 L5.5,790.84 L4.88,790.88 L4.19,790.96 L3.67,791.15 L3.57,790.89 L3.59,790.67 L5.82,790.08 L6.34,789.77 L6.66,789.38 L6.95,788.64 L7.18,788.42 L7.32,788.43 L7.63,788.72 L7.52,789.1 L7.24,789.43 L7.15,789.74 L7.06,790.71 Z M2.17,791.43 L2.02,791.79 L1.86,791.78 L0.97,791.19 L0.84,790.99 L1.36,790.71 L1.51,790.49 L1.46,790.2 L1.07,789.8 L0.35,789.29 L0.08,788.92 L0.26,788.7 L0.61,788.56 L1.7,788.53 L2.29,789.16 L2.73,789.38 L3.77,789.53 L3.23,789.8 L2.92,790.06 L2.54,791.05 L2.17,791.43 Z M14.68,789.68 L14.12,789.92 L13.38,789.44 L13.45,788.88 L14.27,789.34 L14.68,789.68 Z M12.82,789.9 L12.4,790.53 L12.09,790.25 L11.97,789.38 L12.21,789.16 L12.87,789.79 L12.82,789.9 Z" transform="translate(1 -503)"/>
</svg>
