<svg xmlns="http://www.w3.org/2000/svg" width="16" height="35" viewBox="0 0 16 35">
  <polygon fill="#CCCCCC" stroke="#FFFFFF" stroke-width=".5" points="939.79 254.51 938.97 255.35 938.25 256.91 936.63 258.8 936.74 260.05 937.02 260.95 936.89 262.81 937.92 264.62 939.95 267.59 940.34 272.19 941.89 275.25 944.26 278.83 946.09 279.84 946.18 281.16 945.34 283.35 944.23 284.35 945.67 284.15 946.39 284.65 947.09 286.47 947.06 287.62 945.03 287.64 940.83 287.64 936.63 287.63 934.72 287.63 934.67 287.63 934.63 287.63 934.58 287.63 934.54 287.63 934.5 287.63 934.45 287.63 934.41 287.63 934.36 287.63 934.18 283.81 934 279.98 933.81 276.13 933.63 272.28 933.44 268.42 933.26 264.56 933.08 260.68 932.89 256.79 934.33 254.81 934.94 254.22 935.74 253.91 938.09 253.82" transform="translate(-932 -253)"/>
</svg>
