<svg xmlns="http://www.w3.org/2000/svg" width="145" height="140" viewBox="0 0 145 140">
  <path fill="#CCCCCC" stroke="#FFFFFF" stroke-width=".5" d="M824.43,465.02 L825.32,467.01 L826.68,475.13 L827.6,477.94 L829.26,485.51 L832.01,492.82 L835.89,501.62 L842.26,512.25 L843.02,513.76 L842.19,515.04 L841.94,516.37 L841.87,518.37 L842.1,520.31 L842.85,522.68 L844.3,526.3 L843.49,525.58 L841.39,520.38 L841.15,517.32 L841.45,512.97 L840.96,513.07 L840.56,514.49 L840.34,516.15 L839.81,516.79 L839.09,514.26 L839.14,513.11 L839.91,511.77 L839.69,511.29 L838.44,510.61 L838.18,509.53 L838.35,508.47 L837.64,507.9 L837.08,507.93 L837.45,510.55 L838.04,512.16 L838.77,516.02 L839.95,518.35 L840.64,520.31 L848.68,541.06 L850.58,543.69 L851.28,545.58 L852.01,549.52 L852.18,554.57 L850.87,563.77 L850.57,570.03 L850.38,569.84 L850.26,569.18 L849.95,569.09 L848.81,571.95 L847.26,574.53 L846.75,578.53 L846.01,580.53 L843.78,582.64 L842.4,582.59 L839.01,584.18 L836.63,583.77 L833.79,584.66 L831.92,584.56 L830.84,582.67 L831.01,581.83 L831.44,580.98 L832.17,580.78 L834.68,582.76 L835.15,581.93 L834.39,580.94 L832.94,580.39 L831.87,579.78 L829.71,575.27 L827.47,572.16 L827.1,570.08 L823.24,568.81 L820.45,566.89 L818.63,563.47 L817.59,557.39 L816.36,556.71 L815.84,556.24 L817.04,553.98 L818.31,552.08 L817.31,552.55 L816.57,553.25 L815.63,554.93 L814.94,555.19 L814.31,554.93 L813.58,551.72 L813.79,547.76 L814.81,546.28 L813.25,546.24 L811.63,546.8 L811.87,548.12 L811.64,548.85 L810.46,548.67 L809.56,548.21 L808.35,546.84 L806.69,544.22 L803.29,536.98 L802.63,535.96 L801.51,534.89 L802.04,534.56 L803,534.36 L805.18,531.09 L806.89,529.11 L807.46,527.74 L807.36,527.15 L806.6,526.3 L805.61,527.05 L805.18,526.84 L804.06,525.12 L802.99,524.64 L802.25,525.01 L803.03,526.42 L803.74,526.94 L803.47,528.99 L803.19,529.66 L802.53,530.25 L801.5,529.94 L800.98,530.45 L800.37,529.92 L799.76,529.02 L799.08,527.54 L800.88,519.19 L802.55,513.85 L802.74,507.75 L802.86,506.84 L802.72,505.22 L800.49,501.68 L790.61,493.02 L782.95,482.72 L776.31,478.85 L771.28,479.7 L770.41,480.48 L770.04,481.5 L770.36,482.65 L769.9,483.13 L768.55,483.07 L766.73,483.34 L761.98,486.06 L760.3,485.96 L758.78,486.66 L757.64,487.19 L754.67,487.48 L752.15,488.08 L751.06,487.75 L750.35,486.18 L750.35,484.55 L750.93,485.8 L751.82,486.78 L752.23,486.39 L752.38,485.53 L751.49,483.84 L748.63,481.66 L745.38,478.48 L746.37,478.58 L746.62,477.9 L745.61,477 L746.04,475.96 L746.75,474.87 L745.38,475.03 L744.15,475.79 L744.11,476.73 L743.87,477.48 L743.21,477.37 L741.98,476.45 L735.92,473.87 L730.62,472.41 L734.69,471.75 L736.9,472.26 L736.64,471.48 L736.11,470.98 L734.37,470.35 L732.16,470.59 L730.76,470.29 L729.33,470.91 L727.76,471.84 L726.36,472.32 L720.9,472.99 L716.47,473.71 L717.18,472.95 L717.94,472.46 L720.56,471.71 L720.95,470.15 L720.34,468.65 L719.65,469.01 L718.93,470.18 L718.04,469.34 L717.06,469.34 L716.79,471.2 L715.53,472.45 L714.96,473.7 L711.27,474.68 L710.8,474.35 L711.88,473.16 L711.79,472.5 L711.01,472.86 L711.19,472.12 L711.86,471.44 L712.15,470.67 L712.07,469.18 L712.55,467.08 L712.3,466.42 L709.56,463.7 L708.9,462.27 L708.78,460.76 L709.04,459.19 L715.17,459.19 L721.3,459.19 L727.43,459.19 L733.56,459.19 L739.69,459.19 L745.82,459.19 L751.95,459.19 L758.07,459.18 L758.85,460.92 L760.36,464.51 L760.42,465.35 L762.19,465.48 L765.21,465.68 L768.23,465.89 L771.25,466.09 L774.27,466.3 L777.29,466.51 L780.31,466.72 L783.33,466.92 L786.35,467.13 L789.37,467.33 L792.39,467.54 L795.41,467.74 L798.43,467.95 L801.45,468.16 L804.47,468.36 L807.49,468.57 L810.51,468.77 L810.53,469.5 L811.03,470.64 L811.15,471.93 L811.38,472.55 L811.98,472.94 L812.93,473.03 L813.89,472.3 L814.5,470.7 L814.65,468.9 L814.29,466.85 L814.35,465.12 L814.83,464.11 L815.4,463.86 L815.89,463.31 L816.3,463.19 L817.35,463.48 L821.28,464.93 L824.43,465.02 Z M759.88,488.79 L757.98,489.57 L755.92,489 L757.2,488.89 L758.13,489.12 L760.47,488 L761.7,487.15 L763.12,486.83 L759.88,488.79 Z M849.41,539.53 L849.72,541.09 L847.98,537.47 L845.83,531.77 L844.68,527.36 L845.46,528.55 L846.23,531.02 L849.41,539.53 Z M813.43,554.89 L813.4,556.13 L812.44,554.06 L811.8,551.77 L812.71,552.51 L813.43,554.89 Z M814.32,556.97 L813.64,557.52 L812.27,557.12 L811.52,556.4 L811.2,554.99 L812.39,556.49 L812.82,556.83 L814.32,556.97 Z M845.71,584.44 L841.94,588.36 L842.36,587.38 L843.83,585.28 L844.31,584.29 L845.3,583.66 L846.22,582.53 L846.29,581.21 L847.63,580.29 L848.07,580.16 L845.71,584.44 Z M840.85,589.42 L840.34,589.52 L841.09,588.64 L841.3,588.7 L840.85,589.42 Z M837.22,591.49 L836.86,591.49 L837.04,591.19 L837.79,590.6 L838.06,590.83 L838.03,591.13 L837.22,591.49 Z M833.15,593.29 L832.28,593.78 L831.38,593.42 L832.37,592.93 L835.31,592.41 L834.2,593.07 L833.15,593.29 Z M827.64,594.67 L827.07,595.1 L826.8,594.97 L826.8,594.35 L825.99,592.97 L826.02,592.61 L827.88,593.96 L827.93,594.32 L827.64,594.67 Z M823.24,595.72 L822.01,595.93 L823,595.11 L823.32,593.87 L823.9,594.84 L823.89,595.43 L823.24,595.72 Z M819.12,596.87 L818.64,596.92 L818.6,596.6 L819.43,596.21 L819.98,596.24 L819.96,596.67 L819.12,596.87 Z" transform="translate(-708 -458)"/>
</svg>
