<svg xmlns="http://www.w3.org/2000/svg" width="91" height="106" viewBox="0 0 91 106">
  <path fill="#CCCCCC" stroke="#FFFFFF" stroke-width=".5" d="M836.41,436.32 L835.44,438.2 L833.13,439.38 L832.42,439.33 L831.84,439.67 L832.18,440.51 L832.76,441.12 L832.74,441.69 L832.13,442.46 L830.92,442.67 L830.24,443.55 L830.45,444.38 L830.85,444.84 L830.77,445.64 L829.4,446.44 L829.08,447.23 L829.76,447.46 L830.29,447.23 L830.67,447.4 L829.85,448.71 L829.11,449.51 L828.41,450.94 L826.78,451.34 L826.84,451.8 L827.76,452.21 L828.53,453.31 L827.08,455.34 L826.17,455.18 L825.62,454.73 L825.27,456.33 L825.41,457.18 L825.07,458.93 L824.51,461.03 L824.14,461.89 L824.22,463.49 L824.45,465.04 L821.24,464.85 L817.31,463.4 L816.26,463.11 L815.85,463.23 L815.36,463.78 L814.79,464.03 L814.31,465.04 L814.26,466.77 L814.63,468.82 L814.48,470.62 L813.88,472.22 L812.92,472.95 L811.97,472.86 L811.37,472.47 L811.14,471.85 L811.02,470.56 L810.52,469.43 L810.5,468.71 L807.48,468.51 L804.46,468.31 L801.44,468.11 L798.42,467.91 L795.4,467.7 L792.38,467.5 L789.36,467.3 L786.34,467.1 L783.32,466.9 L780.3,466.7 L777.28,466.5 L774.26,466.3 L771.24,466.09 L768.22,465.89 L765.2,465.69 L762.18,465.49 L760.41,465.36 L760.35,464.52 L758.85,460.93 L758.07,459.19 L756.93,456.64 L756.45,452.71 L757.17,446.59 L756.94,445.21 L756.94,445.2 L755.85,442.06 L755.86,439.76 L756.99,435.98 L756.99,435.97 L757.56,433.82 L758.35,432.61 L759.55,431.61 L759.7,430.73 L758.81,429.97 L758.48,429.05 L758.71,427.97 L757.93,425.36 L755.25,419.13 L754.87,417.02 L754.4,415.72 L753.9,412.84 L753.4,409.96 L752.9,407.07 L752.4,404.18 L751.9,401.29 L751.4,398.39 L750.9,395.49 L750.4,392.58 L749.9,389.67 L749.4,386.75 L748.9,383.83 L748.4,380.91 L747.9,377.98 L747.4,375.05 L746.9,372.11 L746.4,369.17 L752.56,369.25 L758.72,369.32 L764.88,369.39 L771.04,369.47 L776.77,369.39 L782.51,369.31 L788.25,369.23 L793.99,369.15 L793.87,369.17 L792.94,370.73 L790.17,373.66 L789.43,375.9 L793.02,378.4 L793.03,378.42 L795.18,380.43 L796.64,381.22 L798.14,381.46 L799.07,382.12 L799.62,383.74 L803.97,391.7 L803.97,391.69 L808.47,395.78 L810.28,397.79 L811.2,399.73 L815.04,402.92 L816.36,404.63 L816.43,405.93 L816.89,406.85 L817.74,407.39 L818.55,408.55 L819.33,410.33 L820.87,411.87 L823.17,413.18 L824.85,416.17 L825.91,420.83 L826.99,423.53 L828.63,424.66 L830.88,428.62 L831.61,430.98 L831.57,433.05 L832.71,434.66 L836.41,436.32 Z M826.04,459.74 L825.2,465.1 L824.84,463.2 L824.8,461.36 L825.44,460.27 L826.04,459.74 Z" transform="translate(-746 -368)"/>
</svg>
