<svg xmlns="http://www.w3.org/2000/svg" width="88" height="112" viewBox="0 0 88 112">
  <polygon fill="#CCCCCC" stroke="#FFFFFF" stroke-width=".5" points="970.16 769.83 970.39 771.02 970.94 771.02 972.12 770.42 973.65 768.99 975.5 766.16 974.84 764.73 977.53 763.45 977.48 762.58 978.22 762.22 979.07 762.41 979.85 761.55 981.35 760.7 981.35 759.63 981.66 758.63 982.3 757.65 982.9 756.18 983.35 750.92 983.37 747.32 981.92 746.19 983.21 745.45 983.58 744.77 983.42 740.08 983.05 737.95 983.22 736.74 983.98 733.29 984.77 730.79 986.03 727.98 986.73 726.9 987.62 726.02 987.69 723.56 989.25 721.69 991.99 722.15 992.55 721.69 993.78 719.49 994.52 718.64 995.84 718.45 997.35 717.71 998.57 716.47 999.8 714.76 1001.29 713.13 1002.71 712.27 1004.72 711.8 1005.78 709.94 1007.23 708.06 1009.16 706.27 1010.97 704.99 1012.84 703.91 1014.21 703.21 1014.78 701.56 1015.79 699.95 1017.15 698.67 1018.74 697.73 1020.77 696.97 1022.22 696.6 1023.41 695.05 1024.73 692.78 1025.75 690.25 1026.58 687.42 1027.41 684.5 1028.03 683.33 1028.97 681.78 1029.8 679.26 1030.38 677.26 1030.68 675.42 1030.57 674.66 1026.59 674.86 1023.67 674.91 1021.58 674.66 1019.77 674.36 1018.59 672.67 1017.92 671.12 1017.44 669.68 1015.5 668.44 1014.22 667.02 1013.67 665.48 1013.52 664.43 1012.19 663.79 1010.78 662.64 1009.6 661.24 1008.63 660.6 1007.08 660.32 1005.5 660.38 1004.03 661.6 1002.29 664.81 1000.42 668.62 999.77 670.52 999.65 671.23 999.86 673.08 1000.12 674.83 999.84 676.67 998.94 679.13 998.28 680.59 997.23 681.51 996.22 683.36 994.85 685.76 993.17 688.47 991.79 691.35 991.24 693.67 991.23 695.17 991.42 696.33 991.75 697.33 990.95 699 988.55 700.03 987.36 699.47 986.17 699.25 985.51 699.31 983.17 700.78 982.49 702.57 983.64 703.96 983.74 704.88 982.33 706.6 980.92 707.02 979.65 706.59 978.37 706.46 976.88 707.67 973.57 706.9 972.01 706.87 970.65 707.43 969.37 708.59 967.66 708.2 966.47 709.15 964.95 710.14 963.38 710.62 961.1 711.3 960.26 713.04 959.94 714.17 959.53 716.74 957.83 716.92 956.05 716.46 955.8 717.76 956.03 718.38 957.61 719.01 956.47 723.97 955.8 723.12 955.15 721.4 954.99 720.16 954.99 718.5 955.19 717.57 954.34 717.44 953.59 717.86 952.38 717.16 950.61 717.33 947.98 716.15 946.74 715.88 945.17 715.88 944.09 716.09 944.03 716.92 944.21 717.9 946.79 719.33 947.91 720.25 948.63 721.68 949.27 723.41 951.89 725.12 953.58 726.73 954.19 728.05 954.49 729.35 954.56 730.76 954.38 731.27 952.23 733.11 952.01 735.58 951.41 738.35 950.54 740.73 949.33 742.97 948.1 744.61 950.1 745.06 951.32 746.88 952.11 748.85 952.36 750.48 953.32 751.61 952.71 753.34 953.05 754.89 954.45 755.72 953.62 757.79 953.23 759.26 953.28 760.24 953.96 761.11 954.12 762.1 954.79 763.81 955.93 765.64 957.24 767.1 958.29 767.91 959.22 768.05 960.99 768.61 962.67 769.34 964.34 770.06 966.24 770.65 967.93 770.74 969.1 770.45" transform="translate(-943 -660)"/>
</svg>
