<svg xmlns="http://www.w3.org/2000/svg" width="77" height="137" viewBox="0 0 77 137">
  <polygon fill="#CCCCCC" stroke="#FFFFFF" stroke-width=".5" points="704.8 187.2 704.79 191.19 705.08 194.51 705.66 195.97 706.31 197.05 707.03 197.74 707.85 199.88 708.78 203.47 709.65 205.83 710.32 206.8 710.29 213.54 710.26 221.08 710.24 228.58 710.21 236.05 710.18 243.49 710.15 250.89 710.13 258.26 710.1 265.2 710.09 265.31 709.22 266.06 708.61 267.35 708.77 268.74 708.54 269.74 707.93 270.33 708.22 271.84 709.42 274.27 710.14 276.65 710.38 279.01 710.16 280.69 709.13 282.21 708.14 285.52 707.29 286.84 706.26 287.27 705.33 288.5 704.52 290.51 703.64 291.49 702.73 291.43 702.05 291.8 701.61 292.59 701.66 293.43 702.21 294.3 702.03 295.11 701.12 295.86 701.14 296.21 701.42 296.43 701.31 296.79 700.74 297.15 700.39 298.25 700.43 300.09 700.12 301.01 699.51 301.05 699.43 301.55 700.44 303.63 699.85 304.05 698.79 305.76 698.57 307.64 699.2 309.7 697.62 311.36 693.85 312.63 691.85 313.74 691.63 314.71 691.89 316.18 692.64 318.16 692.77 319.53 692.29 320.29 689.6 319.77 684.69 317.99 681.4 318.05 679.72 319.95 679.14 321.4 679.35 322.56 678.01 321.13 677.1 320.49 676.93 320.54 676.74 320.71 676.66 321.16 676.71 321.48 676.85 321.84 676.77 322.08 676.57 322.09 675.6 321.54 674.42 319.96 673.04 317.34 672.73 315.26 673.51 313.71 673.51 312.08 672.73 310.38 672.35 308.71 672.35 307.07 670.45 304.62 666.66 301.35 663.88 299.33 662.1 298.56 660.01 296.92 657.64 294.4 656.37 292.47 656.22 291.13 657.3 287.57 660.45 279.77 660.8 278.84 660.9 278.5 660.76 278.16 660.46 277.84 659.13 276.93 656.59 276.14 654.24 275.7 652.36 276.64 650.72 274.75 649.33 270.02 645.87 265.01 640.36 259.73 637.16 256.13 636.27 254.23 635.49 251.37 634.83 247.55 634.87 244.38 635.96 240.58 636.93 240.14 637.13 238.89 636.87 236.67 637.91 235 640.26 233.87 642.41 231.37 644.34 227.5 645.22 224.73 645.03 223.05 644.32 221.46 643.08 219.96 642.79 218.08 643.43 215.85 645.51 214.43 649.01 213.82 652.18 212.69 655.02 211.03 656.72 209.22 657.25 207.26 658.07 205.73 659.18 204.64 659.96 202.85 660.42 200.36 660.47 198.52 660.13 197.34 658.89 195.97 656.73 194.42 655.52 192.96 655.25 191.59 654.11 190.12 652.13 188.54 650.97 186.8 659.68 186.86 668.22 186.93 676.76 186.99 685.3 187.06 693.84 187.12 702.38 187.18" transform="translate(-634 -186)"/>
</svg>
