<svg xmlns="http://www.w3.org/2000/svg" width="70" height="43" viewBox="0 0 70 43">
  <path fill="#CCCCCC" stroke="#FFFFFF" stroke-width=".5" d="M1027.31,177.44 L1026.88,178.77 L1027.43,180.09 L1027.79,181.45 L1028.66,182.79 L1029.4,182.91 L1030.2,182.67 L1030.79,182.73 L1031.17,183.3 L1031,183.98 L1030.08,184.15 L1028.37,185.34 L1026.86,185.8 L1026.11,187.24 L1024.98,188.89 L1022.79,191.47 L1023.73,192.26 L1027.12,193.16 L1028.63,194.08 L1030.92,198.88 L1030.4,199.36 L1030.19,200.24 L1032.22,201.47 L1032.87,204.9 L1034.54,206.07 L1037.03,206.79 L1040.07,205.76 L1042.6,204.33 L1042.51,203.16 L1040.92,200.43 L1040.54,199.15 L1039.36,198.32 L1038.91,199.02 L1038.15,198.11 L1038.06,197.59 L1038.77,197.34 L1039.6,197.44 L1040.57,197.92 L1043.05,200.9 L1043.74,204.79 L1043.89,207.26 L1043.61,208.1 L1042.89,207.93 L1041.51,208.1 L1034.97,209.38 L1033.52,210.5 L1030.19,211.72 L1029.98,211.11 L1030.22,209.85 L1030.01,207.27 L1029.35,207.15 L1024.17,211.35 L1022.17,211.61 L1020.49,212.84 L1020.11,212.16 L1019.81,209.01 L1020.87,206.36 L1020.31,206.4 L1019.26,207.35 L1018.61,206.23 L1017.91,205.63 L1017.23,205.04 L1017.25,204.09 L1017.29,202.66 L1016.5,202.38 L1016.41,200.62 L1016.35,199.47 L1014.92,199.49 L1013.75,199.51 L1011.87,199.54 L1009.93,199.57 L1008.51,199.59 L1008.49,199.32 L1006.22,199.28 L1003.95,199.24 L1001.68,199.2 L999.41,199.16 L997.14,199.12 L994.88,199.08 L992.61,199.04 L990.34,199 L990.23,199.58 L989.41,199.66 L989.39,199 L987.8,198.93 L986.2,198.86 L984.6,198.79 L983,198.72 L981.41,198.65 L979.82,198.58 L978.22,198.51 L976.62,198.44 L976.11,197.82 L976.71,195.68 L977.31,193.54 L977.91,191.39 L978.51,189.24 L979.11,187.09 L979.71,184.94 L980.31,182.78 L980.91,180.62 L982.77,180.69 L984.63,180.76 L986.5,180.83 L988.36,180.9 L990.23,180.97 L992.09,181.04 L993.96,181.11 L995.82,181.18 L998.52,181.27 L1001.21,181.36 L1003.91,181.45 L1006.61,181.54 L1009.31,181.63 L1012.01,181.72 L1014.71,181.81 L1017.41,181.9 L1019.07,181.2 L1021.02,179.18 L1022.22,178.74 L1024.16,177.54 L1025.12,177.29 L1027.31,177.44 Z M1032.93,215.67 L1027.71,216.9 L1026.88,216.11 L1028.18,215.74 L1029.83,213.85 L1030.92,213.63 L1032.64,214.7 L1032.93,215.67 Z M1043.01,218.45 L1041.55,218.86 L1038.17,217.93 L1040.95,217.15 L1041.4,216.88 L1041.76,215.72 L1041.81,215.14 L1042.86,217.63 L1043.01,218.45 Z" transform="translate(-975 -177)"/>
</svg>
