<svg xmlns="http://www.w3.org/2000/svg" width="147" height="163" viewBox="0 0 147 163">
  <path fill="#CCCCCC" stroke="#FFFFFF" stroke-width=".5" d="M599.25,21.76 L601.52,21.41 L603.47,21.51 L605.43,21.67 L606.48,21.9 L609.51,23.16 L611.48,24.19 L614.31,26.1 L615.88,26.95 L616.63,28.93 L617.51,31.47 L618.76,31.47 L619.7,29.98 L622.11,29.71 L625.27,30.75 L628.06,33.71 L632.06,36.34 L634.5,37.65 L636.99,37.64 L640.15,36.34 L643.51,33.81 L645.93,33.37 L647.37,33.61 L648.18,35.58 L649.18,36.33 L651.79,36.1 L657.23,36.48 L661.56,35.95 L662.54,37.08 L663.42,38.86 L665.18,39.42 L667.56,38.86 L671.31,39.24 L670.79,39.53 L670.24,39.47 L669.52,39.89 L668.62,40.79 L666.55,42.08 L663.31,43.76 L659.57,45.3 L651.98,48.07 L647.25,50.95 L645.16,52.67 L637.02,61.3 L632.11,65.88 L624.16,72.28 L623.41,73.09 L623.36,73.84 L623,73.83 L621.69,75.37 L621.13,76.36 L619.85,76.64 L619.85,80.6 L619.85,84.55 L619.84,88.49 L619.84,92.42 L619.22,92.82 L618.43,93.74 L617.34,93.96 L612.23,97.19 L611.39,98.12 L610.47,100.27 L608.8,102.69 L608.39,103.97 L608.47,105.7 L611.03,107.09 L611.99,108.43 L612.45,110.07 L612.39,111.49 L611.1,114.26 L610.87,115.36 L611,118.73 L610.35,119.78 L610.88,122.51 L610.91,123.45 L610.51,126.43 L610.23,127.3 L610.73,128.84 L610.78,129 L613.18,131.14 L615.2,132.32 L617.01,132.7 L618.43,133.61 L619.45,135.05 L620.83,135.99 L622.57,136.44 L624.34,137.64 L627.05,140.57 L628.4,143.07 L630.76,144.85 L634.58,146.75 L637.09,148.42 L638.28,149.85 L639.07,153.49 L639.7,161.19 L633.44,161.2 L627.27,161.2 L621.1,161.2 L614.93,161.2 L608.76,161.2 L602.59,161.2 L596.42,161.2 L590.25,161.2 L584.08,161.2 L577.91,161.2 L571.74,161.2 L565.57,161.2 L559.4,161.2 L553.23,161.2 L547.06,161.2 L540.89,161.2 L540.89,155.34 L540.89,149.46 L540.89,143.56 L540.89,137.63 L540.89,131.68 L540.89,125.71 L540.89,119.71 L540.89,113.69 L539.45,111.7 L536.3,110.08 L535.52,109.11 L534.05,106.69 L533.47,105.65 L533.36,104.84 L534.07,103.94 L536.93,101.33 L537.84,100.13 L538.29,98.96 L538.95,96.26 L538.68,94.18 L538.86,90.94 L538.27,88.5 L538.14,87.29 L537.78,85.78 L535.63,81.79 L535.11,78.56 L534.57,76.97 L534.39,72.86 L534.45,71.7 L534.88,69.47 L533.97,67.96 L533.84,66.72 L533.42,56.86 L533.13,55.45 L533.21,50.85 L531.55,45.99 L530.76,44.34 L530.36,42.33 L530.39,41.37 L529.04,38.04 L528.14,34.36 L528.22,31.16 L527.93,28.74 L528.04,26.85 L527.79,24.02 L528.07,22.4 L528.09,19.89 L526.24,10.93 L528.56,10.93 L536.65,10.93 L544.74,10.93 L552.83,10.93 L560.92,10.93 L565.39,10.97 L565.46,4.87 L565.52,0.04 L569.62,0.63 L570.84,1.51 L571.23,1.93 L571.11,3.26 L571.45,7.29 L572.19,10.64 L573.91,14.66 L573.91,14.67 L574.05,16.23 L574.61,17.21 L575.64,18.12 L579.56,19.22 L586.37,20.51 L590.23,21.99 L591.14,23.66 L592.96,24.33 L595.68,24 L597.59,23.3 L599.25,21.76 Z M599.25,21.76 L599.18,21.77 L599.27,21.74 L599.25,21.76 Z" transform="translate(-525 1)"/>
</svg>
