<svg xmlns="http://www.w3.org/2000/svg" width="128" height="113" viewBox="0 0 128 113">
  <polygon fill="#CCCCCC" stroke="#FFFFFF" stroke-width=".5" points="635.96 240.58 634.87 244.38 634.83 247.55 635.49 251.37 636.27 254.23 637.16 256.13 640.36 259.73 645.87 265.01 649.33 270.02 650.72 274.75 652.36 276.64 654.24 275.7 656.59 276.14 659.13 276.93 660.46 277.84 660.76 278.16 660.9 278.5 660.8 278.84 660.45 279.77 657.3 287.57 656.22 291.13 656.37 292.47 657.64 294.4 660.01 296.92 662.1 298.56 663.88 299.33 666.66 301.35 670.45 304.62 672.35 307.07 672.35 308.71 672.73 310.38 673.51 312.08 673.51 313.71 672.73 315.26 673.04 317.34 674.42 319.96 675.6 321.54 676.57 322.09 676.77 322.08 676.85 321.84 676.71 321.48 676.66 321.16 676.74 320.71 676.93 320.54 677.1 320.49 678.01 321.13 679.35 322.56 679.95 324.47 679.82 326.84 679.31 329.09 678.42 331.21 677.41 331.94 676.96 331.81 676 331.44 675.61 331.55 674.73 332.1 673.73 334.16 673.7 334.22 673.33 334.42 673.07 334.2 673.03 334.09 672.85 333.48 672.42 332.87 672.11 332.86 671.85 332.91 671.74 333.2 671.65 333.85 671.7 334.14 672.02 335.88 671.74 337.14 670.81 337.64 670.67 338.34 671.2 339.14 671.2 339.5 670.99 339.8 670.36 339.9 669.87 340.07 669.48 340.71 670.24 341.94 670.1 343.43 669.04 345.16 668.91 345.83 665.43 345.88 662.31 345.93 659.2 345.99 656.08 346.04 657.56 343.55 658.52 342.65 659.21 341.7 660.48 340.82 661.87 338.93 662.03 338.05 661.9 337.17 661.07 335.98 660.23 334.14 654.95 334.14 649.67 334.14 644.39 334.14 639.1 334.14 633.82 334.14 628.54 334.14 623.26 334.14 617.98 334.14 612.69 334.14 607.41 334.14 602.13 334.14 596.85 334.14 591.57 334.14 586.29 334.14 581 334.14 575.72 334.14 575.72 331.2 575.72 328.26 575.73 325.31 575.73 322.36 575.72 319.27 575.71 316.18 575.71 313.09 575.7 309.99 575.69 306.88 575.68 303.77 575.67 300.65 575.67 297.53 575.66 294.4 575.65 291.27 575.64 288.13 575.64 284.98 575.63 281.83 575.62 278.68 575.61 275.52 575.61 272.35 575.65 271.41 572.7 269.72 571.38 268.13 570.72 266.08 569.39 264.05 567.39 262.02 567.05 259.86 568.39 257.55 569.51 256.37 570.41 256.33 570.51 255.33 569.81 253.37 568.79 252.64 567.43 253.14 566.28 253.11 561.91 249.92 561.61 249.71 560.25 247.59 559.69 245.07 558.6 243.42 556.97 242.66 555.94 240.99 555.5 238.42 554.46 235.82 553.98 235.05 558.71 235.03 563.49 234.99 568.28 234.95 573.06 234.92 577.85 234.88 582.63 234.85 587.41 234.81 592.2 234.77 596.98 234.74 601.77 234.7 606.55 234.67 611.33 234.63 616.12 234.59 620.9 234.56 625.68 234.52 630.47 234.49 631.41 236.3 632.44 236.82 632.64 237.41 634 238.35 634.29 239.27" transform="translate(-553 -234)"/>
</svg>
