<svg xmlns="http://www.w3.org/2000/svg" width="166" height="78" viewBox="0 0 166 78">
  <polygon fill="#CCCCCC" stroke="#FFFFFF" stroke-width=".5" points="540.4 186.84 540.97 186.97 542.24 189.23 542.77 193.26 543.92 196.51 545.7 198.97 546.59 200.77 546.6 201.91 547.03 203.13 547.88 204.43 548.22 206.63 548.04 209.74 548.41 211.4 549.3 211.6 549.69 212.04 549.57 212.71 549.87 213.21 550.59 213.54 550.79 214.43 550.48 215.89 550.73 216.81 551.57 217.18 551.73 217.9 551.2 218.97 551.29 219.8 551.97 220.41 552.43 223.1 552.67 227.88 552.59 230.67 552.19 231.48 552.82 233.2 553.98 235.05 554.46 235.82 555.5 238.42 555.94 240.99 556.97 242.66 558.6 243.42 559.69 245.07 560.25 247.59 561.61 249.71 561.91 249.92 558.49 249.93 554.52 249.93 550.54 249.93 546.57 249.93 542.59 249.93 538.62 249.93 534.64 249.93 530.67 249.93 526.69 249.93 522.72 249.93 518.74 249.93 514.77 249.93 510.79 249.93 506.82 249.93 502.84 249.93 498.87 249.93 494.89 249.93 490.92 249.93 486.94 249.93 482.97 249.93 478.99 249.93 475.02 249.93 471.04 249.93 467.07 249.93 463.09 249.93 459.12 249.93 455.14 249.93 451.17 249.93 447.19 249.93 443.22 249.93 439.24 249.93 435.27 249.93 435.27 246.85 435.27 243.76 435.27 240.66 435.27 237.56 435.26 234.46 435.26 231.34 435.26 228.23 435.26 225.1 430.53 225.1 425.79 225.1 421.06 225.1 416.33 225.1 411.59 225.1 406.86 225.1 402.13 225.1 397.39 225.1 397.38 218.82 397.36 212.53 397.34 206.21 397.33 199.86 397.31 193.49 397.29 187.09 397.27 180.67 397.26 174.23 403.82 174.23 410.39 174.23 416.95 174.23 423.51 174.23 430.08 174.23 436.64 174.23 443.21 174.23 449.77 174.23 456.33 174.23 462.9 174.23 469.46 174.23 476.02 174.23 482.59 174.23 489.15 174.23 495.71 174.23 503.21 174.23 508.87 178.07 512.26 179.27 513.85 178.14 517.32 177.5 522.65 177.33 526.03 177.86 527.44 179.08 530.18 180.44 534.26 181.96 536.71 183.6 537.52 185.37 538.94 186.49" transform="translate(-397 -173)"/>
</svg>
