<svg xmlns="http://www.w3.org/2000/svg" width="150" height="117" viewBox="0 0 150 117">
  <path fill="#CCCCCC" stroke="#FFFFFF" stroke-width=".5" d="M980.9,180.65 L980.3,182.81 L979.7,184.97 L979.1,187.12 L978.5,189.27 L977.9,191.42 L977.3,193.57 L976.7,195.71 L976.1,197.85 L976.61,198.47 L976.46,200.88 L976.31,203.29 L976.16,205.7 L976.01,208.1 L975.86,210.5 L975.71,212.9 L975.56,215.29 L975.41,217.68 L975.98,218.65 L976.55,219.62 L975.84,220.07 L974.74,220.77 L973.56,221.52 L972.02,222.5 L972.79,223.75 L973.77,225.32 L972.99,225.97 L970.95,228.16 L969.58,229.33 L968.45,229.71 L967.76,230.69 L967.01,231.33 L967.74,229.15 L968.53,227.31 L969.19,223.74 L969,220.85 L968.18,219.66 L967.33,218.86 L968.32,221.72 L968.48,225.22 L968.46,225.31 L966.64,224.18 L964.76,223.04 L962.88,221.89 L961,220.75 L959.12,219.6 L957.24,218.45 L955.36,217.3 L953.48,216.15 L953.08,215.2 L952.39,214.47 L949,213.2 L948.13,212.36 L947.35,211.22 L946.81,209.82 L946.53,208.35 L946.52,207.17 L946.77,205.86 L945.99,204.99 L945.98,204.17 L945.48,203.62 L943.26,202.64 L942.6,201.26 L941.13,199.95 L938.52,199.95 L935.91,199.95 L933.3,199.95 L930.69,199.95 L928.08,199.95 L925.47,199.95 L922.86,199.95 L920.25,199.95 L917.64,199.95 L915.03,199.95 L912.42,199.95 L909.81,199.95 L907.2,199.95 L904.59,199.95 L901.98,199.95 L899.37,199.95 L896.76,199.95 L894.15,199.95 L891.54,199.95 L888.93,199.95 L886.32,199.95 L883.7,199.95 L881.09,199.95 L878.48,199.95 L875.87,199.95 L873.26,199.95 L870.65,199.95 L868.04,199.95 L865.43,199.95 L862.82,199.95 L860.21,199.95 L857.6,199.95 L857.6,196.52 L857.6,193.09 L857.6,192.95 L858.72,192.33 L862.36,190 L864.18,188.32 L866.1,186.92 L868.11,185.8 L869.71,184.36 L870.9,182.6 L872.21,181.29 L873.64,180.43 L874.41,179.53 L874.51,178.58 L874.24,177.3 L873.61,175.69 L873.52,174.42 L873.98,173.49 L874.08,172.86 L873.83,172.54 L870.84,171.61 L870.97,167.15 L870.93,167.02 L871.09,166.96 L877.99,164.98 L882.39,164.3 L887.75,164.12 L894.14,165.1 L896.62,165.99 L898.19,167.13 L900,167.44 L902.05,166.91 L904.9,166.74 L908.54,166.92 L910.49,167.19 L910.74,167.54 L910.99,167.43 L911.24,166.86 L912.21,166.23 L914.94,165.29 L915.3,165.49 L915.86,165.01 L916.62,163.86 L918.01,162.59 L920.04,161.2 L921.87,160.48 L923.51,160.42 L924.61,160.08 L925.16,159.45 L925.33,158.89 L925.12,158.41 L925.21,157.88 L925.3,157.62 L925.22,157.4 L925.02,156.95 L924.86,154.66 L924.54,153.59 L924.1,152.8 L923.53,152.29 L923.6,151.75 L924.59,151.09 L924.52,151.71 L924.78,151.9 L925.24,151.62 L926.3,150.25 L926.42,149.73 L927.14,149.2 L927.67,148.37 L927.08,148.25 L925.68,148.5 L925.36,148.25 L926.08,147.15 L925.95,146.52 L925.72,146.25 L925.26,146.14 L923.68,147.11 L923.2,147.19 L923.13,146.68 L922.32,145.54 L924.49,143.51 L932.18,137.86 L932.96,137 L933.25,136.23 L933.05,135.56 L932.83,135.39 L932.94,135.22 L940.35,127.91 L944.56,124.52 L948.04,122.63 L950.69,121.73 L952.47,121.86 L953.49,121.73 L954.36,121.73 L958.78,121.72 L966.67,121.71 L974.56,121.7 L979.22,121.69 L979.35,123.47 L978.96,125.56 L979.29,127.83 L978.84,132.56 L980.02,136.21 L979.74,138.64 L979.81,141.26 L979.6,141.9 L978.67,143.41 L978.13,144.89 L977.82,146.38 L977.84,147.34 L978.64,151.61 L978.79,153.49 L978.77,154.59 L978.06,158.1 L978.01,159.1 L978.22,159.38 L978.48,159.39 L979.28,158.3 L979.64,158.13 L980.1,158.4 L981.22,160.05 L981.16,163 L981.11,165.15 L981.06,167.53 L980.99,171.09 L980.94,173.7 L980.89,176.07 L980.85,177.89 L980.59,179.22 L980.9,180.65 Z M926.7,140.91 L926.1,141.12 L925.96,140.81 L926.06,140.52 L926.55,140.16 L927.38,140.16 L927.28,140.45 L926.7,140.91 Z M923.84,148.47 L923.56,148.55 L923.59,147.99 L923.88,147.63 L924.44,147.47 L924.43,147.75 L923.84,148.47 Z M873.24,173.68 L872.66,174.57 L872.1,174.48 L871.69,174.19 L871.55,173.63 L871.65,172.92 L872.15,172.61 L873.51,172.88 L873.56,173.16 L873.24,173.68 Z M995,225.47 L993.65,227.09 L994.87,227.25 L995.92,226.78 L996.91,225.82 L999.22,224.52 L1001.19,223.95 L1001.81,223.83 L1002.75,224.75 L1004.61,224.02 L1006.52,223.61 L998.26,227.78 L996.57,228.25 L994.15,229.49 L991.87,230.37 L990.22,230.69 L982.04,233.77 L981.39,233.84 L980.69,233.54 L973.95,235.13 L971.19,235.31 L968.67,235.86 L970.53,234.59 L970.57,234.11 L970.12,233.74 L969.13,233.85 L968.11,235.17 L966.48,235.61 L966.16,234.18 L966.71,233.07 L967.45,232.02 L969.07,230.37 L971.39,229.32 L972.57,228.41 L973.38,229.21 L973.56,228.13 L974.19,227.51 L974.87,227.18 L976.51,227.17 L977.39,227 L978.03,226.64 L978.69,226.57 L980.48,227.06 L982.23,226.92 L983.64,226.24 L985.11,226.01 L989,225.86 L992.86,225.36 L994.4,224.48 L997.65,222.01 L999.52,221.32 L996.61,224.19 L995,225.47 Z M963.17,237.02 L962.26,237.12 L963.17,234.74 L964.83,233.65 L965.43,233.88 L965.46,234.72 L965.23,235.44 L964.12,236.55 L963.17,237.02 Z" transform="translate(-857 -121)"/>
</svg>
