<svg xmlns="http://www.w3.org/2000/svg" width="32" height="62" viewBox="0 0 32 62">
  <path fill="#CCCCCC" stroke="#FFFFFF" stroke-width=".5" d="M968.44,225.31 L968.12,227.26 L966.25,231.2 L965.46,232.12 L964.53,232.93 L963.83,233.28 L963.18,233.91 L962.43,234.9 L961.72,236.88 L962.15,238.68 L965.79,239.34 L966.76,238.78 L967.26,240.07 L967.54,241.85 L967.27,243.78 L966.66,245.74 L966.2,248.17 L965.81,251.87 L965.22,255.19 L965.14,254.18 L965.51,250.14 L964.92,250.56 L964.51,251.5 L963.4,256.7 L961.87,259.47 L960.47,261.38 L959.02,261.06 L959.34,262.58 L958.94,263.37 L958.6,265.02 L957.74,266.11 L956.93,266.01 L955.76,266.76 L955.3,267.33 L955.26,268.43 L954.48,269.4 L951.66,274.41 L949.22,275.89 L948.63,275.68 L949.28,273.32 L949.72,270.93 L948.24,269.89 L946.82,269.34 L945.19,269.41 L943.39,267.55 L941.07,266.19 L937.83,262.52 L937.93,261.5 L937.85,259.79 L938.84,257.08 L939.78,255.18 L941.08,254.2 L944.86,253.2 L945.81,251.69 L946.37,250.42 L947.33,249.58 L949.5,248.05 L952.81,246.2 L948.23,239.98 L947.14,239.62 L945.94,236.57 L944.55,235.73 L944.2,235.26 L944.14,232.92 L944.27,231.58 L944.48,230.79 L945.67,230.13 L946.36,228.78 L946.37,228.08 L945.46,225.9 L945.46,225.22 L947.2,223.9 L949.46,221.31 L950.81,218.46 L951.36,217.63 L952.02,217.04 L953.51,216.23 L955.39,217.38 L957.27,218.53 L959.15,219.68 L961.03,220.83 L962.91,221.98 L964.79,223.13 L966.67,224.27 L968.44,225.31 Z M964.21,257.81 L961.99,261.52 L961.94,260.81 L964.72,256.2 L964.21,257.81 Z" transform="translate(-937 -215)"/>
</svg>
