<svg xmlns="http://www.w3.org/2000/svg" width="96" height="124" viewBox="0 0 96 124">
  <polygon fill="#CCCCCC" stroke="#FFFFFF" stroke-width=".5" points="264.1 199.87 264.1 203.04 264.1 206.21 264.1 209.37 264.1 212.53 264.1 215.68 264.1 218.83 264.11 221.96 264.11 225.1 268.85 225.1 273.61 225.1 278.36 225.1 283.1 225.1 287.85 225.1 292.6 225.1 297.35 225.1 302.1 225.1 302.1 231.34 302.1 237.56 302.1 243.76 302.1 249.94 302.1 256.09 302.1 262.22 302.1 268.33 302.1 274.42 302.1 280.49 302.1 286.53 302.1 292.55 302.1 298.55 302.1 304.53 302.1 310.5 302.1 316.44 302.1 322.36 296.18 322.35 290.26 322.35 284.34 322.34 278.42 322.34 272.5 322.33 266.58 322.33 260.67 322.32 254.75 322.32 248.83 322.31 242.91 322.31 236.99 322.3 231.07 322.3 225.15 322.29 219.23 322.29 213.32 322.28 207.4 322.28 207.4 318.58 207.39 314.88 207.39 311.17 207.39 307.45 207.39 303.72 207.39 299.99 207.39 296.24 207.39 292.49 207.38 288.73 207.38 284.96 207.38 281.19 207.38 277.4 207.38 273.61 207.38 269.81 207.38 266 207.37 262.18 207.37 258.35 207.37 254.52 207.37 250.67 207.37 246.82 207.37 242.96 207.37 239.09 207.37 235.21 207.36 231.32 207.36 227.42 207.36 223.51 207.36 219.59 207.36 215.66 207.36 211.73 207.36 207.78 207.35 203.83 207.35 199.86 210.9 199.86 214.45 199.86 217.99 199.86 221.54 199.86 225.09 199.86 228.63 199.86 232.18 199.86 235.73 199.86 239.27 199.86 242.82 199.86 246.37 199.87 249.91 199.87 253.46 199.87 257.01 199.87 260.55 199.87" transform="translate(-207 -199)"/>
</svg>
