<svg xmlns="http://www.w3.org/2000/svg" width="38" height="61" viewBox="0 0 38 61">
  <polygon fill="#CCCCCC" stroke="#FFFFFF" stroke-width=".5" points="995.81 181.21 993.95 181.14 992.08 181.07 990.22 181 988.35 180.93 986.49 180.86 984.63 180.79 982.76 180.72 980.9 180.65 980.39 179.08 980.65 177.75 980.69 175.93 980.74 173.56 980.79 170.95 980.86 167.39 980.91 165 980.96 162.86 981.02 159.91 979.9 158.26 979.44 157.98 979.08 158.15 978.28 159.24 978.02 159.23 977.81 158.95 977.86 157.96 978.58 154.44 978.59 153.35 978.44 151.47 977.64 147.2 977.62 146.24 977.93 144.75 978.48 143.28 979.41 141.77 979.62 141.13 979.55 138.51 979.83 136.08 978.65 132.43 979.09 127.7 978.76 125.44 979.16 123.34 979.02 121.56 982.25 121.56 990.14 121.54 998.03 121.53 1005.93 121.52 1013.82 121.51 1013.51 122.03 1013.95 124.16 1011.86 127.79 1011.91 128.97 1012.85 132.16 1012.79 132.92 1012.48 133.28 1012.08 134.64 1011.53 135.5 1010.68 136.33 1007.98 138.35 1007.18 138.85 1004.63 139.53 1004.07 140.29 1003.49 145.15 1002.65 147.86 1002.49 149.12 1001.37 151.25 1000.45 153.69 999.04 155.68 998.26 158.11 997.8 159.03 997.37 160.53 996.95 165.66 996.36 168.45 995.68 173.27 995.25 174.48 994.82 175.12 994.24 177.19 994.18 177.97 994.43 178.66 995.49 180.29" transform="translate(-977 -121)"/>
</svg>
