<svg xmlns="http://www.w3.org/2000/svg" width="150" height="97" viewBox="0 0 150 97">
  <path fill="#CCCCCC" stroke="#FFFFFF" stroke-width=".5" d="M153.23,94.68 L148.53,94.68 L143.5,94.69 L138.47,94.7 L133.44,94.71 L128.41,94.72 L123.38,94.73 L118.35,94.74 L113.32,94.75 L112.99,94.76 L112.42,95.27 L110,96.26 L105.22,96.56 L95.64,99.18 L91.43,101.23 L87.72,102.23 L80.81,103.19 L74.56,104.56 L71.92,104.43 L70.81,103.26 L67.79,102.59 L62.85,102.42 L58.69,103.2 L54.84,105.55 L53.61,105.79 L52.61,105.86 L45.81,104.94 L44.12,104.88 L42.68,103.63 L42.29,101.57 L40.45,95.37 L38.58,91.65 L36.68,90.42 L35.19,89.91 L33.3,90.6 L32.72,90.23 L31.82,90.13 L29.81,88.76 L28.67,87.39 L25.15,87.48 L24.43,86.6 L20.5,87.48 L19.28,86.58 L17.14,87.16 L17.66,84.6 L17.56,81.37 L17.67,78.22 L18.2,80.52 L19.53,82.96 L20.17,80.19 L20.61,76.71 L19.31,75.37 L17.15,74.37 L16.38,71.11 L21.49,68.33 L18.78,67.74 L17.71,66.49 L16.39,66.34 L16.29,67.31 L15.87,68.57 L15.41,66.89 L15.28,64.91 L14.74,61.52 L12.64,56.05 L11.38,48.94 L9.79,45.41 L6.74,42.03 L5.94,40.02 L5.21,35 L5.62,31.19 L5.05,28.5 L6.52,28.65 L10.38,30.76 L15.19,32.42 L16.65,33.62 L18.98,34.51 L31.9,35.9 L32.74,35.77 L34.41,34.91 L35.12,35.01 L37.02,36.97 L37.97,37.2 L39.2,37.1 L40.11,36.73 L41.67,35.38 L41.88,35.88 L41.85,37.13 L42.41,38.9 L43.55,41.2 L43.98,42.63 L41.67,46.65 L41.23,46.74 L41.16,45.38 L40.86,45.11 L36.51,51.88 L34.99,55.08 L34.84,56.52 L34.89,57.36 L35.5,57.57 L36.89,57.24 L38.95,55.92 L39.05,55.63 L37.13,56.1 L36.21,56.14 L36.34,54.63 L36.56,53.91 L37.81,51.67 L39.13,50.33 L41.01,48.89 L42.09,47.71 L42.84,45.98 L44.92,43.91 L45.3,43.33 L45.21,41.62 L45.34,41.3 L46.34,41.53 L46.76,44.46 L46.51,45.77 L44.72,47.36 L44.5,47.92 L44.81,50.09 L44.53,50.32 L43.85,50.07 L43.64,50.21 L45.34,52.56 L45.88,54.39 L45.95,56.02 L45.49,59.14 L45,59.66 L44.15,59.47 L43.03,58.5 L42.78,58.81 L41.89,61.23 L41.6,61.02 L41.04,58.15 L40.74,57.94 L39.01,59.25 L38.32,60.51 L37.72,62.51 L36.96,63.45 L39.11,63.66 L41.05,63.26 L42.61,64.21 L43.14,64.24 L44.56,63.31 L45,62.68 L46.18,59.66 L46.77,59.12 L47.65,59.1 L48.5,58.65 L49.76,56.99 L49.81,56.33 L49.35,52.61 L49.48,50.49 L49.25,49.82 L48.69,49.12 L48.76,48.44 L49.2,47.33 L49.23,46.32 L48.85,45.42 L49.02,44.4 L50.21,42.2 L50.43,41.23 L51.88,39.03 L51.52,38.15 L50.45,37.07 L49.78,36.12 L49.1,34.63 L48.59,34.13 L48.42,34.36 L49.14,36.8 L48.99,36.96 L47.11,35.65 L46.67,34.82 L46.44,33.7 L46.61,32.86 L47.62,32.03 L48.83,31.73 L48.73,31.03 L47.22,28.74 L46.21,27.7 L45.43,27.2 L44.38,27.07 L43.91,26.7 L43.79,26.16 L44.01,25.45 L44.57,25.22 L46.19,25.51 L47.06,25.01 L46.98,24.1 L46.72,23.6 L46.76,20.33 L46.15,17.67 L45.83,17.22 L45.49,17.18 L45.12,17.54 L44.1,17.63 L43.48,16.76 L42.79,15.07 L41.53,11.04 L43.47,11.04 L51.56,11.04 L59.65,11.04 L67.74,11.04 L75.83,11.04 L83.92,11.04 L92.01,11.04 L100.1,11.04 L108.19,11.04 L116.28,11.04 L124.37,11.04 L132.46,11.04 L140.55,11.04 L148.64,11.04 L150.62,11.04 L150.65,15.63 L150.67,20.23 L150.69,24.81 L150.71,29.38 L150.73,33.93 L150.75,38.47 L150.77,43 L150.79,47.51 L150.81,52.01 L150.83,56.49 L150.85,60.96 L150.87,65.42 L150.89,69.86 L150.91,74.29 L150.93,78.71 L150.95,83.11 L150.81,83.37 L150.69,84.01 L151.23,85.84 L152.51,88.51 L152.91,90.38 L152.42,91.45 L152.75,93.31 L153.23,94.68 Z M41.61,20.16 L41.86,20.78 L41.1,21.38 L40.56,21.47 L39.7,20.5 L39.32,20.39 L39.62,21.89 L39.52,22.4 L37.75,21.48 L37.42,20.75 L37.92,19.98 L39.03,19.18 L39.42,19.09 L41.61,20.16 Z M37.23,25.07 L37.73,26.01 L35.69,25.41 L34.83,24.87 L34.57,24.35 L34.26,22.63 L34.4,22.07 L35.31,21.87 L37.02,24.01 L37.23,25.07 Z M40.88,27.05 L40.58,27.33 L39.57,26.96 L38.97,26.32 L38.77,25.53 L39.15,24.01 L39.66,23.62 L39.97,23.71 L40.1,25.04 L41,26.45 L40.88,27.05 Z M45.58,34.86 L46.51,38.57 L46.91,37.03 L49.49,39.71 L49.49,41.03 L49.18,41.47 L48.64,41.62 L48.14,41.24 L47.68,40.32 L47.1,39.83 L45.86,39.52 L45.22,38.47 L45,37.75 L44.94,35.67 L44.63,35.02 L43.97,34.88 L43.34,34.39 L42.37,32.93 L42.23,32.54 L42.69,31.35 L43.74,29.36 L44.51,28.41 L45,28.5 L45.59,29.1 L46.29,30.19 L46.16,30.96 L43.32,32.46 L43.23,32.81 L44.61,33.23 L45.12,33.61 L45.58,34.86 Z M47.01,50.7 L46.91,51.24 L45.86,50.6 L45.52,50.01 L45.56,48.68 L45.82,47.81 L46.02,47.64 L46.64,48.02 L46.82,48.24 L47.01,50.7 Z M48.97,56.28 L48.88,56.92 L48.15,57.41 L47.77,57.28 L47.75,56.53 L47.55,56.42 L46.77,57.32 L46.83,55.54 L47.22,53.66 L47.56,53.63 L48.06,54.86 L48.97,56.28 Z M40.27,61.59 L40.09,62.13 L39.82,62.1 L39.23,60.99 L39.16,60.21 L39.67,59.64 L40.35,61.27 L40.27,61.59 Z" transform="translate(-4 -10)"/>
</svg>
