<svg xmlns="http://www.w3.org/2000/svg" width="94" height="85" viewBox="0 0 94 85">
  <polygon fill="#CCCCCC" stroke="#FFFFFF" stroke-width=".5" points="862.86 256.78 862.81 259.92 862.76 263.06 862.71 266.18 862.66 269.31 865.09 267.49 866.35 266.85 870.49 262.83 871.03 262.81 872.46 263.38 875.43 260.53 875.78 259.49 876.13 259.14 876.5 259.19 876.72 259.46 876.59 260.05 876.81 260.34 878.03 261.03 879.74 261.4 879.98 261.44 881.48 261.43 882.15 260.87 882.48 259.76 883.17 259.11 884.71 258.83 887.44 257.69 889.03 257.88 890.36 259.03 891.72 259.58 893.1 259.53 893.62 259.8 893.31 260.39 893.67 261.06 894.71 261.82 895.06 262.53 894.72 263.19 894.83 263.67 895.39 263.98 895.72 264.69 895.83 265.81 896.06 266 894.83 268.92 893.99 270.91 891.86 269.18 888.64 266.56 887.22 265.42 884.77 263.42 884.22 264.42 883.94 266.26 883.23 268.05 882.63 270.53 879.85 274.46 877.74 276.34 877.09 276.29 876.53 276.67 875.6 277.83 874.41 278.86 872.07 278.82 871.14 279.54 870.52 280.7 869.94 282.37 869.02 283.69 868.07 285.93 867.36 287.12 866.15 287.76 864.41 287.65 862.34 286.76 861.96 285.74 861.38 285.12 860.58 284.69 859.79 284.8 859.23 285.48 858.35 288.86 857.06 290.5 856.5 292.16 854.8 294.24 853.49 297.47 849.38 302.78 848.29 304.53 847.54 306.3 848.11 307.06 848.29 307.64 847.41 308.95 846.96 310.29 845.91 311.17 844.14 312.12 843.63 311.38 843.33 311.25 839.3 312.87 838.35 312.86 837.38 312.35 836.96 312.38 836.6 312.55 836.42 312.91 836.39 314.31 835.59 315 835.06 315.23 832.9 315.42 830.61 316.14 829.68 316.14 827.35 314.47 826.03 315.69 824.78 316.29 823.27 317.41 822.82 317.45 821.46 317.13 819.72 315.96 818.26 315.3 817.38 314.57 816.67 313.63 816.17 312.12 815.56 311.16 815.82 310.33 815.68 309.57 813.06 308.83 809.71 306.06 807.55 302.68 806.87 301.11 806.07 300.05 805.88 298.97 803.86 296.18 803.31 294.98 803.27 294.21 803.92 292.75 804.05 292.04 803.84 288.47 803.4 287.8 805.59 288.6 807.68 288.14 808.99 287.04 809.51 285.29 810.24 284.28 811.18 283.99 811.61 283.23 811.47 281.35 811.16 280.06 811.93 278.21 813.65 275.34 815 274.17 815.97 274.7 816.57 275.6 816.78 276.86 816.98 277.02 817.25 277.01 817.99 276.04 818.64 275.65 818.91 275.75 819.19 275.73 819.24 275.1 818.72 273.37 818.77 272.35 819.37 272.04 820.02 270.87 820.7 268.85 821.52 267.82 822.49 267.76 823.52 266.94 824.64 265.34 825.65 264.87 826.54 265.55 827.67 265.6 829.01 265.02 831.35 263.32 834.68 260.5 836.37 258.22 836.41 256.47 837.71 252.2 840.28 245.39 841.54 240.96 841.49 238.95 841.13 237.3 840.45 236.02 840.86 235.02 843.11 233.93 843.09 236.79 843.09 239.66 843.09 242.53 843.09 245.39 843.09 248.25 843.1 251.1 843.1 253.95 843.1 256.79 845.57 256.79 848.04 256.79 850.51 256.79 852.98 256.79 855.45 256.78 857.92 256.78 860.39 256.78" transform="translate(-803 -233)"/>
</svg>
